SplineFontDB: 3.2
FontName: InputMono-Regular-L
FullName: Input Mono Regular L
FamilyName: Input Mono Regular L
Weight: Book
Copyright: (c) Copyright The Font Bureau, Inc. 2014. All rights reserved.\nProgramming ligatures added by Ilya Skriblovsky from FiraCode\nFiraCode Copyright (c) 2015 by Nikita Prokopov
Version: 0.000;PS 0.0;hotconv 1.0.72;makeotf.lib2.5.5900
ItalicAngle: 0
UnderlinePosition: 0
UnderlineWidth: 0
Ascent: 850
Descent: 250
InvalidEm: 0
sfntRevision: 0x0001199a
LayerCount: 4
Layer: 0 1 "Back" 1
Layer: 1 1 "Fore" 0
Layer: 2 0 "Back 2" 1
Layer: 3 0 "Back 3" 1
XUID: [1021 1 -272337725 509519]
StyleMap: 0x0040
FSType: 4
OS2Version: 3
OS2_WeightWidthSlopeOnly: 0
OS2_UseTypoMetrics: 0
CreationTime: 1396671496
ModificationTime: 1573233715
PfmFamily: 17
TTFWeight: 400
TTFWidth: 5
LineGap: 0
VLineGap: 0
Panose: 2 0 5 9 2 0 0 9 0 4
OS2TypoAscent: 850
OS2TypoAOffset: 0
OS2TypoDescent: -250
OS2TypoDOffset: 0
OS2TypoLinegap: 110
OS2WinAscent: 1020
OS2WinAOffset: 0
OS2WinDescent: 300
OS2WinDOffset: 0
HheadAscent: 1020
HheadAOffset: 0
HheadDescent: -300
HheadDOffset: 0
OS2SubXSize: 715
OS2SubYSize: 660
OS2SubXOff: 0
OS2SubYOff: 82
OS2SupXSize: 715
OS2SupYSize: 660
OS2SupXOff: 0
OS2SupYOff: 385
OS2StrikeYSize: 55
OS2StrikeYPos: 360
OS2CapHeight: 800
OS2XHeight: 600
OS2Vendor: 'FBI '
OS2CodePages: 2000009f.dfd70000
OS2UnicodeRanges: a00002e7.0000f8fb.00000000.00000000
Lookup: 6 0 0 "'calt' Contextual Alternates lookup 0" { "'calt' Contextual Alternates lookup 0 contextual 0"  "'calt' Contextual Alternates lookup 0 contextual 1"  "'calt' Contextual Alternates lookup 0 contextual 2"  "'calt' Contextual Alternates lookup 0 contextual 3"  } ['calt' ('DFLT' <'dflt' > 'arab' <'dflt' > 'armn' <'dflt' > 'cyrl' <'SRB ' 'dflt' > 'geor' <'dflt' > 'grek' <'dflt' > 'lao ' <'dflt' > 'latn' <'CAT ' 'ESP ' 'GAL ' 'ISM ' 'KSM ' 'LSM ' 'MOL ' 'NSM ' 'ROM ' 'SKS ' 'SSM ' 'dflt' > 'math' <'dflt' > 'thai' <'dflt' > ) ]

StartChar: .notdef
Encoding: 1114112 -1 0
Width: 700
Flags: W
LayerCount: 4
Fore
SplineSet
50 -250 m 1,0,-1
 50 850 l 1,1,-1
 650 850 l 1,2,-1
 650 -250 l 1,3,-1
 50 -250 l 1,0,-1
150 -150 m 1,4,-1
 550 -150 l 1,5,-1
 550 750 l 1,6,-1
 150 750 l 1,7,-1
 150 -150 l 1,4,-1
EndSplineSet
EndChar

StartChar: exclam
Encoding: 33 33 5
Width: 700
GlyphClass: 2
Flags: W
LayerCount: 4
Fore
SplineSet
310 300 m 1,0,-1
 280 800 l 1,1,-1
 420 800 l 1,2,-1
 390 300 l 1,3,-1
 310 300 l 1,0,-1
351 -10 m 0,4,5
 301 -10 301 -10 277.5 10.5 c 128,-1,6
 254 31 254 31 254 74 c 2,7,-1
 254 102 l 2,8,9
 254 146 254 146 277.5 167 c 128,-1,10
 301 188 301 188 351 188 c 256,11,12
 401 188 401 188 424 167 c 128,-1,13
 447 146 447 146 447 102 c 2,14,-1
 447 74 l 2,15,16
 447 31 447 31 423.5 10.5 c 128,-1,17
 400 -10 400 -10 351 -10 c 0,4,5
EndSplineSet
Substitution2: "Single Substitution lookup 109 subtable" CR.6.0
Substitution2: "Single Substitution lookup 91 subtable" CR.12.0
Substitution2: "Single Substitution lookup 90 subtable" lig.12
Substitution2: "Single Substitution lookup 28 subtable" CR.31.0
Substitution2: "Single Substitution lookup 3 subtable" CR.37.1
EndChar

StartChar: quotedbl
Encoding: 34 34 6
Width: 700
GlyphClass: 2
Flags: W
LayerCount: 4
Fore
SplineSet
450 400 m 1,0,-1
 420 800 l 1,1,-1
 580 800 l 1,2,-1
 550 400 l 1,3,-1
 450 400 l 1,0,-1
150 400 m 1,4,-1
 120 800 l 1,5,-1
 280 800 l 1,6,-1
 250 400 l 1,7,-1
 150 400 l 1,4,-1
EndSplineSet
EndChar

StartChar: numbersign
Encoding: 35 35 7
Width: 700
GlyphClass: 2
Flags: W
LayerCount: 4
Fore
SplineSet
415 290 m 1,0,-1
 426 510 l 1,1,-1
 286 510 l 1,2,-1
 275 290 l 1,3,-1
 415 290 l 1,0,-1
400 0 m 1,4,-1
 410 200 l 1,5,-1
 270 200 l 1,6,-1
 260 0 l 1,7,-1
 170 0 l 1,8,-1
 180 200 l 1,9,-1
 50 200 l 1,10,-1
 50 290 l 1,11,-1
 185 290 l 1,12,-1
 196 510 l 1,13,-1
 50 510 l 1,14,-1
 50 600 l 1,15,-1
 200 600 l 1,16,-1
 210 800 l 1,17,-1
 300 800 l 1,18,-1
 290 600 l 1,19,-1
 430 600 l 1,20,-1
 440 800 l 1,21,-1
 530 800 l 1,22,-1
 520 600 l 1,23,-1
 650 600 l 1,24,-1
 650 510 l 1,25,-1
 516 510 l 1,26,-1
 505 290 l 1,27,-1
 650 290 l 1,28,-1
 650 200 l 1,29,-1
 500 200 l 1,30,-1
 490 0 l 1,31,-1
 400 0 l 1,4,-1
EndSplineSet
EndChar

StartChar: dollar
Encoding: 36 36 8
Width: 700
GlyphClass: 2
Flags: W
LayerCount: 4
Fore
SplineSet
189 565 m 0,0,1
 189 528 189 528 218 503 c 128,-1,2
 247 478 247 478 320 456 c 1,3,-1
 320 667 l 1,4,5
 261 665 261 665 225 643.5 c 128,-1,6
 189 622 189 622 189 565 c 0,0,1
515 235 m 0,7,8
 515 274 515 274 485 299 c 128,-1,9
 455 324 455 324 380 346 c 1,10,-1
 380 126 l 1,11,12
 440 128 440 128 477.5 154.5 c 128,-1,13
 515 181 515 181 515 235 c 0,7,8
390 -50 m 1,14,-1
 310 -50 l 1,15,-1
 310 47 l 1,16,17
 251 52 251 52 193 70 c 128,-1,18
 135 88 135 88 95 116 c 1,19,-1
 125 197 l 1,20,21
 168 169 168 169 220 152 c 128,-1,22
 272 135 272 135 320 129 c 1,23,-1
 320 362 l 1,24,25
 198 393 198 393 149 440 c 128,-1,26
 100 487 100 487 100 565 c 0,27,28
 100 652 100 652 151.5 700 c 128,-1,29
 203 748 203 748 310 753 c 1,30,-1
 310 850 l 1,31,-1
 390 850 l 1,32,-1
 390 752 l 1,33,34
 444 747 444 747 494 732 c 128,-1,35
 544 717 544 717 579 695 c 1,36,-1
 549 612 l 1,37,38
 511 633 511 633 467 646.5 c 128,-1,39
 423 660 423 660 380 664 c 1,40,-1
 380 439 l 1,41,42
 505 405 505 405 555 359.5 c 128,-1,43
 605 314 605 314 605 238 c 0,44,45
 605 149 605 149 549.5 100 c 128,-1,46
 494 51 494 51 390 45 c 1,47,-1
 390 -50 l 1,14,-1
EndSplineSet
EndChar

StartChar: percent
Encoding: 37 37 9
Width: 700
GlyphClass: 2
Flags: W
LayerCount: 4
Fore
SplineSet
195 448 m 256,0,1
 126 448 126 448 83 486 c 128,-1,2
 40 524 40 524 40 603 c 2,3,-1
 40 663 l 2,4,5
 40 743 40 743 83 781.5 c 128,-1,6
 126 820 126 820 195 820 c 256,7,8
 264 820 264 820 306.5 781.5 c 128,-1,9
 349 743 349 743 349 663 c 2,10,-1
 349 603 l 2,11,12
 349 524 349 524 306.5 486 c 128,-1,13
 264 448 264 448 195 448 c 256,0,1
195 529 m 256,14,15
 225 529 225 529 242 546 c 128,-1,16
 259 563 259 563 259 601 c 2,17,-1
 259 665 l 2,18,19
 259 703 259 703 242 721 c 128,-1,20
 225 739 225 739 195 739 c 256,21,22
 165 739 165 739 147.5 721 c 128,-1,23
 130 703 130 703 130 665 c 2,24,-1
 130 601 l 2,25,26
 130 563 130 563 147.5 546 c 128,-1,27
 165 529 165 529 195 529 c 256,14,15
45 168 m 1,28,-1
 605 697 l 1,29,-1
 660 639 l 1,30,-1
 99 110 l 1,31,-1
 45 168 l 1,28,-1
506 -22 m 256,32,33
 437 -22 437 -22 394 16 c 128,-1,34
 351 54 351 54 351 133 c 2,35,-1
 351 193 l 2,36,37
 351 273 351 273 394 311.5 c 128,-1,38
 437 350 437 350 506 350 c 256,39,40
 575 350 575 350 617.5 311.5 c 128,-1,41
 660 273 660 273 660 193 c 2,42,-1
 660 133 l 2,43,44
 660 54 660 54 617.5 16 c 128,-1,45
 575 -22 575 -22 506 -22 c 256,32,33
506 59 m 256,46,47
 536 59 536 59 553 76 c 128,-1,48
 570 93 570 93 570 131 c 2,49,-1
 570 195 l 2,50,51
 570 233 570 233 553 251 c 128,-1,52
 536 269 536 269 506 269 c 256,53,54
 476 269 476 269 458.5 251 c 128,-1,55
 441 233 441 233 441 195 c 2,56,-1
 441 131 l 2,57,58
 441 93 441 93 458.5 76 c 128,-1,59
 476 59 476 59 506 59 c 256,46,47
EndSplineSet
EndChar

StartChar: ampersand
Encoding: 38 38 10
Width: 700
GlyphClass: 2
Flags: W
LayerCount: 4
Fore
SplineSet
665 -6 m 1,0,1
 605 12 605 12 550.5 40.5 c 128,-1,2
 496 69 496 69 447 104 c 1,3,4
 401 51 401 51 352 20.5 c 128,-1,5
 303 -10 303 -10 235 -10 c 0,6,7
 150 -10 150 -10 95 44 c 128,-1,8
 40 98 40 98 40 201 c 0,9,10
 40 283 40 283 81.5 342 c 128,-1,11
 123 401 123 401 178 432 c 1,12,13
 155 482 155 482 142.5 526.5 c 128,-1,14
 130 571 130 571 130 604 c 0,15,16
 130 699 130 699 177 754.5 c 128,-1,17
 224 810 224 810 310 810 c 0,18,19
 383 810 383 810 432.5 759 c 128,-1,20
 482 708 482 708 482 639 c 0,21,22
 482 555 482 555 434.5 505 c 128,-1,23
 387 455 387 455 277 414 c 1,24,25
 285 397 285 397 295.5 380.5 c 128,-1,26
 306 364 306 364 316 348 c 0,27,28
 341 311 341 311 370 276.5 c 128,-1,29
 399 242 399 242 432 212 c 1,30,31
 460 255 460 255 486 309 c 128,-1,32
 512 363 512 363 535 426 c 1,33,-1
 620 387 l 1,34,35
 590 317 590 317 550.5 264.5 c 128,-1,36
 511 212 511 212 475 164 c 1,37,-1
 680 85 l 1,38,-1
 665 -6 l 1,0,1
225 599 m 0,39,40
 225 568 225 568 232.5 533.5 c 128,-1,41
 240 499 240 499 254 465 c 1,42,43
 328 498 328 498 361.5 537 c 128,-1,44
 395 576 395 576 395 628 c 0,45,46
 395 670 395 670 370.5 696.5 c 128,-1,47
 346 723 346 723 313 723 c 0,48,49
 264 723 264 723 244.5 689 c 128,-1,50
 225 655 225 655 225 599 c 0,39,40
243 77 m 0,51,52
 281 77 281 77 317 97 c 128,-1,53
 353 117 353 117 387 154 c 1,54,55
 350 186 350 186 318.5 221.5 c 128,-1,56
 287 257 287 257 260 294 c 0,57,58
 246 314 246 314 232.5 334.5 c 128,-1,59
 219 355 219 355 208 374 c 1,60,61
 176 344 176 344 155.5 300.5 c 128,-1,62
 135 257 135 257 135 211 c 0,63,64
 135 151 135 151 162.5 114 c 128,-1,65
 190 77 190 77 243 77 c 0,51,52
EndSplineSet
EndChar

StartChar: quotesingle
Encoding: 39 39 11
Width: 700
GlyphClass: 2
Flags: W
LayerCount: 4
Fore
SplineSet
300 400 m 1,0,-1
 270 800 l 1,1,-1
 430 800 l 1,2,-1
 400 400 l 1,3,-1
 300 400 l 1,0,-1
EndSplineSet
EndChar

StartChar: parenleft
Encoding: 40 40 12
Width: 700
GlyphClass: 2
Flags: W
LayerCount: 4
Fore
SplineSet
550 -210 m 1,0,1
 393 -173 393 -173 296.5 -39 c 128,-1,2
 200 95 200 95 200 300 c 256,3,4
 200 505 200 505 296.5 639 c 128,-1,5
 393 773 393 773 550 810 c 1,6,-1
 560 732 l 1,7,8
 426 695 426 695 363 577.5 c 128,-1,9
 300 460 300 460 300 300 c 256,10,11
 300 140 300 140 363 22.5 c 128,-1,12
 426 -95 426 -95 560 -132 c 1,13,-1
 550 -210 l 1,0,1
EndSplineSet
EndChar

StartChar: parenright
Encoding: 41 41 13
Width: 700
GlyphClass: 2
Flags: W
LayerCount: 4
Fore
SplineSet
150 -210 m 1,0,-1
 140 -132 l 1,1,2
 274 -95 274 -95 337 23.5 c 128,-1,3
 400 142 400 142 400 300 c 256,4,5
 400 458 400 458 337 576.5 c 128,-1,6
 274 695 274 695 140 732 c 1,7,-1
 150 810 l 1,8,9
 307 773 307 773 403.5 638.5 c 128,-1,10
 500 504 500 504 500 300 c 256,11,12
 500 96 500 96 403.5 -38.5 c 128,-1,13
 307 -173 307 -173 150 -210 c 1,0,-1
EndSplineSet
EndChar

StartChar: asterisk
Encoding: 42 42 14
Width: 700
GlyphClass: 2
Flags: W
LayerCount: 4
Fore
SplineSet
579 279 m 1,0,-1
 381 443 l 1,1,-1
 409 200 l 1,2,-1
 289 200 l 1,3,-1
 317 442 l 1,4,-1
 120 279 l 1,5,-1
 60 383 l 1,6,-1
 294 501 l 1,7,-1
 60 619 l 1,8,-1
 120 723 l 1,9,-1
 317 559 l 1,10,-1
 289 800 l 1,11,-1
 409 800 l 1,12,-1
 381 558 l 1,13,-1
 579 723 l 1,14,-1
 639 619 l 1,15,-1
 405 501 l 1,16,-1
 639 383 l 1,17,-1
 579 279 l 1,0,-1
EndSplineSet
Substitution2: "'ss20' Style Set 20 in Latin lookup 158 subtable" multiply
Substitution2: "'ss11' Style Set 11 in Latin lookup 155 subtable" asterisk.salt_height
Substitution2: "Single Substitution lookup 84 subtable" lig.14
Substitution2: "Single Substitution lookup 82 subtable" CR.15.0
Substitution2: "Single Substitution lookup 19 subtable" CR.33.1
Substitution2: "Single Substitution lookup 18 subtable" lig.33
EndChar

StartChar: plus
Encoding: 43 43 15
Width: 700
GlyphClass: 2
Flags: W
LayerCount: 4
Fore
SplineSet
300 40 m 1,0,-1
 300 300 l 1,1,-1
 70 300 l 1,2,-1
 70 400 l 1,3,-1
 300 400 l 1,4,-1
 300 660 l 1,5,-1
 400 660 l 1,6,-1
 400 400 l 1,7,-1
 630 400 l 1,8,-1
 630 300 l 1,9,-1
 400 300 l 1,10,-1
 400 40 l 1,11,-1
 300 40 l 1,0,-1
EndSplineSet
EndChar

StartChar: comma
Encoding: 44 44 16
Width: 700
GlyphClass: 2
Flags: W
LayerCount: 4
Fore
SplineSet
200 -200 m 1,0,-1
 290 200 l 1,1,-1
 489 200 l 1,2,-1
 284 -200 l 1,3,-1
 200 -200 l 1,0,-1
EndSplineSet
EndChar

StartChar: hyphen
Encoding: 8209 8209 17
AltUni2: 002010.ffffffff.0 0000ad.ffffffff.0 00002d.ffffffff.0
Width: 700
GlyphClass: 2
Flags: W
LayerCount: 4
Fore
SplineSet
70 300 m 1,0,-1
 70 400 l 1,1,-1
 630 400 l 1,2,-1
 630 300 l 1,3,-1
 70 300 l 1,0,-1
EndSplineSet
Substitution2: "Single Substitution lookup 123 subtable" lig.1
Substitution2: "Single Substitution lookup 121 subtable" CR.2.0
Substitution2: "Single Substitution lookup 88 subtable" CR.13.0
Substitution2: "Single Substitution lookup 87 subtable" lig.13
Substitution2: "Single Substitution lookup 51 subtable" CR.25.1
Substitution2: "Single Substitution lookup 50 subtable" lig.25
Substitution2: "Single Substitution lookup 48 subtable" CR.26.0
Substitution2: "Single Substitution lookup 47 subtable" CR.26.1
Substitution2: "Single Substitution lookup 43 subtable" CR.27.1
Substitution2: "Single Substitution lookup 24 subtable" CR.32.0
Substitution2: "Single Substitution lookup 23 subtable" CR.32.1
Substitution2: "Single Substitution lookup 22 subtable" lig.32
Substitution2: "Single Substitution lookup 2 subtable" CR.37.2
Substitution2: "Single Substitution lookup 1 subtable" lig.37
EndChar

StartChar: period
Encoding: 46 46 18
Width: 700
GlyphClass: 2
Flags: W
LayerCount: 4
Fore
SplineSet
351 -10 m 0,0,1
 301 -10 301 -10 270 12.5 c 128,-1,2
 239 35 239 35 239 84 c 2,3,-1
 239 112 l 2,4,5
 239 161 239 161 270 184.5 c 128,-1,6
 301 208 301 208 351 208 c 256,7,8
 401 208 401 208 431.5 184.5 c 128,-1,9
 462 161 462 161 462 112 c 2,10,-1
 462 84 l 2,11,12
 462 35 462 35 431 12.5 c 128,-1,13
 400 -10 400 -10 351 -10 c 0,0,1
EndSplineSet
EndChar

StartChar: slash
Encoding: 47 47 19
Width: 700
GlyphClass: 2
Flags: W
LayerCount: 4
Fore
SplineSet
100 -200 m 1,0,-1
 500 800 l 1,1,-1
 600 800 l 1,2,-1
 200 -200 l 1,3,-1
 100 -200 l 1,0,-1
EndSplineSet
Substitution2: "Single Substitution lookup 161 subtable" fraction
Substitution2: "'ss20' Style Set 20 in Latin lookup 158 subtable" divide
Substitution2: "'dnom' Denominators in Latin lookup 130 subtable" fraction
Substitution2: "'numr' Numerators in Latin lookup 129 subtable" fraction
Substitution2: "Single Substitution lookup 85 subtable" CR.14.0
Substitution2: "Single Substitution lookup 81 subtable" lig.15
Substitution2: "Single Substitution lookup 79 subtable" CR.16.0
Substitution2: "Single Substitution lookup 78 subtable" lig.16
Substitution2: "Single Substitution lookup 20 subtable" CR.33.0
Substitution2: "Single Substitution lookup 16 subtable" CR.34.0
Substitution2: "Single Substitution lookup 15 subtable" CR.34.1
Substitution2: "Single Substitution lookup 14 subtable" lig.34
EndChar

StartChar: zero
Encoding: 48 48 20
Width: 700
GlyphClass: 2
Flags: W
LayerCount: 4
Fore
SplineSet
350 -10 m 256,0,1
 218 -10 218 -10 149 78.5 c 128,-1,2
 80 167 80 167 80 337 c 2,3,-1
 80 459 l 2,4,5
 80 631 80 631 149 720.5 c 128,-1,6
 218 810 218 810 351 810 c 0,7,8
 483 810 483 810 551.5 720.5 c 128,-1,9
 620 631 620 631 620 459 c 2,10,-1
 620 337 l 2,11,12
 620 167 620 167 551 78.5 c 128,-1,13
 482 -10 482 -10 350 -10 c 256,0,1
350 80 m 256,14,15
 441 80 441 80 480.5 140 c 128,-1,16
 520 200 520 200 520 337 c 2,17,-1
 520 459 l 2,18,19
 520 599 520 599 480.5 659.5 c 128,-1,20
 441 720 441 720 350 720 c 256,21,22
 259 720 259 720 219.5 659.5 c 128,-1,23
 180 599 180 599 180 459 c 2,24,-1
 180 337 l 2,25,26
 180 200 180 200 219.5 140 c 128,-1,27
 259 80 259 80 350 80 c 256,14,15
350 322 m 0,28,29
 318 322 318 322 298 333 c 128,-1,30
 278 344 278 344 278 375 c 2,31,-1
 278 424 l 2,32,33
 278 454 278 454 298 465.5 c 128,-1,34
 318 477 318 477 350 477 c 256,35,36
 382 477 382 477 401.5 465.5 c 128,-1,37
 421 454 421 454 421 424 c 2,38,-1
 421 375 l 2,39,40
 421 344 421 344 401 333 c 128,-1,41
 381 322 381 322 350 322 c 0,28,29
EndSplineSet
Substitution2: "Single Substitution lookup 162 subtable" zero.sinf
Substitution2: "Single Substitution lookup 161 subtable" zero.sups
Substitution2: "'ss13' Style Set 13 in Latin lookup 157 subtable" zero.salt_nodot
Substitution2: "'zero' Slashed Zero in Latin lookup 144 subtable" zero.salt_slash
Substitution2: "'dnom' Denominators in Latin lookup 130 subtable" zero.sinf
Substitution2: "'numr' Numerators in Latin lookup 129 subtable" zero.sups
Substitution2: "'sinf' Scientific Inferiors in Latin lookup 128 subtable" zero.sinf
Substitution2: "'sups' Superscript in Latin lookup 127 subtable" zero.sups
EndChar

StartChar: one
Encoding: 49 49 21
Width: 700
GlyphClass: 2
Flags: W
LayerCount: 4
Fore
SplineSet
130 0 m 1,0,-1
 130 90 l 1,1,-1
 350 90 l 1,2,-1
 350 680 l 1,3,-1
 321 680 l 1,4,5
 287 620 287 620 233.5 595 c 128,-1,6
 180 570 180 570 110 582 c 1,7,-1
 100 680 l 1,8,9
 177 671 177 671 241 701.5 c 128,-1,10
 305 732 305 732 353 800 c 1,11,-1
 450 800 l 1,12,-1
 450 90 l 1,13,-1
 650 90 l 1,14,-1
 650 0 l 1,15,-1
 130 0 l 1,0,-1
EndSplineSet
Substitution2: "Single Substitution lookup 162 subtable" one.sinf
Substitution2: "Single Substitution lookup 161 subtable" one.sups
Substitution2: "'dnom' Denominators in Latin lookup 130 subtable" one.sinf
Substitution2: "'numr' Numerators in Latin lookup 129 subtable" one.sups
Substitution2: "'sinf' Scientific Inferiors in Latin lookup 128 subtable" one.sinf
Substitution2: "'sups' Superscript in Latin lookup 127 subtable" one.sups
EndChar

StartChar: two
Encoding: 50 50 22
Width: 700
GlyphClass: 2
Flags: W
LayerCount: 4
Fore
SplineSet
80 0 m 1,0,-1
 80 170 l 2,1,2
 80 261 80 261 124 314 c 128,-1,3
 168 367 168 367 269 397 c 2,4,-1
 405 437 l 2,5,6
 462 453 462 453 486 478 c 128,-1,7
 510 503 510 503 510 553 c 2,8,-1
 510 594 l 2,9,10
 510 663 510 663 476.5 691.5 c 128,-1,11
 443 720 443 720 350 720 c 0,12,13
 265 720 265 720 231.5 684.5 c 128,-1,14
 198 649 198 649 190 549 c 1,15,-1
 90 559 l 1,16,17
 98 696 98 696 156.5 753 c 128,-1,18
 215 810 215 810 349 810 c 0,19,20
 480 810 480 810 545 759 c 128,-1,21
 610 708 610 708 610 604 c 2,22,-1
 610 538 l 2,23,24
 610 463 610 463 567 418 c 128,-1,25
 524 373 524 373 425 344 c 2,26,-1
 288 304 l 2,27,28
 239 290 239 290 209.5 263.5 c 128,-1,29
 180 237 180 237 180 172 c 2,30,-1
 180 90 l 1,31,-1
 620 90 l 1,32,-1
 620 0 l 1,33,-1
 80 0 l 1,0,-1
EndSplineSet
Substitution2: "Single Substitution lookup 162 subtable" two.sinf
Substitution2: "Single Substitution lookup 161 subtable" two.sups
Substitution2: "'dnom' Denominators in Latin lookup 130 subtable" two.sinf
Substitution2: "'numr' Numerators in Latin lookup 129 subtable" two.sups
Substitution2: "'sinf' Scientific Inferiors in Latin lookup 128 subtable" two.sinf
Substitution2: "'sups' Superscript in Latin lookup 127 subtable" two.sups
EndChar

StartChar: three
Encoding: 51 51 23
Width: 700
GlyphClass: 2
Flags: W
LayerCount: 4
Fore
SplineSet
340 -10 m 0,0,1
 186 -10 186 -10 131.5 47 c 128,-1,2
 77 104 77 104 70 217 c 1,3,-1
 170 227 l 1,4,5
 180 137 180 137 213 107.5 c 128,-1,6
 246 78 246 78 340 78 c 0,7,8
 440 78 440 78 480 109 c 128,-1,9
 520 140 520 140 520 217 c 2,10,-1
 520 244 l 2,11,12
 520 319 520 319 482 349.5 c 128,-1,13
 444 380 444 380 350 380 c 2,14,-1
 250 380 l 1,15,-1
 250 470 l 1,16,-1
 350 470 l 2,17,18
 433 470 433 470 466.5 493.5 c 128,-1,19
 500 517 500 517 500 576 c 2,20,-1
 500 608 l 2,21,22
 500 671 500 671 464.5 696.5 c 128,-1,23
 429 722 429 722 340 722 c 0,24,25
 262 722 262 722 230 694 c 128,-1,26
 198 666 198 666 190 588 c 1,27,-1
 90 598 l 1,28,29
 97 711 97 711 158.5 760.5 c 128,-1,30
 220 810 220 810 340 810 c 0,31,32
 461 810 461 810 530.5 763 c 128,-1,33
 600 716 600 716 600 608 c 2,34,-1
 600 576 l 2,35,36
 600 516 600 516 558.5 481 c 128,-1,37
 517 446 517 446 443 441 c 1,38,-1
 443 412 l 1,39,40
 532 405 532 405 576 357 c 128,-1,41
 620 309 620 309 620 244 c 2,42,-1
 620 217 l 2,43,44
 620 109 620 109 557.5 49.5 c 128,-1,45
 495 -10 495 -10 340 -10 c 0,0,1
EndSplineSet
Substitution2: "Single Substitution lookup 162 subtable" three.sinf
Substitution2: "Single Substitution lookup 161 subtable" three.sups
Substitution2: "'dnom' Denominators in Latin lookup 130 subtable" three.sinf
Substitution2: "'numr' Numerators in Latin lookup 129 subtable" three.sups
Substitution2: "'sinf' Scientific Inferiors in Latin lookup 128 subtable" three.sinf
Substitution2: "'sups' Superscript in Latin lookup 127 subtable" three.sups
EndChar

StartChar: four
Encoding: 52 52 24
Width: 700
GlyphClass: 2
Flags: W
LayerCount: 4
Fore
SplineSet
180 300 m 1,0,-1
 450 300 l 1,1,-1
 450 696 l 1,2,-1
 180 300 l 1,0,-1
670 210 m 1,3,-1
 550 210 l 1,4,-1
 550 0 l 1,5,-1
 450 0 l 1,6,-1
 450 210 l 1,7,-1
 70 210 l 1,8,-1
 70 300 l 1,9,-1
 405 800 l 1,10,-1
 550 800 l 1,11,-1
 550 300 l 1,12,-1
 670 300 l 1,13,-1
 670 210 l 1,3,-1
EndSplineSet
Substitution2: "Single Substitution lookup 162 subtable" four.sinf
Substitution2: "Single Substitution lookup 161 subtable" four.sups
Substitution2: "'dnom' Denominators in Latin lookup 130 subtable" four.sinf
Substitution2: "'numr' Numerators in Latin lookup 129 subtable" four.sups
Substitution2: "'sinf' Scientific Inferiors in Latin lookup 128 subtable" four.sinf
Substitution2: "'sups' Superscript in Latin lookup 127 subtable" four.sups
EndChar

StartChar: five
Encoding: 53 53 25
Width: 700
GlyphClass: 2
Flags: W
LayerCount: 4
Fore
SplineSet
349 -10 m 0,0,1
 194 -10 194 -10 135.5 38.5 c 128,-1,2
 77 87 77 87 70 221 c 1,3,-1
 170 231 l 1,4,5
 177 136 177 136 210.5 108 c 128,-1,6
 244 80 244 80 350 80 c 0,7,8
 441 80 441 80 480.5 114 c 128,-1,9
 520 148 520 148 520 216 c 2,10,-1
 520 264 l 2,11,12
 520 336 520 336 488 368 c 128,-1,13
 456 400 456 400 385 400 c 2,14,-1
 100 400 l 1,15,-1
 100 800 l 1,16,-1
 580 800 l 1,17,-1
 580 710 l 1,18,-1
 200 710 l 1,19,-1
 200 495 l 1,20,-1
 385 495 l 2,21,22
 504 495 504 495 562 440 c 128,-1,23
 620 385 620 385 620 273 c 2,24,-1
 620 206 l 2,25,26
 620 107 620 107 550 48.5 c 128,-1,27
 480 -10 480 -10 349 -10 c 0,0,1
EndSplineSet
Substitution2: "Single Substitution lookup 162 subtable" five.sinf
Substitution2: "Single Substitution lookup 161 subtable" five.sups
Substitution2: "'dnom' Denominators in Latin lookup 130 subtable" five.sinf
Substitution2: "'numr' Numerators in Latin lookup 129 subtable" five.sups
Substitution2: "'sinf' Scientific Inferiors in Latin lookup 128 subtable" five.sinf
Substitution2: "'sups' Superscript in Latin lookup 127 subtable" five.sups
EndChar

StartChar: six
Encoding: 54 54 26
Width: 700
GlyphClass: 2
Flags: W
LayerCount: 4
Fore
SplineSet
350 -10 m 0,0,1
 209 -10 209 -10 144.5 67.5 c 128,-1,2
 80 145 80 145 80 276 c 2,3,-1
 80 519 l 2,4,5
 80 659 80 659 150.5 734.5 c 128,-1,6
 221 810 221 810 352 810 c 0,7,8
 471 810 471 810 531 766.5 c 128,-1,9
 591 723 591 723 611 626 c 1,10,-1
 502 603 l 1,11,12
 489 664 489 664 460 692 c 128,-1,13
 431 720 431 720 350 720 c 0,14,15
 258 720 258 720 219 673.5 c 128,-1,16
 180 627 180 627 180 519 c 2,17,-1
 180 423 l 1,18,-1
 200 423 l 1,19,20
 227 459 227 459 268.5 479 c 128,-1,21
 310 499 310 499 379 499 c 0,22,23
 499 499 499 499 559.5 433 c 128,-1,24
 620 367 620 367 620 262 c 2,25,-1
 620 240 l 2,26,27
 620 119 620 119 550 54.5 c 128,-1,28
 480 -10 480 -10 350 -10 c 0,0,1
349 80 m 256,29,30
 436 80 436 80 477 118.5 c 128,-1,31
 518 157 518 157 518 238 c 2,32,-1
 518 251 l 2,33,34
 518 332 518 332 477 370.5 c 128,-1,35
 436 409 436 409 349 409 c 256,36,37
 262 409 262 409 221 370.5 c 128,-1,38
 180 332 180 332 180 251 c 2,39,-1
 180 238 l 2,40,41
 180 157 180 157 221 118.5 c 128,-1,42
 262 80 262 80 349 80 c 256,29,30
EndSplineSet
Substitution2: "Single Substitution lookup 162 subtable" six.sinf
Substitution2: "Single Substitution lookup 161 subtable" six.sups
Substitution2: "'dnom' Denominators in Latin lookup 130 subtable" six.sinf
Substitution2: "'numr' Numerators in Latin lookup 129 subtable" six.sups
Substitution2: "'sinf' Scientific Inferiors in Latin lookup 128 subtable" six.sinf
Substitution2: "'sups' Superscript in Latin lookup 127 subtable" six.sups
EndChar

StartChar: seven
Encoding: 55 55 27
Width: 700
GlyphClass: 2
Flags: W
LayerCount: 4
Fore
SplineSet
250 0 m 1,0,1
 304 247 304 247 353.5 387.5 c 128,-1,2
 403 528 403 528 520 700 c 1,3,-1
 80 700 l 1,4,-1
 80 800 l 1,5,-1
 620 800 l 1,6,-1
 620 700 l 1,7,8
 506 513 506 513 451 362.5 c 128,-1,9
 396 212 396 212 360 0 c 1,10,-1
 250 0 l 1,0,1
EndSplineSet
Substitution2: "Single Substitution lookup 162 subtable" seven.sinf
Substitution2: "Single Substitution lookup 161 subtable" seven.sups
Substitution2: "'dnom' Denominators in Latin lookup 130 subtable" seven.sinf
Substitution2: "'numr' Numerators in Latin lookup 129 subtable" seven.sups
Substitution2: "'sinf' Scientific Inferiors in Latin lookup 128 subtable" seven.sinf
Substitution2: "'sups' Superscript in Latin lookup 127 subtable" seven.sups
EndChar

StartChar: eight
Encoding: 56 56 28
Width: 700
GlyphClass: 2
Flags: W
LayerCount: 4
Fore
SplineSet
350 -10 m 256,0,1
 208 -10 208 -10 144 41.5 c 128,-1,2
 80 93 80 93 80 207 c 2,3,-1
 80 229 l 2,4,5
 80 304 80 304 121.5 352 c 128,-1,6
 163 400 163 400 237 407 c 1,7,-1
 237 436 l 1,8,9
 179 441 179 441 139.5 481 c 128,-1,10
 100 521 100 521 100 586 c 2,11,-1
 100 618 l 2,12,13
 100 719 100 719 159.5 764.5 c 128,-1,14
 219 810 219 810 350 810 c 256,15,16
 481 810 481 810 540.5 764.5 c 128,-1,17
 600 719 600 719 600 618 c 2,18,-1
 600 586 l 2,19,20
 600 521 600 521 560.5 481 c 128,-1,21
 521 441 521 441 463 436 c 1,22,-1
 463 407 l 1,23,24
 537 400 537 400 578.5 351.5 c 128,-1,25
 620 303 620 303 620 229 c 2,26,-1
 620 207 l 2,27,28
 620 93 620 93 556 41.5 c 128,-1,29
 492 -10 492 -10 350 -10 c 256,0,1
350 465 m 256,30,31
 434 465 434 465 467 490.5 c 128,-1,32
 500 516 500 516 500 581 c 2,33,-1
 500 608 l 2,34,35
 500 671 500 671 467 696.5 c 128,-1,36
 434 722 434 722 350 722 c 256,37,38
 266 722 266 722 233 696.5 c 128,-1,39
 200 671 200 671 200 608 c 2,40,-1
 200 581 l 2,41,42
 200 516 200 516 233 490.5 c 128,-1,43
 266 465 266 465 350 465 c 256,30,31
350 78 m 256,44,45
 445 78 445 78 482.5 108.5 c 128,-1,46
 520 139 520 139 520 217 c 2,47,-1
 520 234 l 2,48,49
 520 313 520 313 482.5 344 c 128,-1,50
 445 375 445 375 350 375 c 256,51,52
 255 375 255 375 217.5 344 c 128,-1,53
 180 313 180 313 180 234 c 2,54,-1
 180 217 l 2,55,56
 180 139 180 139 217.5 108.5 c 128,-1,57
 255 78 255 78 350 78 c 256,44,45
EndSplineSet
Substitution2: "Single Substitution lookup 162 subtable" eight.sinf
Substitution2: "Single Substitution lookup 161 subtable" eight.sups
Substitution2: "'dnom' Denominators in Latin lookup 130 subtable" eight.sinf
Substitution2: "'numr' Numerators in Latin lookup 129 subtable" eight.sups
Substitution2: "'sinf' Scientific Inferiors in Latin lookup 128 subtable" eight.sinf
Substitution2: "'sups' Superscript in Latin lookup 127 subtable" eight.sups
EndChar

StartChar: nine
Encoding: 57 57 29
Width: 700
GlyphClass: 2
Flags: W
LayerCount: 4
Fore
SplineSet
351 391 m 256,0,1
 436 391 436 391 478 430 c 128,-1,2
 520 469 520 469 520 549 c 2,3,-1
 520 562 l 2,4,5
 520 642 520 642 478 681 c 128,-1,6
 436 720 436 720 351 720 c 256,7,8
 266 720 266 720 224 681 c 128,-1,9
 182 642 182 642 182 562 c 2,10,-1
 182 549 l 2,11,12
 182 469 182 469 224 430 c 128,-1,13
 266 391 266 391 351 391 c 256,0,1
348 -10 m 0,14,15
 229 -10 229 -10 169 33.5 c 128,-1,16
 109 77 109 77 89 174 c 1,17,-1
 198 197 l 1,18,19
 213 130 213 130 245 105 c 128,-1,20
 277 80 277 80 350 80 c 0,21,22
 440 80 440 80 480 127 c 128,-1,23
 520 174 520 174 520 281 c 2,24,-1
 520 377 l 1,25,-1
 500 377 l 1,26,27
 472 338 472 338 427 319.5 c 128,-1,28
 382 301 382 301 317 301 c 0,29,30
 200 301 200 301 140 367 c 128,-1,31
 80 433 80 433 80 538 c 2,32,-1
 80 560 l 2,33,34
 80 681 80 681 150 745.5 c 128,-1,35
 220 810 220 810 350 810 c 0,36,37
 491 810 491 810 555.5 732.5 c 128,-1,38
 620 655 620 655 620 524 c 2,39,-1
 620 281 l 2,40,41
 620 149 620 149 555 69.5 c 128,-1,42
 490 -10 490 -10 348 -10 c 0,14,15
EndSplineSet
Substitution2: "Single Substitution lookup 162 subtable" nine.sinf
Substitution2: "Single Substitution lookup 161 subtable" nine.sups
Substitution2: "'dnom' Denominators in Latin lookup 130 subtable" nine.sinf
Substitution2: "'numr' Numerators in Latin lookup 129 subtable" nine.sups
Substitution2: "'sinf' Scientific Inferiors in Latin lookup 128 subtable" nine.sinf
Substitution2: "'sups' Superscript in Latin lookup 127 subtable" nine.sups
EndChar

StartChar: colon
Encoding: 58 58 30
Width: 700
GlyphClass: 2
Flags: W
LayerCount: 4
Fore
SplineSet
351 390 m 0,0,1
 301 390 301 390 270 410.5 c 128,-1,2
 239 431 239 431 239 474 c 2,3,-1
 239 522 l 2,4,5
 239 566 239 566 270 587 c 128,-1,6
 301 608 301 608 351 608 c 256,7,8
 401 608 401 608 431.5 587 c 128,-1,9
 462 566 462 566 462 522 c 2,10,-1
 462 474 l 2,11,12
 462 431 462 431 431 410.5 c 128,-1,13
 400 390 400 390 351 390 c 0,0,1
351 -10 m 0,14,15
 301 -10 301 -10 270 10.5 c 128,-1,16
 239 31 239 31 239 74 c 2,17,-1
 239 122 l 2,18,19
 239 166 239 166 270 187 c 128,-1,20
 301 208 301 208 351 208 c 256,21,22
 401 208 401 208 431.5 187 c 128,-1,23
 462 166 462 166 462 122 c 2,24,-1
 462 74 l 2,25,26
 462 31 462 31 431 10.5 c 128,-1,27
 400 -10 400 -10 351 -10 c 0,14,15
EndSplineSet
Substitution2: "Single Substitution lookup 97 subtable" CR.10.0
Substitution2: "Single Substitution lookup 96 subtable" lig.10
EndChar

StartChar: semicolon
Encoding: 59 59 31
Width: 700
GlyphClass: 2
Flags: W
LayerCount: 4
Fore
SplineSet
351 390 m 0,0,1
 301 390 301 390 270 410.5 c 128,-1,2
 239 431 239 431 239 474 c 2,3,-1
 239 522 l 2,4,5
 239 566 239 566 270 587 c 128,-1,6
 301 608 301 608 351 608 c 256,7,8
 401 608 401 608 431.5 587 c 128,-1,9
 462 566 462 566 462 522 c 2,10,-1
 462 474 l 2,11,12
 462 431 462 431 431 410.5 c 128,-1,13
 400 390 400 390 351 390 c 0,0,1
200 -200 m 1,14,-1
 290 200 l 1,15,-1
 489 200 l 1,16,-1
 284 -200 l 1,17,-1
 200 -200 l 1,14,-1
EndSplineSet
EndChar

StartChar: less
Encoding: 60 60 32
Width: 700
GlyphClass: 2
Flags: W
LayerCount: 4
Fore
SplineSet
600 20 m 1,0,-1
 100 300 l 1,1,-1
 100 400 l 1,2,-1
 600 680 l 1,3,-1
 600 585 l 1,4,-1
 180 350 l 1,5,-1
 600 115 l 1,6,-1
 600 20 l 1,0,-1
EndSplineSet
Substitution2: "Single Substitution lookup 124 subtable" CR.1.0
Substitution2: "Single Substitution lookup 118 subtable" CR.3.0
Substitution2: "Single Substitution lookup 103 subtable" CR.8.0
Substitution2: "Single Substitution lookup 58 subtable" CR.23.0
Substitution2: "Single Substitution lookup 57 subtable" lig.23
Substitution2: "Single Substitution lookup 52 subtable" CR.25.0
Substitution2: "Single Substitution lookup 44 subtable" CR.27.0
Substitution2: "Single Substitution lookup 36 subtable" CR.29.0
Substitution2: "Single Substitution lookup 4 subtable" CR.37.0
EndChar

StartChar: equal
Encoding: 61 61 33
Width: 700
GlyphClass: 2
Flags: W
LayerCount: 4
Fore
SplineSet
70 440 m 1,0,-1
 70 540 l 1,1,-1
 630 540 l 1,2,-1
 630 440 l 1,3,-1
 70 440 l 1,0,-1
70 160 m 1,4,-1
 70 260 l 1,5,-1
 630 260 l 1,6,-1
 630 160 l 1,7,-1
 70 160 l 1,4,-1
EndSplineSet
Substitution2: "Single Substitution lookup 115 subtable" CR.4.0
Substitution2: "Single Substitution lookup 111 subtable" lig.5
Substitution2: "Single Substitution lookup 108 subtable" lig.6
Substitution2: "Single Substitution lookup 106 subtable" CR.7.0
Substitution2: "Single Substitution lookup 105 subtable" lig.7
Substitution2: "Single Substitution lookup 102 subtable" lig.8
Substitution2: "Single Substitution lookup 99 subtable" lig.9
Substitution2: "Single Substitution lookup 72 subtable" lig.18
Substitution2: "Single Substitution lookup 69 subtable" lig.19
Substitution2: "Single Substitution lookup 66 subtable" lig.20
Substitution2: "Single Substitution lookup 64 subtable" CR.21.0
Substitution2: "Single Substitution lookup 40 subtable" CR.28.0
Substitution2: "Single Substitution lookup 39 subtable" CR.28.1
Substitution2: "Single Substitution lookup 35 subtable" CR.29.1
Substitution2: "Single Substitution lookup 34 subtable" lig.29
Substitution2: "Single Substitution lookup 32 subtable" CR.30.0
Substitution2: "Single Substitution lookup 31 subtable" CR.30.1
Substitution2: "Single Substitution lookup 30 subtable" lig.30
Substitution2: "Single Substitution lookup 27 subtable" CR.31.1
Substitution2: "Single Substitution lookup 26 subtable" lig.31
Substitution2: "Single Substitution lookup 10 subtable" lig.35
EndChar

StartChar: greater
Encoding: 62 62 34
Width: 700
GlyphClass: 2
Flags: W
LayerCount: 4
Fore
SplineSet
100 20 m 1,0,-1
 100 115 l 1,1,-1
 520 350 l 1,2,-1
 100 585 l 1,3,-1
 100 680 l 1,4,-1
 600 400 l 1,5,-1
 600 300 l 1,6,-1
 100 20 l 1,0,-1
EndSplineSet
Substitution2: "Single Substitution lookup 120 subtable" lig.2
Substitution2: "Single Substitution lookup 117 subtable" lig.3
Substitution2: "Single Substitution lookup 114 subtable" lig.4
Substitution2: "Single Substitution lookup 100 subtable" CR.9.0
Substitution2: "Single Substitution lookup 60 subtable" lig.22
Substitution2: "Single Substitution lookup 55 subtable" CR.24.0
Substitution2: "Single Substitution lookup 54 subtable" lig.24
Substitution2: "Single Substitution lookup 46 subtable" lig.26
Substitution2: "Single Substitution lookup 42 subtable" lig.27
Substitution2: "Single Substitution lookup 38 subtable" lig.28
Substitution2: "Single Substitution lookup 6 subtable" lig.36
EndChar

StartChar: question
Encoding: 63 63 35
Width: 700
GlyphClass: 2
Flags: W
LayerCount: 4
Fore
SplineSet
270 313 m 1,0,-1
 250 394 l 1,1,2
 424 422 424 422 482 457 c 128,-1,3
 540 492 540 492 540 552 c 2,4,-1
 540 582 l 2,5,6
 540 641 540 641 504.5 680.5 c 128,-1,7
 469 720 469 720 350 720 c 0,8,9
 223 720 223 720 190 682 c 128,-1,10
 157 644 157 644 150 549 c 1,11,-1
 50 559 l 1,12,13
 57 699 57 699 121 754.5 c 128,-1,14
 185 810 185 810 349 810 c 256,15,16
 513 810 513 810 576.5 747.5 c 128,-1,17
 640 685 640 685 640 594 c 2,18,-1
 640 548 l 2,19,20
 640 438 640 438 550 390.5 c 128,-1,21
 460 343 460 343 270 313 c 1,0,-1
305 -10 m 0,22,23
 255 -10 255 -10 232 10.5 c 128,-1,24
 209 31 209 31 209 74 c 2,25,-1
 209 102 l 2,26,27
 209 146 209 146 232 167 c 128,-1,28
 255 188 255 188 305 188 c 256,29,30
 355 188 355 188 378.5 167 c 128,-1,31
 402 146 402 146 402 102 c 2,32,-1
 402 74 l 2,33,34
 402 31 402 31 378 10.5 c 128,-1,35
 354 -10 354 -10 305 -10 c 0,22,23
EndSplineSet
Substitution2: "Single Substitution lookup 112 subtable" CR.5.0
Substitution2: "Single Substitution lookup 94 subtable" CR.11.0
Substitution2: "Single Substitution lookup 93 subtable" lig.11
EndChar

StartChar: at
Encoding: 64 64 36
Width: 700
GlyphClass: 2
Flags: W
LayerCount: 4
Fore
SplineSet
408 -110 m 0,0,1
 248 -110 248 -110 169 -23 c 128,-1,2
 90 64 90 64 90 209 c 2,3,-1
 90 507 l 2,4,5
 90 644 90 644 157 727 c 128,-1,6
 224 810 224 810 359 810 c 0,7,8
 480 810 480 810 545 730 c 128,-1,9
 610 650 610 650 610 517 c 2,10,-1
 610 273 l 1,11,12
 604 189 604 189 562 149.5 c 128,-1,13
 520 110 520 110 440 110 c 0,14,15
 353 110 353 110 311.5 155.5 c 128,-1,16
 270 201 270 201 270 282 c 2,17,-1
 270 404 l 2,18,19
 270 484 270 484 310.5 532 c 128,-1,20
 351 580 351 580 411 580 c 0,21,22
 445 580 445 580 466 563.5 c 128,-1,23
 487 547 487 547 498 525 c 1,24,-1
 528 525 l 1,25,26
 526 626 526 626 485 681.5 c 128,-1,27
 444 737 444 737 358 737 c 0,28,29
 257 737 257 737 213.5 676.5 c 128,-1,30
 170 616 170 616 170 507 c 2,31,-1
 170 209 l 2,32,33
 170 93 170 93 225 29 c 128,-1,34
 280 -35 280 -35 408 -35 c 0,35,36
 461 -35 461 -35 506.5 -28.5 c 128,-1,37
 552 -22 552 -22 590 -10 c 1,38,-1
 590 -85 l 1,39,40
 553 -95 553 -95 504 -102.5 c 128,-1,41
 455 -110 455 -110 408 -110 c 0,0,1
440 190 m 0,42,43
 480 190 480 190 502 208.5 c 128,-1,44
 524 227 524 227 524 284 c 2,45,-1
 524 396 l 2,46,47
 524 451 524 451 500.5 475.5 c 128,-1,48
 477 500 477 500 440 500 c 0,49,50
 400 500 400 500 378 475.5 c 128,-1,51
 356 451 356 451 356 394 c 2,52,-1
 356 292 l 2,53,54
 356 237 356 237 377.5 213.5 c 128,-1,55
 399 190 399 190 440 190 c 0,42,43
EndSplineSet
EndChar

StartChar: A
Encoding: 65 65 37
Width: 700
GlyphClass: 2
Flags: W
LayerCount: 4
Fore
SplineSet
459 320 m 1,0,-1
 349 687 l 1,1,-1
 238 320 l 1,2,-1
 459 320 l 1,0,-1
555 0 m 1,3,-1
 486 230 l 1,4,-1
 211 230 l 1,5,-1
 142 0 l 1,6,-1
 40 0 l 1,7,-1
 298 800 l 1,8,-1
 403 800 l 1,9,-1
 661 0 l 1,10,-1
 555 0 l 1,3,-1
EndSplineSet
EndChar

StartChar: B
Encoding: 66 66 38
Width: 700
GlyphClass: 2
Flags: W
LayerCount: 4
Fore
SplineSet
100 0 m 1,0,-1
 100 800 l 1,1,-1
 348 800 l 2,2,3
 473 800 473 800 532.5 754 c 128,-1,4
 592 708 592 708 592 612 c 2,5,-1
 592 567 l 2,6,7
 592 516 592 516 563 481.5 c 128,-1,8
 534 447 534 447 483 438 c 1,9,-1
 483 409 l 1,10,11
 548 403 548 403 586 360 c 128,-1,12
 624 317 624 317 624 249 c 2,13,-1
 624 204 l 2,14,15
 624 100 624 100 558 50 c 128,-1,16
 492 0 492 0 355 0 c 2,17,-1
 100 0 l 1,0,-1
200 460 m 1,18,-1
 358 460 l 2,19,20
 429 460 429 460 461.5 486.5 c 128,-1,21
 494 513 494 513 494 571 c 2,22,-1
 494 599 l 2,23,24
 494 657 494 657 461.5 683.5 c 128,-1,25
 429 710 429 710 358 710 c 2,26,-1
 200 710 l 1,27,-1
 200 460 l 1,18,-1
200 90 m 1,28,-1
 378 90 l 2,29,30
 454 90 454 90 489 119.5 c 128,-1,31
 524 149 524 149 524 215 c 2,32,-1
 524 247 l 2,33,34
 524 313 524 313 489 342.5 c 128,-1,35
 454 372 454 372 378 372 c 2,36,-1
 200 372 l 1,37,-1
 200 90 l 1,28,-1
EndSplineSet
EndChar

StartChar: C
Encoding: 67 67 39
Width: 700
GlyphClass: 2
Flags: W
LayerCount: 4
Fore
SplineSet
360 -10 m 0,0,1
 220 -10 220 -10 150 61.5 c 128,-1,2
 80 133 80 133 80 277 c 2,3,-1
 80 519 l 2,4,5
 80 665 80 665 150 737.5 c 128,-1,6
 220 810 220 810 361 810 c 0,7,8
 499 810 499 810 565.5 745.5 c 128,-1,9
 632 681 632 681 640 539 c 1,10,-1
 540 529 l 1,11,12
 530 637 530 637 491.5 678.5 c 128,-1,13
 453 720 453 720 360 720 c 0,14,15
 261 720 261 720 220.5 674.5 c 128,-1,16
 180 629 180 629 180 519 c 2,17,-1
 180 277 l 2,18,19
 180 169 180 169 220.5 124.5 c 128,-1,20
 261 80 261 80 360 80 c 0,21,22
 453 80 453 80 491.5 120.5 c 128,-1,23
 530 161 530 161 540 267 c 1,24,-1
 640 257 l 1,25,26
 632 117 632 117 565.5 53.5 c 128,-1,27
 499 -10 499 -10 360 -10 c 0,0,1
EndSplineSet
EndChar

StartChar: D
Encoding: 68 68 40
Width: 700
GlyphClass: 2
Flags: W
LayerCount: 4
Fore
SplineSet
100 0 m 1,0,-1
 100 800 l 1,1,-1
 321 800 l 2,2,3
 461 800 461 800 540.5 720.5 c 128,-1,4
 620 641 620 641 620 509 c 2,5,-1
 620 287 l 2,6,7
 620 156 620 156 540 78 c 128,-1,8
 460 0 460 0 320 0 c 2,9,-1
 100 0 l 1,0,-1
200 90 m 1,10,-1
 320 90 l 2,11,12
 421 90 421 90 470.5 144.5 c 128,-1,13
 520 199 520 199 520 287 c 2,14,-1
 520 509 l 2,15,16
 520 596 520 596 470.5 653 c 128,-1,17
 421 710 421 710 320 710 c 2,18,-1
 200 710 l 1,19,-1
 200 90 l 1,10,-1
EndSplineSet
EndChar

StartChar: E
Encoding: 69 69 41
Width: 700
GlyphClass: 2
Flags: W
LayerCount: 4
Fore
SplineSet
100 0 m 1,0,-1
 100 800 l 1,1,-1
 620 800 l 1,2,-1
 620 710 l 1,3,-1
 200 710 l 1,4,-1
 200 480 l 1,5,-1
 570 480 l 1,6,-1
 570 390 l 1,7,-1
 200 390 l 1,8,-1
 200 90 l 1,9,-1
 620 90 l 1,10,-1
 620 0 l 1,11,-1
 100 0 l 1,0,-1
EndSplineSet
EndChar

StartChar: F
Encoding: 70 70 42
Width: 700
GlyphClass: 2
Flags: W
LayerCount: 4
Fore
SplineSet
100 0 m 1,0,-1
 100 800 l 1,1,-1
 620 800 l 1,2,-1
 620 710 l 1,3,-1
 200 710 l 1,4,-1
 200 400 l 1,5,-1
 550 400 l 1,6,-1
 550 310 l 1,7,-1
 200 310 l 1,8,-1
 200 0 l 1,9,-1
 100 0 l 1,0,-1
EndSplineSet
EndChar

StartChar: G
Encoding: 71 71 43
Width: 700
GlyphClass: 2
Flags: W
LayerCount: 4
Fore
SplineSet
370 -10 m 0,0,1
 230 -10 230 -10 155 64.5 c 128,-1,2
 80 139 80 139 80 277 c 2,3,-1
 80 519 l 2,4,5
 80 659 80 659 153 734.5 c 128,-1,6
 226 810 226 810 361 810 c 0,7,8
 484 810 484 810 548.5 748 c 128,-1,9
 613 686 613 686 620 559 c 1,10,-1
 520 549 l 1,11,12
 512 642 512 642 475 681 c 128,-1,13
 438 720 438 720 360 720 c 0,14,15
 263 720 263 720 221.5 673.5 c 128,-1,16
 180 627 180 627 180 519 c 2,17,-1
 180 277 l 2,18,19
 180 170 180 170 224 125 c 128,-1,20
 268 80 268 80 370 80 c 0,21,22
 462 80 462 80 501 131.5 c 128,-1,23
 540 183 540 183 540 305 c 1,24,-1
 350 305 l 1,25,-1
 350 395 l 1,26,-1
 640 395 l 1,27,-1
 640 287 l 2,28,29
 640 144 640 144 570 67 c 128,-1,30
 500 -10 500 -10 370 -10 c 0,0,1
EndSplineSet
EndChar

StartChar: H
Encoding: 72 72 44
Width: 700
GlyphClass: 2
Flags: W
LayerCount: 4
Fore
SplineSet
100 0 m 1,0,-1
 100 800 l 1,1,-1
 200 800 l 1,2,-1
 200 480 l 1,3,-1
 500 480 l 1,4,-1
 500 800 l 1,5,-1
 600 800 l 1,6,-1
 600 0 l 1,7,-1
 500 0 l 1,8,-1
 500 390 l 1,9,-1
 200 390 l 1,10,-1
 200 0 l 1,11,-1
 100 0 l 1,0,-1
EndSplineSet
EndChar

StartChar: I
Encoding: 73 73 45
Width: 700
GlyphClass: 2
Flags: W
LayerCount: 4
Fore
SplineSet
100 0 m 1,0,-1
 100 90 l 1,1,-1
 300 90 l 1,2,-1
 300 710 l 1,3,-1
 100 710 l 1,4,-1
 100 800 l 1,5,-1
 600 800 l 1,6,-1
 600 710 l 1,7,-1
 400 710 l 1,8,-1
 400 90 l 1,9,-1
 600 90 l 1,10,-1
 600 0 l 1,11,-1
 100 0 l 1,0,-1
EndSplineSet
EndChar

StartChar: J
Encoding: 74 74 46
Width: 700
GlyphClass: 2
Flags: W
LayerCount: 4
Fore
SplineSet
329 -10 m 0,0,1
 198 -10 198 -10 132.5 55 c 128,-1,2
 67 120 67 120 60 257 c 1,3,-1
 160 268 l 1,4,5
 167 156 167 156 202 118 c 128,-1,6
 237 80 237 80 330 80 c 0,7,8
 416 80 416 80 458 124.5 c 128,-1,9
 500 169 500 169 500 259 c 2,10,-1
 500 710 l 1,11,-1
 300 710 l 1,12,-1
 300 800 l 1,13,-1
 600 800 l 1,14,-1
 600 260 l 2,15,16
 600 129 600 129 530.5 59.5 c 128,-1,17
 461 -10 461 -10 329 -10 c 0,0,1
EndSplineSet
EndChar

StartChar: K
Encoding: 75 75 47
Width: 700
GlyphClass: 2
Flags: W
LayerCount: 4
Fore
SplineSet
200 380 m 1,0,-1
 200 0 l 1,1,-1
 100 0 l 1,2,-1
 100 800 l 1,3,-1
 200 800 l 1,4,-1
 200 470 l 1,5,-1
 234 470 l 1,6,-1
 543 800 l 1,7,-1
 659 800 l 1,8,-1
 316 432 l 1,9,-1
 656 0 l 1,10,-1
 536 0 l 1,11,-1
 237 380 l 1,12,-1
 200 380 l 1,0,-1
EndSplineSet
EndChar

StartChar: L
Encoding: 76 76 48
Width: 700
GlyphClass: 2
Flags: W
LayerCount: 4
Fore
SplineSet
150 0 m 1,0,-1
 150 800 l 1,1,-1
 250 800 l 1,2,-1
 250 90 l 1,3,-1
 600 90 l 1,4,-1
 600 0 l 1,5,-1
 150 0 l 1,0,-1
EndSplineSet
EndChar

StartChar: M
Encoding: 77 77 49
Width: 700
GlyphClass: 2
Flags: W
LayerCount: 4
Fore
SplineSet
302 200 m 1,0,-1
 160 639 l 1,1,-1
 160 0 l 1,2,-1
 70 0 l 1,3,-1
 70 800 l 1,4,-1
 205 800 l 1,5,-1
 353 319 l 1,6,-1
 500 800 l 1,7,-1
 630 800 l 1,8,-1
 630 0 l 1,9,-1
 540 0 l 1,10,-1
 540 640 l 1,11,-1
 398 200 l 1,12,-1
 302 200 l 1,0,-1
EndSplineSet
EndChar

StartChar: N
Encoding: 78 78 50
Width: 700
GlyphClass: 2
Flags: W
LayerCount: 4
Fore
SplineSet
457 0 m 1,0,-1
 190 674 l 1,1,-1
 190 0 l 1,2,-1
 100 0 l 1,3,-1
 100 800 l 1,4,-1
 237 800 l 1,5,-1
 510 111 l 1,6,-1
 510 800 l 1,7,-1
 600 800 l 1,8,-1
 600 0 l 1,9,-1
 457 0 l 1,0,-1
EndSplineSet
EndChar

StartChar: O
Encoding: 79 79 51
Width: 700
GlyphClass: 2
Flags: W
LayerCount: 4
Fore
SplineSet
350 -10 m 256,0,1
 218 -10 218 -10 149 63.5 c 128,-1,2
 80 137 80 137 80 277 c 2,3,-1
 80 519 l 2,4,5
 80 661 80 661 149.5 735.5 c 128,-1,6
 219 810 219 810 351 810 c 0,7,8
 482 810 482 810 551 735.5 c 128,-1,9
 620 661 620 661 620 519 c 2,10,-1
 620 277 l 2,11,12
 620 137 620 137 551 63.5 c 128,-1,13
 482 -10 482 -10 350 -10 c 256,0,1
350 80 m 256,14,15
 442 80 442 80 481 125 c 128,-1,16
 520 170 520 170 520 277 c 2,17,-1
 520 519 l 2,18,19
 520 628 520 628 481 674 c 128,-1,20
 442 720 442 720 350 720 c 256,21,22
 258 720 258 720 219 674 c 128,-1,23
 180 628 180 628 180 519 c 2,24,-1
 180 277 l 2,25,26
 180 170 180 170 219 125 c 128,-1,27
 258 80 258 80 350 80 c 256,14,15
EndSplineSet
EndChar

StartChar: P
Encoding: 80 80 52
Width: 700
GlyphClass: 2
Flags: W
LayerCount: 4
Fore
SplineSet
100 0 m 1,0,-1
 100 800 l 1,1,-1
 381 800 l 2,2,3
 506 800 506 800 568 747.5 c 128,-1,4
 630 695 630 695 630 589 c 2,5,-1
 630 491 l 2,6,7
 630 385 630 385 567.5 332.5 c 128,-1,8
 505 280 505 280 380 280 c 2,9,-1
 200 280 l 1,10,-1
 200 0 l 1,11,-1
 100 0 l 1,0,-1
200 368 m 1,12,-1
 380 368 l 2,13,14
 461 368 461 368 495.5 396.5 c 128,-1,15
 530 425 530 425 530 493 c 2,16,-1
 530 585 l 2,17,18
 530 653 530 653 495.5 681.5 c 128,-1,19
 461 710 461 710 380 710 c 2,20,-1
 200 710 l 1,21,-1
 200 368 l 1,12,-1
EndSplineSet
EndChar

StartChar: Q
Encoding: 81 81 53
Width: 700
GlyphClass: 2
Flags: W
LayerCount: 4
Fore
SplineSet
650 -191 m 1,0,1
 502 -223 502 -223 422.5 -176.5 c 128,-1,2
 343 -130 343 -130 340 -10 c 1,3,4
 212 -7 212 -7 146 66 c 128,-1,5
 80 139 80 139 80 277 c 2,6,-1
 80 519 l 2,7,8
 80 662 80 662 148.5 736 c 128,-1,9
 217 810 217 810 351 810 c 0,10,11
 484 810 484 810 552 736 c 128,-1,12
 620 662 620 662 620 519 c 2,13,-1
 620 277 l 2,14,15
 620 162 620 162 574.5 92 c 128,-1,16
 529 22 529 22 440 0 c 1,17,18
 442 -71 442 -71 489 -95.5 c 128,-1,19
 536 -120 536 -120 635 -101 c 1,20,-1
 650 -191 l 1,0,1
350 90 m 256,21,22
 442 90 442 90 481 133 c 128,-1,23
 520 176 520 176 520 277 c 2,24,-1
 520 519 l 2,25,26
 520 622 520 622 481 666 c 128,-1,27
 442 710 442 710 350 710 c 256,28,29
 258 710 258 710 219 666 c 128,-1,30
 180 622 180 622 180 519 c 2,31,-1
 180 277 l 2,32,33
 180 176 180 176 219 133 c 128,-1,34
 258 90 258 90 350 90 c 256,21,22
EndSplineSet
EndChar

StartChar: R
Encoding: 82 82 54
Width: 700
GlyphClass: 2
Flags: W
LayerCount: 4
Fore
SplineSet
200 398 m 1,0,-1
 400 398 l 2,1,2
 481 398 481 398 515.5 427.5 c 128,-1,3
 550 457 550 457 550 527 c 2,4,-1
 550 589 l 2,5,6
 550 655 550 655 515.5 682.5 c 128,-1,7
 481 710 481 710 400 710 c 2,8,-1
 200 710 l 1,9,-1
 200 398 l 1,0,-1
200 0 m 1,10,-1
 100 0 l 1,11,-1
 100 800 l 1,12,-1
 401 800 l 2,13,14
 526 800 526 800 588 747.5 c 128,-1,15
 650 695 650 695 650 589 c 2,16,-1
 650 527 l 2,17,18
 650 431 650 431 601.5 377 c 128,-1,19
 553 323 553 323 454 313 c 1,20,-1
 659 0 l 1,21,-1
 545 0 l 1,22,-1
 342 310 l 1,23,-1
 200 310 l 1,24,-1
 200 0 l 1,10,-1
EndSplineSet
EndChar

StartChar: S
Encoding: 83 83 55
Width: 700
GlyphClass: 2
Flags: W
LayerCount: 4
Fore
SplineSet
363 -6 m 0,0,1
 273 -6 273 -6 195 23 c 128,-1,2
 117 52 117 52 55 129 c 1,3,-1
 127 197 l 1,4,5
 169 140 169 140 227.5 112 c 128,-1,6
 286 84 286 84 366 84 c 0,7,8
 440 84 440 84 485.5 118.5 c 128,-1,9
 531 153 531 153 531 212 c 0,10,11
 531 269 531 269 492 299.5 c 128,-1,12
 453 330 453 330 338 364 c 0,13,14
 192 406 192 406 139 455 c 128,-1,15
 86 504 86 504 86 594 c 0,16,17
 86 698 86 698 155.5 751 c 128,-1,18
 225 804 225 804 324 804 c 0,19,20
 408 804 408 804 483.5 774.5 c 128,-1,21
 559 745 559 745 617 670 c 1,22,-1
 548 601 l 1,23,24
 508 658 508 658 448 686 c 128,-1,25
 388 714 388 714 326 714 c 0,26,27
 263 714 263 714 225 688.5 c 128,-1,28
 187 663 187 663 187 603 c 0,29,30
 187 550 187 550 228.5 519.5 c 128,-1,31
 270 489 270 489 392 454 c 0,32,33
 530 414 530 414 580.5 366.5 c 128,-1,34
 631 319 631 319 631 229 c 0,35,36
 631 114 631 114 549 54 c 128,-1,37
 467 -6 467 -6 363 -6 c 0,0,1
EndSplineSet
EndChar

StartChar: T
Encoding: 84 84 56
Width: 700
GlyphClass: 2
Flags: W
LayerCount: 4
Fore
SplineSet
300 0 m 1,0,-1
 300 710 l 1,1,-1
 50 710 l 1,2,-1
 50 800 l 1,3,-1
 650 800 l 1,4,-1
 650 710 l 1,5,-1
 400 710 l 1,6,-1
 400 0 l 1,7,-1
 300 0 l 1,0,-1
EndSplineSet
EndChar

StartChar: U
Encoding: 85 85 57
Width: 700
GlyphClass: 2
Flags: W
LayerCount: 4
Fore
SplineSet
350 -10 m 256,0,1
 225 -10 225 -10 162.5 61.5 c 128,-1,2
 100 133 100 133 100 277 c 2,3,-1
 100 800 l 1,4,-1
 200 800 l 1,5,-1
 200 277 l 2,6,7
 200 170 200 170 234.5 125 c 128,-1,8
 269 80 269 80 350 80 c 256,9,10
 431 80 431 80 465.5 125 c 128,-1,11
 500 170 500 170 500 277 c 2,12,-1
 500 800 l 1,13,-1
 600 800 l 1,14,-1
 600 277 l 2,15,16
 600 133 600 133 537.5 61.5 c 128,-1,17
 475 -10 475 -10 350 -10 c 256,0,1
EndSplineSet
EndChar

StartChar: V
Encoding: 86 86 58
Width: 700
GlyphClass: 2
Flags: W
LayerCount: 4
Fore
SplineSet
403 0 m 1,0,-1
 298 0 l 1,1,-1
 40 800 l 1,2,-1
 148 800 l 1,3,-1
 352 127 l 1,4,-1
 556 800 l 1,5,-1
 661 800 l 1,6,-1
 403 0 l 1,0,-1
EndSplineSet
EndChar

StartChar: W
Encoding: 87 87 59
Width: 700
GlyphClass: 2
Flags: W
LayerCount: 4
Fore
SplineSet
468 0 m 1,0,-1
 350 477 l 1,1,-1
 232 0 l 1,2,-1
 132 0 l 1,3,-1
 24 800 l 1,4,-1
 123 800 l 1,5,-1
 195 147 l 1,6,-1
 300 600 l 1,7,-1
 405 600 l 1,8,-1
 510 147 l 1,9,-1
 582 800 l 1,10,-1
 676 800 l 1,11,-1
 568 0 l 1,12,-1
 468 0 l 1,0,-1
EndSplineSet
EndChar

StartChar: X
Encoding: 88 88 60
Width: 700
GlyphClass: 2
Flags: W
LayerCount: 4
Fore
SplineSet
564 0 m 1,0,-1
 351 328 l 1,1,-1
 137 0 l 1,2,-1
 20 0 l 1,3,-1
 299 408 l 1,4,-1
 45 800 l 1,5,-1
 160 800 l 1,6,-1
 362 488 l 1,7,-1
 566 800 l 1,8,-1
 682 800 l 1,9,-1
 414 409 l 1,10,-1
 679 0 l 1,11,-1
 564 0 l 1,0,-1
EndSplineSet
EndChar

StartChar: Y
Encoding: 89 89 61
Width: 700
GlyphClass: 2
Flags: W
LayerCount: 4
Fore
SplineSet
400 0 m 1,0,-1
 300 0 l 1,1,-1
 300 300 l 1,2,-1
 14 800 l 1,3,-1
 126 800 l 1,4,-1
 356 390 l 1,5,-1
 575 800 l 1,6,-1
 685 800 l 1,7,-1
 400 300 l 1,8,-1
 400 0 l 1,0,-1
EndSplineSet
EndChar

StartChar: Z
Encoding: 90 90 62
Width: 700
GlyphClass: 2
Flags: W
LayerCount: 4
Fore
SplineSet
620 0 m 1,0,-1
 80 0 l 1,1,-1
 80 90 l 1,2,-1
 500 710 l 1,3,-1
 80 710 l 1,4,-1
 80 800 l 1,5,-1
 620 800 l 1,6,-1
 620 710 l 1,7,-1
 199 90 l 1,8,-1
 620 90 l 1,9,-1
 620 0 l 1,0,-1
EndSplineSet
EndChar

StartChar: bracketleft
Encoding: 91 91 63
Width: 700
GlyphClass: 2
Flags: W
LayerCount: 4
Fore
SplineSet
200 -200 m 1,0,-1
 200 800 l 1,1,-1
 550 800 l 1,2,-1
 550 710 l 1,3,-1
 300 710 l 1,4,-1
 300 -122 l 1,5,-1
 550 -122 l 1,6,-1
 550 -200 l 1,7,-1
 200 -200 l 1,0,-1
EndSplineSet
EndChar

StartChar: backslash
Encoding: 92 92 64
Width: 700
GlyphClass: 2
Flags: W
LayerCount: 4
Fore
SplineSet
500 -200 m 1,0,-1
 100 800 l 1,1,-1
 200 800 l 1,2,-1
 600 -200 l 1,3,-1
 500 -200 l 1,0,-1
EndSplineSet
EndChar

StartChar: bracketright
Encoding: 93 93 65
Width: 700
GlyphClass: 2
Flags: W
LayerCount: 4
Fore
SplineSet
150 -200 m 1,0,-1
 150 -122 l 1,1,-1
 400 -122 l 1,2,-1
 400 710 l 1,3,-1
 150 710 l 1,4,-1
 150 800 l 1,5,-1
 500 800 l 1,6,-1
 500 -200 l 1,7,-1
 150 -200 l 1,0,-1
EndSplineSet
EndChar

StartChar: asciicircum
Encoding: 94 94 66
Width: 700
GlyphClass: 2
Flags: W
LayerCount: 4
Fore
SplineSet
565 200 m 1,0,-1
 351 694 l 1,1,-1
 145 200 l 1,2,-1
 50 200 l 1,3,-1
 300 800 l 1,4,-1
 400 800 l 1,5,-1
 660 200 l 1,6,-1
 565 200 l 1,0,-1
EndSplineSet
Substitution2: "Single Substitution lookup 70 subtable" CR.19.0
EndChar

StartChar: underscore
Encoding: 95 95 67
Width: 700
GlyphClass: 2
Flags: W
LayerCount: 4
Fore
SplineSet
70 -200 m 1,0,-1
 70 -100 l 1,1,-1
 630 -100 l 1,2,-1
 630 -200 l 1,3,-1
 70 -200 l 1,0,-1
EndSplineSet
EndChar

StartChar: grave
Encoding: 96 96 68
Width: 700
GlyphClass: 2
Flags: W
LayerCount: 4
Fore
SplineSet
395 400 m 1,0,-1
 170 800 l 1,1,-1
 369 800 l 1,2,-1
 479 400 l 1,3,-1
 395 400 l 1,0,-1
EndSplineSet
EndChar

StartChar: a.salt_ss
Encoding: 57344 57344 69
AltUni2: 000061.ffffffff.0
Width: 700
GlyphClass: 2
Flags: W
LayerCount: 4
Fore
SplineSet
310 85 m 0,0,1
 356 85 356 85 403 116 c 128,-1,2
 450 147 450 147 500 210 c 1,3,-1
 500 507 l 1,4,5
 472 514 472 514 442.5 518 c 128,-1,6
 413 522 413 522 380 522 c 0,7,8
 302 522 302 522 252 471 c 128,-1,9
 202 420 202 420 202 319 c 2,10,-1
 202 238 l 2,11,12
 202 161 202 161 229 123 c 128,-1,13
 256 85 256 85 310 85 c 0,0,1
285 -10 m 0,14,15
 201 -10 201 -10 150.5 53.5 c 128,-1,16
 100 117 100 117 100 238 c 2,17,-1
 100 321 l 2,18,19
 100 446 100 446 181 528 c 128,-1,20
 262 610 262 610 385 610 c 0,21,22
 442 610 442 610 496.5 599.5 c 128,-1,23
 551 589 551 589 600 571 c 1,24,-1
 600 0 l 1,25,-1
 500 0 l 1,26,-1
 500 120 l 1,27,-1
 470 120 l 1,28,29
 439 58 439 58 393.5 24 c 128,-1,30
 348 -10 348 -10 285 -10 c 0,14,15
EndSplineSet
EndChar

StartChar: b
Encoding: 98 98 70
Width: 700
GlyphClass: 2
Flags: W
LayerCount: 4
Fore
SplineSet
342 -10 m 0,0,1
 282 -10 282 -10 218 8 c 128,-1,2
 154 26 154 26 100 60 c 1,3,-1
 100 800 l 1,4,-1
 200 800 l 1,5,-1
 200 500 l 1,6,-1
 230 500 l 1,7,8
 256 552 256 552 302 581 c 128,-1,9
 348 610 348 610 405 610 c 0,10,11
 498 610 498 610 549 550 c 128,-1,12
 600 490 600 490 600 382 c 2,13,-1
 600 219 l 2,14,15
 600 110 600 110 532 50 c 128,-1,16
 464 -10 464 -10 342 -10 c 0,0,1
341 78 m 0,17,18
 422 78 422 78 461 113.5 c 128,-1,19
 500 149 500 149 500 221 c 2,20,-1
 500 381 l 2,21,22
 500 449 500 449 470 482 c 128,-1,23
 440 515 440 515 380 515 c 0,24,25
 331 515 331 515 287 489 c 128,-1,26
 243 463 243 463 200 410 c 1,27,-1
 200 116 l 1,28,29
 232 97 232 97 266.5 87.5 c 128,-1,30
 301 78 301 78 341 78 c 0,17,18
EndSplineSet
EndChar

StartChar: c
Encoding: 99 99 71
Width: 700
GlyphClass: 2
Flags: W
LayerCount: 4
Fore
SplineSet
364 -10 m 0,0,1
 233 -10 233 -10 166.5 47.5 c 128,-1,2
 100 105 100 105 100 217 c 2,3,-1
 100 379 l 2,4,5
 100 493 100 493 166.5 551.5 c 128,-1,6
 233 610 233 610 363 610 c 0,7,8
 479 610 479 610 541.5 557.5 c 128,-1,9
 604 505 604 505 611 404 c 1,10,-1
 513 398 l 1,11,12
 509 460 509 460 472 490 c 128,-1,13
 435 520 435 520 362 520 c 0,14,15
 280 520 280 520 240 485.5 c 128,-1,16
 200 451 200 451 200 379 c 2,17,-1
 200 217 l 2,18,19
 200 148 200 148 240.5 114 c 128,-1,20
 281 80 281 80 364 80 c 0,21,22
 436 80 436 80 473 105.5 c 128,-1,23
 510 131 510 131 513 182 c 1,24,-1
 611 176 l 1,25,26
 604 84 604 84 542 37 c 128,-1,27
 480 -10 480 -10 364 -10 c 0,0,1
EndSplineSet
EndChar

StartChar: d
Encoding: 100 100 72
Width: 700
GlyphClass: 2
Flags: W
LayerCount: 4
Fore
SplineSet
320 85 m 0,0,1
 369 85 369 85 413 111 c 128,-1,2
 457 137 457 137 500 190 c 1,3,-1
 500 484 l 1,4,5
 469 503 469 503 434 512.5 c 128,-1,6
 399 522 399 522 359 522 c 0,7,8
 278 522 278 522 239 486.5 c 128,-1,9
 200 451 200 451 200 379 c 2,10,-1
 200 218 l 2,11,12
 200 151 200 151 230 118 c 128,-1,13
 260 85 260 85 320 85 c 0,0,1
470 100 m 1,14,15
 444 48 444 48 398 19 c 128,-1,16
 352 -10 352 -10 295 -10 c 0,17,18
 202 -10 202 -10 151 50 c 128,-1,19
 100 110 100 110 100 218 c 2,20,-1
 100 381 l 2,21,22
 100 490 100 490 168 550 c 128,-1,23
 236 610 236 610 358 610 c 0,24,25
 393 610 393 610 430 602.5 c 128,-1,26
 467 595 467 595 500 582 c 1,27,-1
 500 800 l 1,28,-1
 600 800 l 1,29,-1
 600 0 l 1,30,-1
 500 0 l 1,31,-1
 500 100 l 1,32,-1
 470 100 l 1,14,15
EndSplineSet
EndChar

StartChar: e
Encoding: 101 101 73
Width: 700
GlyphClass: 2
Flags: W
LayerCount: 4
Fore
SplineSet
602 132 m 1,0,1
 575 57 575 57 520 23.5 c 128,-1,2
 465 -10 465 -10 351 -10 c 0,3,4
 232 -10 232 -10 166 47.5 c 128,-1,5
 100 105 100 105 100 218 c 2,6,-1
 100 379 l 2,7,8
 100 495 100 495 169.5 552.5 c 128,-1,9
 239 610 239 610 351 610 c 0,10,11
 464 610 464 610 532 551.5 c 128,-1,12
 600 493 600 493 600 372 c 2,13,-1
 600 280 l 1,14,-1
 200 280 l 1,15,-1
 200 217 l 2,16,17
 200 142 200 142 237.5 108.5 c 128,-1,18
 275 75 275 75 350 75 c 0,19,20
 422 75 422 75 455 95 c 128,-1,21
 488 115 488 115 505 160 c 1,22,-1
 602 132 l 1,0,1
200 379 m 2,23,-1
 200 355 l 1,24,-1
 500 355 l 1,25,-1
 500 370 l 2,26,27
 500 451 500 451 462.5 488 c 128,-1,28
 425 525 425 525 350 525 c 256,29,30
 275 525 275 525 237.5 489.5 c 128,-1,31
 200 454 200 454 200 379 c 2,23,-1
EndSplineSet
EndChar

StartChar: f
Encoding: 102 102 74
Width: 700
GlyphClass: 2
Flags: W
LayerCount: 4
Fore
SplineSet
250 0 m 1,0,-1
 250 510 l 1,1,-1
 80 510 l 1,2,-1
 80 600 l 1,3,-1
 250 600 l 1,4,-1
 250 640 l 2,5,6
 250 721 250 721 313.5 765.5 c 128,-1,7
 377 810 377 810 471 810 c 0,8,9
 517 810 517 810 553.5 802 c 128,-1,10
 590 794 590 794 619 784 c 1,11,-1
 599 700 l 1,12,13
 577 707 577 707 545.5 713.5 c 128,-1,14
 514 720 514 720 471 720 c 0,15,16
 416 720 416 720 383 701.5 c 128,-1,17
 350 683 350 683 350 641 c 2,18,-1
 350 600 l 1,19,-1
 600 600 l 1,20,-1
 600 510 l 1,21,-1
 350 510 l 1,22,-1
 350 0 l 1,23,-1
 250 0 l 1,0,-1
EndSplineSet
EndChar

StartChar: g.salt_ss
Encoding: 57355 57355 75
AltUni2: 000067.ffffffff.0
Width: 700
GlyphClass: 2
Flags: W
LayerCount: 4
Fore
SplineSet
320 135 m 0,0,1
 368 135 368 135 412.5 161 c 128,-1,2
 457 187 457 187 500 240 c 1,3,-1
 500 484 l 1,4,5
 467 503 467 503 431.5 512.5 c 128,-1,6
 396 522 396 522 359 522 c 0,7,8
 279 522 279 522 239.5 486.5 c 128,-1,9
 200 451 200 451 200 379 c 2,10,-1
 200 269 l 2,11,12
 200 202 200 202 230 168.5 c 128,-1,13
 260 135 260 135 320 135 c 0,0,1
600 548 m 1,14,-1
 600 34 l 2,15,16
 600 -80 600 -80 524.5 -144 c 128,-1,17
 449 -208 449 -208 313 -208 c 0,18,19
 270 -208 270 -208 222 -199.5 c 128,-1,20
 174 -191 174 -191 131 -176 c 1,21,-1
 150 -88 l 1,22,23
 190 -101 190 -101 233.5 -109 c 128,-1,24
 277 -117 277 -117 315 -117 c 0,25,26
 402 -117 402 -117 451 -77.5 c 128,-1,27
 500 -38 500 -38 500 32 c 2,28,-1
 500 150 l 1,29,-1
 470 150 l 1,30,31
 444 98 444 98 398 69 c 128,-1,32
 352 40 352 40 295 40 c 0,33,34
 202 40 202 40 151 100 c 128,-1,35
 100 160 100 160 100 268 c 2,36,-1
 100 381 l 2,37,38
 100 489 100 489 168 549.5 c 128,-1,39
 236 610 236 610 358 610 c 0,40,41
 422 610 422 610 485.5 593.5 c 128,-1,42
 549 577 549 577 600 548 c 1,14,-1
EndSplineSet
EndChar

StartChar: h
Encoding: 104 104 76
Width: 700
GlyphClass: 2
Flags: W
LayerCount: 4
Fore
SplineSet
100 0 m 1,0,-1
 100 800 l 1,1,-1
 200 800 l 1,2,-1
 200 500 l 1,3,-1
 230 500 l 1,4,5
 252 551 252 551 299 580.5 c 128,-1,6
 346 610 346 610 406 610 c 0,7,8
 496 610 496 610 548 555 c 128,-1,9
 600 500 600 500 600 406 c 2,10,-1
 600 0 l 1,11,-1
 500 0 l 1,12,-1
 500 385 l 2,13,14
 500 448 500 448 469.5 481.5 c 128,-1,15
 439 515 439 515 382 515 c 0,16,17
 337 515 337 515 290.5 488 c 128,-1,18
 244 461 244 461 200 410 c 1,19,-1
 200 0 l 1,20,-1
 100 0 l 1,0,-1
EndSplineSet
EndChar

StartChar: k
Encoding: 107 107 79
Width: 700
GlyphClass: 2
Flags: W
LayerCount: 4
Fore
SplineSet
250 273 m 1,0,-1
 250 0 l 1,1,-1
 150 0 l 1,2,-1
 150 800 l 1,3,-1
 250 800 l 1,4,-1
 250 357 l 1,5,-1
 301 357 l 1,6,-1
 493 600 l 1,7,-1
 615 600 l 1,8,-1
 380 321 l 1,9,-1
 612 0 l 1,10,-1
 498 0 l 1,11,-1
 301 273 l 1,12,-1
 250 273 l 1,0,-1
EndSplineSet
EndChar

StartChar: l.salt_serifs
Encoding: 57392 57392 80
AltUni2: 00006c.ffffffff.0
Width: 700
GlyphClass: 2
Flags: W
LayerCount: 4
Fore
SplineSet
400 90 m 1,0,-1
 620 90 l 1,1,-1
 620 0 l 1,2,-1
 300 0 l 1,3,-1
 300 710 l 1,4,-1
 80 710 l 1,5,-1
 80 800 l 1,6,-1
 400 800 l 1,7,-1
 400 90 l 1,0,-1
EndSplineSet
EndChar

StartChar: m
Encoding: 109 109 81
Width: 700
GlyphClass: 2
Flags: W
LayerCount: 4
Fore
SplineSet
152 430 m 1,0,-1
 152 0 l 1,1,-1
 60 0 l 1,2,-1
 60 600 l 1,3,-1
 152 600 l 1,4,-1
 152 520 l 1,5,-1
 172 520 l 1,6,7
 191 562 191 562 222 586 c 128,-1,8
 253 610 253 610 287 610 c 0,9,10
 326 610 326 610 352.5 586.5 c 128,-1,11
 379 563 379 563 389 520 c 1,12,-1
 411 520 l 1,13,14
 430 562 430 562 462.5 586 c 128,-1,15
 495 610 495 610 532 610 c 0,16,17
 582 610 582 610 611 569.5 c 128,-1,18
 640 529 640 529 640 460 c 2,19,-1
 640 0 l 1,20,-1
 548 0 l 1,21,-1
 548 444 l 2,22,23
 548 489 548 489 536 512 c 128,-1,24
 524 535 524 535 501 535 c 0,25,26
 482 535 482 535 453.5 507 c 128,-1,27
 425 479 425 479 396 430 c 1,28,-1
 396 0 l 1,29,-1
 304 0 l 1,30,-1
 304 444 l 2,31,32
 304 489 304 489 291.5 512 c 128,-1,33
 279 535 279 535 256 535 c 0,34,35
 236 535 236 535 209.5 508 c 128,-1,36
 183 481 183 481 152 430 c 1,0,-1
EndSplineSet
EndChar

StartChar: n
Encoding: 110 110 82
Width: 700
GlyphClass: 2
Flags: W
LayerCount: 4
Fore
SplineSet
100 0 m 1,0,-1
 100 600 l 1,1,-1
 200 600 l 1,2,-1
 200 500 l 1,3,-1
 230 500 l 1,4,5
 252 551 252 551 299 580.5 c 128,-1,6
 346 610 346 610 406 610 c 0,7,8
 496 610 496 610 548 555 c 128,-1,9
 600 500 600 500 600 405 c 2,10,-1
 600 0 l 1,11,-1
 500 0 l 1,12,-1
 500 385 l 2,13,14
 500 448 500 448 469.5 481.5 c 128,-1,15
 439 515 439 515 382 515 c 0,16,17
 337 515 337 515 290.5 488 c 128,-1,18
 244 461 244 461 200 410 c 1,19,-1
 200 0 l 1,20,-1
 100 0 l 1,0,-1
EndSplineSet
EndChar

StartChar: o
Encoding: 111 111 83
Width: 700
GlyphClass: 2
Flags: W
LayerCount: 4
Fore
SplineSet
350 -10 m 256,0,1
 229 -10 229 -10 164.5 48.5 c 128,-1,2
 100 107 100 107 100 217 c 2,3,-1
 100 379 l 2,4,5
 100 490 100 490 165 550 c 128,-1,6
 230 610 230 610 351 610 c 0,7,8
 471 610 471 610 535.5 550 c 128,-1,9
 600 490 600 490 600 379 c 2,10,-1
 600 217 l 2,11,12
 600 107 600 107 535.5 48.5 c 128,-1,13
 471 -10 471 -10 350 -10 c 256,0,1
350 80 m 256,14,15
 426 80 426 80 463 114 c 128,-1,16
 500 148 500 148 500 217 c 2,17,-1
 500 379 l 2,18,19
 500 451 500 451 463 485.5 c 128,-1,20
 426 520 426 520 350 520 c 256,21,22
 274 520 274 520 237 485.5 c 128,-1,23
 200 451 200 451 200 379 c 2,24,-1
 200 217 l 2,25,26
 200 148 200 148 237 114 c 128,-1,27
 274 80 274 80 350 80 c 256,14,15
EndSplineSet
EndChar

StartChar: p
Encoding: 112 112 84
Width: 700
GlyphClass: 2
Flags: W
LayerCount: 4
Fore
SplineSet
341 78 m 0,0,1
 425 78 425 78 462.5 112 c 128,-1,2
 500 146 500 146 500 221 c 2,3,-1
 500 383 l 2,4,5
 500 452 500 452 471.5 483.5 c 128,-1,6
 443 515 443 515 380 515 c 0,7,8
 330 515 330 515 287 490 c 128,-1,9
 244 465 244 465 200 410 c 1,10,-1
 200 116 l 1,11,12
 231 97 231 97 264.5 87.5 c 128,-1,13
 298 78 298 78 341 78 c 0,0,1
342 -10 m 0,14,15
 308 -10 308 -10 270.5 -2.5 c 128,-1,16
 233 5 233 5 200 18 c 1,17,-1
 200 -200 l 1,18,-1
 100 -200 l 1,19,-1
 100 600 l 1,20,-1
 200 600 l 1,21,-1
 200 500 l 1,22,-1
 230 500 l 1,23,24
 255 551 255 551 302.5 580.5 c 128,-1,25
 350 610 350 610 405 610 c 0,26,27
 495 610 495 610 547.5 548.5 c 128,-1,28
 600 487 600 487 600 382 c 2,29,-1
 600 219 l 2,30,31
 600 113 600 113 530.5 51.5 c 128,-1,32
 461 -10 461 -10 342 -10 c 0,14,15
EndSplineSet
EndChar

StartChar: q
Encoding: 113 113 85
Width: 700
GlyphClass: 2
Flags: W
LayerCount: 4
Fore
SplineSet
500 -200 m 1,0,-1
 500 100 l 1,1,-1
 470 100 l 1,2,3
 443 46 443 46 398 18 c 128,-1,4
 353 -10 353 -10 295 -10 c 0,5,6
 200 -10 200 -10 150 49 c 128,-1,7
 100 108 100 108 100 218 c 2,8,-1
 100 381 l 2,9,10
 100 492 100 492 174 551 c 128,-1,11
 248 610 248 610 358 610 c 0,12,13
 424 610 424 610 486 594 c 128,-1,14
 548 578 548 578 600 548 c 1,15,-1
 600 -200 l 1,16,-1
 500 -200 l 1,0,-1
320 85 m 0,17,18
 369 85 369 85 413 110.5 c 128,-1,19
 457 136 457 136 500 190 c 1,20,-1
 500 484 l 1,21,22
 466 503 466 503 431.5 512.5 c 128,-1,23
 397 522 397 522 359 522 c 0,24,25
 293 522 293 522 246.5 487 c 128,-1,26
 200 452 200 452 200 379 c 2,27,-1
 200 228 l 2,28,29
 200 155 200 155 229.5 120 c 128,-1,30
 259 85 259 85 320 85 c 0,17,18
EndSplineSet
EndChar

StartChar: r
Encoding: 114 114 86
Width: 700
GlyphClass: 2
Flags: W
LayerCount: 4
Fore
SplineSet
150 0 m 1,0,-1
 150 600 l 1,1,-1
 250 600 l 1,2,-1
 250 500 l 1,3,-1
 280 500 l 1,4,5
 301 557 301 557 344 583.5 c 128,-1,6
 387 610 387 610 448 610 c 0,7,8
 515 610 515 610 560 565.5 c 128,-1,9
 605 521 605 521 605 440 c 2,10,-1
 605 350 l 1,11,-1
 510 350 l 1,12,-1
 510 404 l 2,13,14
 510 461 510 461 484.5 488 c 128,-1,15
 459 515 459 515 407 515 c 0,16,17
 360 515 360 515 321.5 492 c 128,-1,18
 283 469 283 469 250 420 c 1,19,-1
 250 0 l 1,20,-1
 150 0 l 1,0,-1
EndSplineSet
EndChar

StartChar: s
Encoding: 115 115 87
Width: 700
GlyphClass: 2
Flags: W
LayerCount: 4
Fore
SplineSet
358 -10 m 0,0,1
 282 -10 282 -10 211 12.5 c 128,-1,2
 140 35 140 35 80 82 c 1,3,-1
 125 161 l 1,4,5
 174 121 174 121 234.5 100.5 c 128,-1,6
 295 80 295 80 358 80 c 0,7,8
 410 80 410 80 457.5 96 c 128,-1,9
 505 112 505 112 505 164 c 0,10,11
 505 207 505 207 466 225 c 128,-1,12
 427 243 427 243 323 256 c 0,13,14
 213 269 213 269 156.5 307.5 c 128,-1,15
 100 346 100 346 100 429 c 0,16,17
 100 519 100 519 168 564.5 c 128,-1,18
 236 610 236 610 326 610 c 0,19,20
 397 610 397 610 462.5 586 c 128,-1,21
 528 562 528 562 584 518 c 1,22,-1
 539 439 l 1,23,24
 493 476 493 476 439 498 c 128,-1,25
 385 520 385 520 326 520 c 0,26,27
 278 520 278 520 238.5 502 c 128,-1,28
 199 484 199 484 199 436 c 0,29,30
 199 395 199 395 235.5 376.5 c 128,-1,31
 272 358 272 358 376 345 c 0,32,33
 490 332 490 332 547 289.5 c 128,-1,34
 604 247 604 247 604 171 c 0,35,36
 604 77 604 77 528 33.5 c 128,-1,37
 452 -10 452 -10 358 -10 c 0,0,1
EndSplineSet
EndChar

StartChar: t
Encoding: 116 116 88
Width: 700
GlyphClass: 2
Flags: W
LayerCount: 4
Fore
SplineSet
449 -9 m 0,0,1
 350 -9 350 -9 295 40 c 128,-1,2
 240 89 240 89 240 190 c 2,3,-1
 240 510 l 1,4,-1
 70 510 l 1,5,-1
 70 600 l 1,6,-1
 240 600 l 1,7,-1
 240 800 l 1,8,-1
 340 800 l 1,9,-1
 340 600 l 1,10,-1
 600 600 l 1,11,-1
 600 510 l 1,12,-1
 340 510 l 1,13,-1
 340 199 l 2,14,15
 340 141 340 141 369 113 c 128,-1,16
 398 85 398 85 455 85 c 0,17,18
 493 85 493 85 526 90.5 c 128,-1,19
 559 96 559 96 589 105 c 1,20,-1
 609 14 l 1,21,22
 575 4 575 4 536.5 -2.5 c 128,-1,23
 498 -9 498 -9 449 -9 c 0,0,1
EndSplineSet
EndChar

StartChar: u
Encoding: 117 117 89
Width: 700
GlyphClass: 2
Flags: W
LayerCount: 4
Fore
SplineSet
294 -10 m 0,0,1
 207 -10 207 -10 153.5 46.5 c 128,-1,2
 100 103 100 103 100 195 c 2,3,-1
 100 600 l 1,4,-1
 200 600 l 1,5,-1
 200 215 l 2,6,7
 200 149 200 149 229 117 c 128,-1,8
 258 85 258 85 318 85 c 0,9,10
 365 85 365 85 409.5 110.5 c 128,-1,11
 454 136 454 136 500 190 c 1,12,-1
 500 600 l 1,13,-1
 600 600 l 1,14,-1
 600 0 l 1,15,-1
 500 0 l 1,16,-1
 500 100 l 1,17,-1
 470 100 l 1,18,19
 449 51 449 51 400.5 20.5 c 128,-1,20
 352 -10 352 -10 294 -10 c 0,0,1
EndSplineSet
EndChar

StartChar: v
Encoding: 118 118 90
Width: 700
GlyphClass: 2
Flags: W
LayerCount: 4
Fore
SplineSet
412 0 m 1,0,-1
 287 0 l 1,1,-1
 74 600 l 1,2,-1
 183 600 l 1,3,-1
 351 81 l 1,4,-1
 519 600 l 1,5,-1
 625 600 l 1,6,-1
 412 0 l 1,0,-1
EndSplineSet
EndChar

StartChar: w
Encoding: 119 119 91
Width: 700
GlyphClass: 2
Flags: W
LayerCount: 4
Fore
SplineSet
438 0 m 1,0,-1
 350 391 l 1,1,-1
 266 0 l 1,2,-1
 152 0 l 1,3,-1
 39 600 l 1,4,-1
 135 600 l 1,5,-1
 211 73 l 1,6,-1
 289 500 l 1,7,-1
 407 500 l 1,8,-1
 492 89 l 1,9,-1
 565 600 l 1,10,-1
 661 600 l 1,11,-1
 548 0 l 1,12,-1
 438 0 l 1,0,-1
EndSplineSet
EndChar

StartChar: x
Encoding: 120 120 92
Width: 700
GlyphClass: 2
Flags: W
LayerCount: 4
Fore
SplineSet
499 0 m 1,0,-1
 344 229 l 1,1,-1
 196 0 l 1,2,-1
 85 0 l 1,3,-1
 295 301 l 1,4,-1
 92 600 l 1,5,-1
 204 600 l 1,6,-1
 353 380 l 1,7,-1
 504 600 l 1,8,-1
 615 600 l 1,9,-1
 403 306 l 1,10,-1
 611 0 l 1,11,-1
 499 0 l 1,0,-1
EndSplineSet
EndChar

StartChar: y
Encoding: 121 121 93
Width: 700
GlyphClass: 2
Flags: W
LayerCount: 4
Fore
SplineSet
172 -206 m 0,0,1
 148 -206 148 -206 125 -203 c 128,-1,2
 102 -200 102 -200 78 -195 c 1,3,-1
 95 -106 l 1,4,5
 121 -112 121 -112 143.5 -115 c 128,-1,6
 166 -118 166 -118 185 -118 c 0,7,8
 231 -118 231 -118 266.5 -92 c 128,-1,9
 302 -66 302 -66 321 -9 c 2,10,-1
 324 0 l 1,11,-1
 287 0 l 1,12,-1
 74 600 l 1,13,-1
 183 600 l 1,14,-1
 352 84 l 1,15,-1
 520 600 l 1,16,-1
 625 600 l 1,17,-1
 405 -20 l 2,18,19
 371 -117 371 -117 312.5 -161.5 c 128,-1,20
 254 -206 254 -206 172 -206 c 0,0,1
EndSplineSet
EndChar

StartChar: z
Encoding: 122 122 94
Width: 700
GlyphClass: 2
Flags: W
LayerCount: 4
Fore
SplineSet
580 0 m 1,0,-1
 120 0 l 1,1,-1
 120 90 l 1,2,-1
 457 510 l 1,3,-1
 120 510 l 1,4,-1
 120 600 l 1,5,-1
 580 600 l 1,6,-1
 580 510 l 1,7,-1
 243 90 l 1,8,-1
 580 90 l 1,9,-1
 580 0 l 1,0,-1
EndSplineSet
EndChar

StartChar: braceleft.salt_straight
Encoding: 57438 57438 95
AltUni2: 00007b.ffffffff.0
Width: 700
GlyphClass: 2
Flags: W
LayerCount: 4
Fore
SplineSet
550 -210 m 1,0,1
 463 -211 463 -211 401 -201.5 c 128,-1,2
 339 -192 339 -192 299.5 -170.5 c 128,-1,3
 260 -149 260 -149 241.5 -114.5 c 128,-1,4
 223 -80 223 -80 223 -31 c 2,5,-1
 223 186 l 2,6,7
 223 211 223 211 214.5 229 c 128,-1,8
 206 247 206 247 185.5 258.5 c 128,-1,9
 165 270 165 270 132 275.5 c 128,-1,10
 99 281 99 281 50 282 c 1,11,-1
 50 342 l 1,12,13
 99 343 99 343 132 348.5 c 128,-1,14
 165 354 165 354 185 365 c 128,-1,15
 205 376 205 376 214 393.5 c 128,-1,16
 223 411 223 411 223 436 c 2,17,-1
 223 629 l 2,18,19
 223 729 223 729 301 770.5 c 128,-1,20
 379 812 379 812 550 810 c 1,21,-1
 550 720 l 1,22,23
 487 721 487 721 444 716.5 c 128,-1,24
 401 712 401 712 374 700 c 128,-1,25
 347 688 347 688 335 668 c 128,-1,26
 323 648 323 648 323 618 c 2,27,-1
 323 430 l 2,28,29
 323 372 323 372 288 345 c 128,-1,30
 253 318 253 318 171 316 c 1,31,-1
 171 311 l 1,32,33
 255 304 255 304 289 273 c 128,-1,34
 323 242 323 242 323 187 c 2,35,-1
 323 -16 l 2,36,37
 323 -47 323 -47 335 -68 c 128,-1,38
 347 -89 347 -89 374 -101.5 c 128,-1,39
 401 -114 401 -114 444 -118.5 c 128,-1,40
 487 -123 487 -123 550 -122 c 1,41,-1
 550 -210 l 1,42,-1
 550 -210 l 1,0,1
EndSplineSet
EndChar

StartChar: bar
Encoding: 124 124 96
Width: 700
GlyphClass: 2
Flags: W
LayerCount: 4
Fore
SplineSet
305 -200 m 1,0,-1
 305 800 l 1,1,-1
 395 800 l 1,2,-1
 395 -200 l 1,3,-1
 305 -200 l 1,0,-1
EndSplineSet
Substitution2: "Single Substitution lookup 76 subtable" CR.17.0
Substitution2: "Single Substitution lookup 75 subtable" lig.17
Substitution2: "Single Substitution lookup 73 subtable" CR.18.0
Substitution2: "Single Substitution lookup 12 subtable" CR.35.0
Substitution2: "Single Substitution lookup 11 subtable" CR.35.1
EndChar

StartChar: braceright.salt_straight
Encoding: 57439 57439 97
AltUni2: 00007d.ffffffff.0
Width: 700
GlyphClass: 2
Flags: W
LayerCount: 4
Fore
SplineSet
150 -122 m 1,0,1
 212 -123 212 -123 255.5 -118.5 c 128,-1,2
 299 -114 299 -114 326 -101.5 c 128,-1,3
 353 -89 353 -89 365 -68 c 128,-1,4
 377 -47 377 -47 377 -16 c 2,5,-1
 377 187 l 2,6,7
 377 242 377 242 411 273 c 128,-1,8
 445 304 445 304 529 311 c 1,9,-1
 529 316 l 1,10,11
 447 318 447 318 412 345 c 128,-1,12
 377 372 377 372 377 430 c 2,13,-1
 377 618 l 2,14,15
 377 648 377 648 365 668 c 128,-1,16
 353 688 353 688 326 700 c 128,-1,17
 299 712 299 712 255.5 716.5 c 128,-1,18
 212 721 212 721 150 720 c 1,19,-1
 150 810 l 1,20,21
 321 812 321 812 399 770.5 c 128,-1,22
 477 729 477 729 477 629 c 2,23,-1
 477 436 l 2,24,25
 477 411 477 411 485.5 393.5 c 128,-1,26
 494 376 494 376 514.5 365 c 128,-1,27
 535 354 535 354 568 348.5 c 128,-1,28
 601 343 601 343 650 342 c 1,29,-1
 650 282 l 1,30,31
 600 281 600 281 567 275.5 c 128,-1,32
 534 270 534 270 514 258.5 c 128,-1,33
 494 247 494 247 485.5 229 c 128,-1,34
 477 211 477 211 477 186 c 2,35,-1
 477 -31 l 2,36,37
 477 -80 477 -80 458.5 -114.5 c 128,-1,38
 440 -149 440 -149 400.5 -170.5 c 128,-1,39
 361 -192 361 -192 299 -201.5 c 128,-1,40
 237 -211 237 -211 150 -210 c 1,41,-1
 150 -122 l 1,0,1
EndSplineSet
EndChar

StartChar: asciitilde
Encoding: 126 126 98
Width: 700
GlyphClass: 2
Flags: W
LayerCount: 4
Fore
SplineSet
481 210 m 0,0,1
 424 210 424 210 387.5 243.5 c 128,-1,2
 351 277 351 277 312 368 c 0,3,4
 281 440 281 440 261.5 465.5 c 128,-1,5
 242 491 242 491 214 491 c 0,6,7
 187 491 187 491 168.5 464.5 c 128,-1,8
 150 438 150 438 150 373 c 2,9,-1
 150 220 l 1,10,-1
 60 220 l 1,11,-1
 60 379 l 2,12,13
 60 481 60 481 105.5 535.5 c 128,-1,14
 151 590 151 590 217 590 c 0,15,16
 276 590 276 590 312.5 556 c 128,-1,17
 349 522 349 522 389 429 c 0,18,19
 418 360 418 360 437.5 334.5 c 128,-1,20
 457 309 457 309 486 309 c 0,21,22
 513 309 513 309 531.5 335.5 c 128,-1,23
 550 362 550 362 550 428 c 2,24,-1
 550 580 l 1,25,-1
 640 580 l 1,26,-1
 640 421 l 2,27,28
 640 319 640 319 594.5 264.5 c 128,-1,29
 549 210 549 210 481 210 c 0,0,1
EndSplineSet
Substitution2: "Single Substitution lookup 67 subtable" CR.20.0
Substitution2: "Single Substitution lookup 63 subtable" lig.21
Substitution2: "Single Substitution lookup 61 subtable" CR.22.0
Substitution2: "Single Substitution lookup 8 subtable" CR.36.0
Substitution2: "Single Substitution lookup 7 subtable" CR.36.1
EndChar

StartChar: exclamdown
Encoding: 161 161 99
Width: 700
GlyphClass: 2
Flags: W
LayerCount: 4
Fore
SplineSet
350 810 m 0,0,1
 400 810 400 810 423.5 789.5 c 128,-1,2
 447 769 447 769 447 726 c 2,3,-1
 447 698 l 2,4,5
 447 654 447 654 423.5 633 c 128,-1,6
 400 612 400 612 350 612 c 256,7,8
 300 612 300 612 277 633 c 128,-1,9
 254 654 254 654 254 698 c 2,10,-1
 254 726 l 2,11,12
 254 769 254 769 277.5 789.5 c 128,-1,13
 301 810 301 810 350 810 c 0,0,1
391 500 m 1,14,-1
 421 0 l 1,15,-1
 281 0 l 1,16,-1
 311 500 l 1,17,-1
 391 500 l 1,14,-1
EndSplineSet
EndChar

StartChar: cent
Encoding: 162 162 100
Width: 700
GlyphClass: 2
Flags: W
LayerCount: 4
Fore
SplineSet
200 317 m 2,0,1
 200 251 200 251 231.5 219 c 128,-1,2
 263 187 263 187 330 181 c 1,3,-1
 330 619 l 1,4,5
 263 614 263 614 231.5 581.5 c 128,-1,6
 200 549 200 549 200 483 c 2,7,-1
 200 317 l 2,0,1
320 -50 m 1,8,-1
 320 92 l 1,9,10
 203 101 203 101 151.5 161 c 128,-1,11
 100 221 100 221 100 327 c 2,12,-1
 100 477 l 2,13,14
 100 581 100 581 152 640.5 c 128,-1,15
 204 700 204 700 320 708 c 1,16,-1
 320 850 l 1,17,-1
 400 850 l 1,18,-1
 400 709 l 1,19,20
 504 702 504 702 554 648.5 c 128,-1,21
 604 595 604 595 611 494 c 1,22,-1
 518 488 l 1,23,24
 514 560 514 560 484.5 588 c 128,-1,25
 455 616 455 616 390 619 c 1,26,-1
 390 181 l 1,27,28
 455 183 455 183 484.5 208.5 c 128,-1,29
 514 234 514 234 518 302 c 1,30,-1
 611 296 l 1,31,32
 604 197 604 197 554 147.5 c 128,-1,33
 504 98 504 98 400 91 c 1,34,-1
 400 -50 l 1,35,-1
 320 -50 l 1,8,-1
EndSplineSet
EndChar

StartChar: sterling
Encoding: 163 163 101
Width: 700
GlyphClass: 2
Flags: W
LayerCount: 4
Fore
SplineSet
640 217 m 1,0,1
 633 106 633 106 578.5 48 c 128,-1,2
 524 -10 524 -10 430 -10 c 0,3,4
 393 -10 393 -10 359 8.5 c 128,-1,5
 325 27 325 27 292 42 c 0,6,7
 260 55 260 55 234 62 c 128,-1,8
 208 69 208 69 180 51 c 2,9,-1
 88 -9 l 1,10,-1
 31 65 l 1,11,-1
 113 115 l 2,12,13
 149 137 149 137 175 187.5 c 128,-1,14
 201 238 201 238 201 287 c 0,15,16
 201 318 201 318 195 341.5 c 128,-1,17
 189 365 189 365 179 385 c 1,18,-1
 40 385 l 1,19,-1
 40 475 l 1,20,-1
 128 475 l 1,21,22
 115 499 115 499 107 528 c 128,-1,23
 99 557 99 557 99 597 c 0,24,25
 99 693 99 693 161.5 751.5 c 128,-1,26
 224 810 224 810 342 810 c 0,27,28
 469 810 469 810 531 757.5 c 128,-1,29
 593 705 593 705 600 589 c 1,30,-1
 500 579 l 1,31,32
 493 659 493 659 458.5 689.5 c 128,-1,33
 424 720 424 720 342 720 c 0,34,35
 267 720 267 720 233.5 690 c 128,-1,36
 200 660 200 660 200 595 c 0,37,38
 200 558 200 558 211.5 529.5 c 128,-1,39
 223 501 223 501 239 475 c 1,40,-1
 440 475 l 1,41,-1
 440 385 l 1,42,-1
 287 385 l 1,43,44
 294 366 294 366 298.5 343.5 c 128,-1,45
 303 321 303 321 303 295 c 0,46,47
 303 261 303 261 286.5 219 c 128,-1,48
 270 177 270 177 213 137 c 1,49,-1
 225 120 l 1,50,51
 253 138 253 138 278 136 c 128,-1,52
 303 134 303 134 330 125 c 0,53,54
 358 116 358 116 383.5 102 c 128,-1,55
 409 88 409 88 438 88 c 0,56,57
 489 88 489 88 511 117.5 c 128,-1,58
 533 147 533 147 540 227 c 1,59,-1
 640 217 l 1,0,1
EndSplineSet
EndChar

StartChar: currency
Encoding: 164 164 102
Width: 700
GlyphClass: 2
Flags: W
LayerCount: 4
Fore
SplineSet
350 180 m 256,0,1
 410 180 410 180 440 212 c 128,-1,2
 470 244 470 244 470 317 c 2,3,-1
 470 479 l 2,4,5
 470 551 470 551 440 585.5 c 128,-1,6
 410 620 410 620 350 620 c 256,7,8
 290 620 290 620 260 585.5 c 128,-1,9
 230 551 230 551 230 479 c 2,10,-1
 230 317 l 2,11,12
 230 244 230 244 260 212 c 128,-1,13
 290 180 290 180 350 180 c 256,0,1
350 90 m 0,14,15
 301 90 301 90 260 103.5 c 128,-1,16
 219 117 219 117 191 145 c 1,17,-1
 104 56 l 1,18,-1
 41 119 l 1,19,-1
 143 223 l 1,20,21
 137 243 137 243 133.5 266.5 c 128,-1,22
 130 290 130 290 130 317 c 2,23,-1
 130 479 l 2,24,25
 130 507 130 507 133.5 531 c 128,-1,26
 137 555 137 555 144 576 c 1,27,-1
 41 681 l 1,28,-1
 104 744 l 1,29,-1
 192 654 l 1,30,31
 221 682 221 682 261.5 696 c 128,-1,32
 302 710 302 710 351 710 c 256,33,34
 400 710 400 710 441 695.5 c 128,-1,35
 482 681 482 681 510 653 c 1,36,-1
 596 739 l 1,37,-1
 659 676 l 1,38,-1
 557 574 l 1,39,40
 563 554 563 554 566.5 530 c 128,-1,41
 570 506 570 506 570 479 c 2,42,-1
 570 317 l 2,43,44
 570 291 570 291 567 268 c 128,-1,45
 564 245 564 245 557 226 c 1,46,-1
 659 124 l 1,47,-1
 596 61 l 1,48,-1
 511 146 l 1,49,50
 482 118 482 118 441 104 c 128,-1,51
 400 90 400 90 350 90 c 0,14,15
EndSplineSet
EndChar

StartChar: yen
Encoding: 165 165 103
Width: 700
GlyphClass: 2
Flags: W
LayerCount: 4
Fore
SplineSet
600 100 m 1,0,-1
 400 100 l 1,1,-1
 400 0 l 1,2,-1
 300 0 l 1,3,-1
 300 100 l 1,4,-1
 100 100 l 1,5,-1
 100 190 l 1,6,-1
 300 190 l 1,7,-1
 300 300 l 1,8,-1
 100 300 l 1,9,-1
 100 390 l 1,10,-1
 249 390 l 1,11,-1
 14 800 l 1,12,-1
 123 800 l 1,13,-1
 350 373 l 1,14,-1
 577 800 l 1,15,-1
 685 800 l 1,16,-1
 451 390 l 1,17,-1
 600 390 l 1,18,-1
 600 300 l 1,19,-1
 400 300 l 1,20,-1
 400 190 l 1,21,-1
 600 190 l 1,22,-1
 600 100 l 1,0,-1
EndSplineSet
EndChar

StartChar: brokenbar
Encoding: 166 166 104
Width: 700
GlyphClass: 2
Flags: W
LayerCount: 4
Fore
SplineSet
305 400 m 1,0,-1
 305 800 l 1,1,-1
 395 800 l 1,2,-1
 395 400 l 1,3,-1
 305 400 l 1,0,-1
305 -200 m 1,4,-1
 305 200 l 1,5,-1
 395 200 l 1,6,-1
 395 -200 l 1,7,-1
 305 -200 l 1,4,-1
EndSplineSet
EndChar

StartChar: section
Encoding: 167 167 105
Width: 700
GlyphClass: 2
Flags: W
LayerCount: 4
Fore
SplineSet
340 202 m 0,0,1
 349 200 349 200 358 198 c 128,-1,2
 367 196 367 196 376 194 c 0,3,4
 426 195 426 195 465.5 217.5 c 128,-1,5
 505 240 505 240 505 294 c 0,6,7
 505 345 505 345 463.5 364 c 128,-1,8
 422 383 422 383 365 395 c 0,9,10
 356 397 356 397 347 399 c 128,-1,11
 338 401 338 401 329 403 c 0,12,13
 279 402 279 402 239.5 379.5 c 128,-1,14
 200 357 200 357 200 303 c 0,15,16
 200 252 200 252 241.5 233 c 128,-1,17
 283 214 283 214 340 202 c 0,0,1
368 -207 m 0,18,19
 298 -207 298 -207 233.5 -182.5 c 128,-1,20
 169 -158 169 -158 121 -113 c 1,21,-1
 171 -32 l 1,22,23
 222 -75 222 -75 268.5 -96 c 128,-1,24
 315 -117 315 -117 373 -117 c 0,25,26
 428 -117 428 -117 469.5 -96 c 128,-1,27
 511 -75 511 -75 511 -24 c 0,28,29
 511 40 511 40 455.5 65.5 c 128,-1,30
 400 91 400 91 328 106 c 0,31,32
 219 128 219 128 159.5 168 c 128,-1,33
 100 208 100 208 100 293 c 0,34,35
 100 350 100 350 135 385.5 c 128,-1,36
 170 421 170 421 224 437 c 1,37,38
 164 464 164 464 132 505.5 c 128,-1,39
 100 547 100 547 100 610 c 0,40,41
 100 714 100 714 173.5 759 c 128,-1,42
 247 804 247 804 337 804 c 0,43,44
 407 804 407 804 471.5 779.5 c 128,-1,45
 536 755 536 755 584 710 c 1,46,-1
 534 629 l 1,47,48
 483 672 483 672 436.5 693 c 128,-1,49
 390 714 390 714 332 714 c 256,50,51
 274 714 274 714 234 689.5 c 128,-1,52
 194 665 194 665 194 621 c 0,53,54
 194 557 194 557 249.5 531.5 c 128,-1,55
 305 506 305 506 377 491 c 0,56,57
 486 469 486 469 545.5 429 c 128,-1,58
 605 389 605 389 605 304 c 0,59,60
 605 247 605 247 570 211.5 c 128,-1,61
 535 176 535 176 481 160 c 1,62,63
 541 133 541 133 573 91.5 c 128,-1,64
 605 50 605 50 605 -13 c 0,65,66
 605 -112 605 -112 536 -159.5 c 128,-1,67
 467 -207 467 -207 368 -207 c 0,18,19
EndSplineSet
EndChar

StartChar: copyright
Encoding: 169 169 107
Width: 700
GlyphClass: 2
Flags: W
LayerCount: 4
Fore
SplineSet
350 -110 m 256,0,1
 178 -110 178 -110 99 -14.5 c 128,-1,2
 20 81 20 81 20 257 c 2,3,-1
 20 479 l 2,4,5
 20 657 20 657 99.5 753.5 c 128,-1,6
 179 850 179 850 351 850 c 256,7,8
 523 850 523 850 601.5 753.5 c 128,-1,9
 680 657 680 657 680 479 c 2,10,-1
 680 257 l 2,11,12
 680 81 680 81 601 -14.5 c 128,-1,13
 522 -110 522 -110 350 -110 c 256,0,1
350 -44 m 256,14,15
 487 -44 487 -44 548.5 27.5 c 128,-1,16
 610 99 610 99 610 256 c 2,17,-1
 610 479 l 2,18,19
 610 639 610 639 548.5 711.5 c 128,-1,20
 487 784 487 784 350 784 c 256,21,22
 213 784 213 784 151.5 711 c 128,-1,23
 90 638 90 638 90 478 c 2,24,-1
 90 257 l 2,25,26
 90 99 90 99 151.5 27.5 c 128,-1,27
 213 -44 213 -44 350 -44 c 256,14,15
359 100 m 0,28,29
 275 100 275 100 239 148 c 128,-1,30
 203 196 203 196 203 286 c 2,31,-1
 203 457 l 2,32,33
 203 546 203 546 239.5 593 c 128,-1,34
 276 640 276 640 358 640 c 0,35,36
 429 640 429 640 461.5 597 c 128,-1,37
 494 554 494 554 500 464 c 1,38,-1
 417 458 l 1,39,40
 413 518 413 518 400.5 538.5 c 128,-1,41
 388 559 388 559 357 559 c 0,42,43
 323 559 323 559 308 537 c 128,-1,44
 293 515 293 515 293 463 c 2,45,-1
 293 277 l 2,46,47
 293 226 293 226 309 203.5 c 128,-1,48
 325 181 325 181 359 181 c 0,49,50
 389 181 389 181 401 198.5 c 128,-1,51
 413 216 413 216 417 273 c 1,52,-1
 500 267 l 1,53,54
 494 180 494 180 461.5 140 c 128,-1,55
 429 100 429 100 359 100 c 0,28,29
EndSplineSet
EndChar

StartChar: ordfeminine
Encoding: 170 170 108
Width: 700
GlyphClass: 2
Flags: W
LayerCount: 4
Fore
SplineSet
290 395 m 0,0,1
 329 395 329 395 361.5 411.5 c 128,-1,2
 394 428 394 428 420 466 c 1,3,-1
 420 521 l 1,4,-1
 283 521 l 2,5,6
 246 521 246 521 221.5 507.5 c 128,-1,7
 197 494 197 494 197 459 c 0,8,9
 197 428 197 428 218 411.5 c 128,-1,10
 239 395 239 395 290 395 c 0,0,1
270 321 m 0,11,12
 208 321 208 321 159.5 352.5 c 128,-1,13
 111 384 111 384 111 454 c 0,14,15
 111 516 111 516 154.5 551.5 c 128,-1,16
 198 587 198 587 258 587 c 2,17,-1
 420 587 l 1,18,-1
 420 643 l 2,19,20
 420 684 420 684 394.5 710 c 128,-1,21
 369 736 369 736 318 736 c 0,22,23
 266 736 266 736 239.5 721 c 128,-1,24
 213 706 213 706 197 653 c 1,25,-1
 122 674 l 1,26,27
 135 740 135 740 181 775 c 128,-1,28
 227 810 227 810 316 810 c 0,29,30
 397 810 397 810 451 771.5 c 128,-1,31
 505 733 505 733 505 653 c 2,32,-1
 505 467 l 2,33,34
 505 419 505 419 526 409 c 128,-1,35
 547 399 547 399 600 405 c 1,36,-1
 600 326 l 1,37,38
 543 322 543 322 502.5 335.5 c 128,-1,39
 462 349 462 349 458 415 c 1,40,-1
 441 415 l 1,41,42
 418 375 418 375 372.5 348 c 128,-1,43
 327 321 327 321 270 321 c 0,11,12
EndSplineSet
EndChar

StartChar: guillemotleft
Encoding: 171 171 109
Width: 700
GlyphClass: 2
Flags: W
LayerCount: 4
Fore
SplineSet
631 99 m 1,0,-1
 371 299 l 1,1,-1
 371 399 l 1,2,-1
 631 599 l 1,3,-1
 631 504 l 1,4,-1
 430 349 l 1,5,-1
 631 194 l 1,6,-1
 631 99 l 1,0,-1
331 99 m 1,7,-1
 71 299 l 1,8,-1
 71 399 l 1,9,-1
 331 599 l 1,10,-1
 331 504 l 1,11,-1
 130 349 l 1,12,-1
 331 194 l 1,13,-1
 331 99 l 1,7,-1
EndSplineSet
EndChar

StartChar: logicalnot
Encoding: 172 172 110
Width: 700
GlyphClass: 2
Flags: W
LayerCount: 4
Fore
SplineSet
530 0 m 1,0,-1
 530 300 l 1,1,-1
 70 300 l 1,2,-1
 70 400 l 1,3,-1
 630 400 l 1,4,-1
 630 0 l 1,5,-1
 530 0 l 1,0,-1
EndSplineSet
EndChar

StartChar: registered
Encoding: 174 174 111
Width: 700
GlyphClass: 2
Flags: W
LayerCount: 4
Fore
SplineSet
350 138 m 256,0,1
 204 138 204 138 137 212.5 c 128,-1,2
 70 287 70 287 70 411 c 2,3,-1
 70 584 l 2,4,5
 70 709 70 709 137 784.5 c 128,-1,6
 204 860 204 860 351 860 c 0,7,8
 497 860 497 860 563.5 784.5 c 128,-1,9
 630 709 630 709 630 584 c 2,10,-1
 630 411 l 2,11,12
 630 287 630 287 563 212.5 c 128,-1,13
 496 138 496 138 350 138 c 256,0,1
350 195 m 256,14,15
 463 195 463 195 516 250 c 128,-1,16
 569 305 569 305 569 421 c 2,17,-1
 569 574 l 2,18,19
 569 693 569 693 516 748.5 c 128,-1,20
 463 804 463 804 350 804 c 256,21,22
 237 804 237 804 184 748.5 c 128,-1,23
 131 693 131 693 131 574 c 2,24,-1
 131 421 l 2,25,26
 131 305 131 305 184 250 c 128,-1,27
 237 195 237 195 350 195 c 256,14,15
297 501 m 1,28,-1
 360 501 l 2,29,30
 385 501 385 501 396 511 c 128,-1,31
 407 521 407 521 407 543 c 2,32,-1
 407 571 l 2,33,34
 407 599 407 599 396 611 c 128,-1,35
 385 623 385 623 360 623 c 2,36,-1
 297 623 l 1,37,-1
 297 501 l 1,28,-1
297 323 m 1,38,-1
 232 323 l 1,39,-1
 232 681 l 1,40,-1
 360 681 l 2,41,42
 415 681 415 681 444 653 c 128,-1,43
 473 625 473 625 473 571 c 2,44,-1
 473 543 l 2,45,46
 473 506 473 506 456.5 482.5 c 128,-1,47
 440 459 440 459 408 449 c 1,48,-1
 479 323 l 1,49,-1
 405 323 l 1,50,-1
 338 443 l 1,51,-1
 297 443 l 1,52,-1
 297 323 l 1,38,-1
EndSplineSet
EndChar

StartChar: degree
Encoding: 176 176 113
Width: 700
GlyphClass: 2
Flags: W
LayerCount: 4
Fore
SplineSet
350 346 m 256,0,1
 260 346 260 346 205 390.5 c 128,-1,2
 150 435 150 435 150 528 c 2,3,-1
 150 621 l 2,4,5
 150 714 150 714 205 760 c 128,-1,6
 260 806 260 806 350 806 c 0,7,8
 441 806 441 806 495.5 760 c 128,-1,9
 550 714 550 714 550 621 c 2,10,-1
 550 528 l 2,11,12
 550 435 550 435 495 390.5 c 128,-1,13
 440 346 440 346 350 346 c 256,0,1
350 433 m 0,14,15
 401 433 401 433 428 455 c 128,-1,16
 455 477 455 477 455 528 c 2,17,-1
 455 621 l 2,18,19
 455 671 455 671 428 695 c 128,-1,20
 401 719 401 719 350 719 c 0,21,22
 297 719 297 719 271 695 c 128,-1,23
 245 671 245 671 245 621 c 2,24,-1
 245 528 l 2,25,26
 245 477 245 477 271 455 c 128,-1,27
 297 433 297 433 350 433 c 0,14,15
EndSplineSet
EndChar

StartChar: two.sups
Encoding: 178 178 115
Width: 700
GlyphClass: 2
Flags: W
LayerCount: 4
Fore
SplineSet
150 304 m 1,0,-1
 150 408 l 2,1,2
 150 462 150 462 177 501.5 c 128,-1,3
 204 541 204 541 267 554 c 2,4,-1
 389 579 l 2,5,6
 424 586 424 586 439 601.5 c 128,-1,7
 454 617 454 617 454 648 c 2,8,-1
 454 667 l 2,9,10
 454 699 454 699 433 717.5 c 128,-1,11
 412 736 412 736 350 736 c 256,12,13
 288 736 288 736 269.5 715.5 c 128,-1,14
 251 695 251 695 247 644 c 1,15,-1
 156 651 l 1,16,17
 160 728 160 728 202 767 c 128,-1,18
 244 806 244 806 350 806 c 256,19,20
 456 806 456 806 500 769.5 c 128,-1,21
 544 733 544 733 544 670 c 2,22,-1
 544 636 l 2,23,24
 544 579 544 579 512.5 549.5 c 128,-1,25
 481 520 481 520 430 510 c 2,26,-1
 308 485 l 2,27,28
 277 479 277 479 259 464 c 128,-1,29
 241 449 241 449 241 409 c 2,30,-1
 241 377 l 1,31,-1
 551 377 l 1,32,-1
 551 304 l 1,33,-1
 150 304 l 1,0,-1
EndSplineSet
EndChar

StartChar: three.sups
Encoding: 179 179 116
Width: 700
GlyphClass: 2
Flags: W
LayerCount: 4
Fore
SplineSet
348 298 m 0,0,1
 238 298 238 298 193 334.5 c 128,-1,2
 148 371 148 371 144 443 c 1,3,-1
 234 449 l 1,4,5
 239 405 239 405 259 387 c 128,-1,6
 279 369 279 369 348 369 c 0,7,8
 416 369 416 369 438 388 c 128,-1,9
 460 407 460 407 460 441 c 2,10,-1
 460 457 l 2,11,12
 460 494 460 494 438 511.5 c 128,-1,13
 416 529 416 529 350 529 c 2,14,-1
 268 529 l 1,15,-1
 268 601 l 1,16,-1
 350 601 l 2,17,18
 404 601 404 601 426 612 c 128,-1,19
 448 623 448 623 448 655 c 2,20,-1
 448 675 l 2,21,22
 448 709 448 709 420 722 c 128,-1,23
 392 735 392 735 344 735 c 0,24,25
 295 735 295 735 273 719 c 128,-1,26
 251 703 251 703 247 666 c 1,27,-1
 156 672 l 1,28,29
 161 744 161 744 206 775 c 128,-1,30
 251 806 251 806 344 806 c 0,31,32
 428 806 428 806 483 780 c 128,-1,33
 538 754 538 754 538 681 c 2,34,-1
 538 665 l 2,35,36
 538 625 538 625 512 602.5 c 128,-1,37
 486 580 486 580 444 576 c 1,38,-1
 444 558 l 1,39,40
 491 554 491 554 521 525.5 c 128,-1,41
 551 497 551 497 551 453 c 2,42,-1
 551 439 l 2,43,44
 551 366 551 366 501.5 332 c 128,-1,45
 452 298 452 298 348 298 c 0,0,1
EndSplineSet
EndChar

StartChar: paragraph
Encoding: 182 182 119
Width: 700
GlyphClass: 2
Flags: W
LayerCount: 4
Fore
SplineSet
500 340 m 1,0,-1
 400 340 l 1,1,-1
 400 -200 l 1,2,-1
 300 -200 l 1,3,-1
 300 340 l 1,4,5
 210 340 210 340 140 384.5 c 128,-1,6
 70 429 70 429 70 537 c 2,7,-1
 70 589 l 2,8,9
 70 699 70 699 139.5 749.5 c 128,-1,10
 209 800 209 800 299 800 c 2,11,-1
 600 800 l 1,12,-1
 600 -200 l 1,13,-1
 500 -200 l 1,14,-1
 500 340 l 1,0,-1
EndSplineSet
EndChar

StartChar: periodcentered
Encoding: 8729 8729 120
AltUni2: 0000b7.ffffffff.0
Width: 700
GlyphClass: 2
Flags: W
LayerCount: 4
Fore
SplineSet
351 290 m 0,0,1
 301 290 301 290 270 312.5 c 128,-1,2
 239 335 239 335 239 384 c 2,3,-1
 239 412 l 2,4,5
 239 461 239 461 270 484.5 c 128,-1,6
 301 508 301 508 351 508 c 256,7,8
 401 508 401 508 431.5 484.5 c 128,-1,9
 462 461 462 461 462 412 c 2,10,-1
 462 384 l 2,11,12
 462 335 462 335 431 312.5 c 128,-1,13
 400 290 400 290 351 290 c 0,0,1
EndSplineSet
EndChar

StartChar: one.sups
Encoding: 185 185 122
Width: 700
GlyphClass: 2
Flags: W
LayerCount: 4
Fore
SplineSet
200 304 m 1,0,-1
 200 377 l 1,1,-1
 336 377 l 1,2,-1
 336 695 l 1,3,-1
 321 695 l 1,4,5
 309 655 309 655 273.5 631 c 128,-1,6
 238 607 238 607 193 606 c 1,7,-1
 187 681 l 1,8,9
 234 683 234 683 279.5 711.5 c 128,-1,10
 325 740 325 740 338 800 c 1,11,-1
 427 800 l 1,12,-1
 427 377 l 1,13,-1
 551 377 l 1,14,-1
 551 304 l 1,15,-1
 200 304 l 1,0,-1
EndSplineSet
EndChar

StartChar: ordmasculine
Encoding: 186 186 123
Width: 700
GlyphClass: 2
Flags: W
LayerCount: 4
Fore
SplineSet
350 321 m 256,0,1
 254 321 254 321 194.5 366.5 c 128,-1,2
 135 412 135 412 135 506 c 2,3,-1
 135 620 l 2,4,5
 135 716 135 716 194.5 763 c 128,-1,6
 254 810 254 810 350 810 c 256,7,8
 446 810 446 810 505 763 c 128,-1,9
 564 716 564 716 564 620 c 2,10,-1
 564 506 l 2,11,12
 564 412 564 412 505 366.5 c 128,-1,13
 446 321 446 321 350 321 c 256,0,1
350 398 m 256,14,15
 414 398 414 398 446 423.5 c 128,-1,16
 478 449 478 449 478 506 c 2,17,-1
 478 620 l 2,18,19
 478 677 478 677 446 704.5 c 128,-1,20
 414 732 414 732 350 732 c 256,21,22
 286 732 286 732 253.5 704.5 c 128,-1,23
 221 677 221 677 221 620 c 2,24,-1
 221 506 l 2,25,26
 221 449 221 449 253.5 423.5 c 128,-1,27
 286 398 286 398 350 398 c 256,14,15
EndSplineSet
EndChar

StartChar: guillemotright
Encoding: 187 187 124
Width: 700
GlyphClass: 2
Flags: W
LayerCount: 4
Fore
SplineSet
70 100 m 1,0,-1
 70 195 l 1,1,-1
 272 350 l 1,2,-1
 70 505 l 1,3,-1
 70 600 l 1,4,-1
 330 400 l 1,5,-1
 330 300 l 1,6,-1
 70 100 l 1,0,-1
370 100 m 1,7,-1
 370 195 l 1,8,-1
 572 350 l 1,9,-1
 370 505 l 1,10,-1
 370 600 l 1,11,-1
 630 400 l 1,12,-1
 630 300 l 1,13,-1
 370 100 l 1,7,-1
EndSplineSet
EndChar

StartChar: onequarter
Encoding: 188 188 125
Width: 700
GlyphClass: 2
Flags: W
LayerCount: 4
Fore
SplineSet
180 410 m 1,0,-1
 180 483 l 1,1,-1
 316 483 l 1,2,-1
 316 701 l 1,3,-1
 301 701 l 1,4,5
 295 681 295 681 283 665 c 128,-1,6
 271 649 271 649 254 637 c 0,7,8
 236 625 236 625 215.5 618.5 c 128,-1,9
 195 612 195 612 173 612 c 1,10,-1
 167 687 l 1,11,12
 192 688 192 688 216 695.5 c 128,-1,13
 240 703 240 703 261 718 c 0,14,15
 282 732 282 732 297 754.5 c 128,-1,16
 312 777 312 777 318 806 c 1,17,-1
 407 806 l 1,18,-1
 407 483 l 1,19,-1
 531 483 l 1,20,-1
 531 410 l 1,21,-1
 180 410 l 1,0,-1
0 250 m 1,22,-1
 0 350 l 1,23,-1
 318 330 l 1,24,-1
 318 270 l 1,25,-1
 0 250 l 1,22,-1
396 270 m 1,26,-1
 396 330 l 1,27,-1
 700 350 l 1,28,-1
 700 250 l 1,29,-1
 396 270 l 1,26,-1
582 -114 m 1,30,-1
 489 -114 l 1,31,-1
 489 -210 l 1,32,-1
 398 -210 l 1,33,-1
 398 -114 l 1,34,-1
 144 -114 l 1,35,-1
 144 -44 l 1,36,-1
 370 216 l 1,37,-1
 489 216 l 1,38,-1
 489 -44 l 1,39,-1
 582 -44 l 1,40,-1
 582 -114 l 1,30,-1
223 -44 m 1,41,-1
 398 -44 l 1,42,-1
 398 154 l 1,43,-1
 223 -44 l 1,41,-1
EndSplineSet
EndChar

StartChar: onehalf
Encoding: 189 189 126
Width: 700
GlyphClass: 2
Flags: W
LayerCount: 4
Fore
SplineSet
180 410 m 1,0,-1
 180 483 l 1,1,-1
 316 483 l 1,2,-1
 316 701 l 1,3,-1
 301 701 l 1,4,5
 295 681 295 681 283 665 c 128,-1,6
 271 649 271 649 254 637 c 0,7,8
 236 625 236 625 215.5 618.5 c 128,-1,9
 195 612 195 612 173 612 c 1,10,-1
 167 687 l 1,11,12
 192 688 192 688 216 695.5 c 128,-1,13
 240 703 240 703 261 718 c 0,14,15
 282 732 282 732 297 754.5 c 128,-1,16
 312 777 312 777 318 806 c 1,17,-1
 407 806 l 1,18,-1
 407 483 l 1,19,-1
 531 483 l 1,20,-1
 531 410 l 1,21,-1
 180 410 l 1,0,-1
0 250 m 1,22,-1
 0 350 l 1,23,-1
 318 330 l 1,24,-1
 318 270 l 1,25,-1
 0 250 l 1,22,-1
396 270 m 1,26,-1
 396 330 l 1,27,-1
 700 350 l 1,28,-1
 700 250 l 1,29,-1
 396 270 l 1,26,-1
150 -210 m 1,30,-1
 150 -126 l 2,31,32
 150 -102 150 -102 156.5 -82 c 128,-1,33
 163 -62 163 -62 177 -45 c 0,34,35
 191 -29 191 -29 213.5 -17.5 c 128,-1,36
 236 -6 236 -6 267 0 c 2,37,-1
 389 25 l 2,38,39
 408 29 408 29 420 33 c 128,-1,40
 432 37 432 37 439 42 c 0,41,42
 447 48 447 48 450.5 55.5 c 128,-1,43
 454 63 454 63 454 74 c 2,44,-1
 454 93 l 2,45,46
 454 105 454 105 449 114 c 128,-1,47
 444 123 444 123 433 129 c 0,48,49
 421 136 421 136 401 139 c 128,-1,50
 381 142 381 142 350 142 c 256,51,52
 319 142 319 142 299.5 138 c 128,-1,53
 280 134 280 134 269 126 c 256,54,55
 258 118 258 118 253.5 104.5 c 128,-1,56
 249 91 249 91 247 70 c 1,57,-1
 156 77 l 1,58,59
 158 112 158 112 169 137 c 128,-1,60
 180 162 180 162 202 179 c 0,61,62
 224 195 224 195 260.5 203.5 c 128,-1,63
 297 212 297 212 350 212 c 0,64,65
 402 212 402 212 439.5 204 c 128,-1,66
 477 196 477 196 500 181 c 256,67,68
 523 166 523 166 533.5 145 c 128,-1,69
 544 124 544 124 544 96 c 2,70,-1
 544 62 l 2,71,72
 544 39 544 39 536 21 c 128,-1,73
 528 3 528 3 513 -9 c 0,74,75
 498 -22 498 -22 477.5 -30 c 128,-1,76
 457 -38 457 -38 430 -44 c 2,77,-1
 308 -69 l 2,78,79
 290 -73 290 -73 278.5 -76.5 c 128,-1,80
 267 -80 267 -80 259 -87 c 0,81,82
 250 -94 250 -94 245.5 -106 c 128,-1,83
 241 -118 241 -118 241 -137 c 1,84,-1
 551 -137 l 1,85,-1
 551 -210 l 1,86,-1
 150 -210 l 1,30,-1
EndSplineSet
EndChar

StartChar: threequarters
Encoding: 190 190 127
Width: 700
GlyphClass: 2
Flags: W
LayerCount: 4
Fore
SplineSet
348 404 m 0,0,1
 293 404 293 404 255 411.5 c 128,-1,2
 217 419 217 419 193 435 c 0,3,4
 169 450 169 450 157.5 473.5 c 128,-1,5
 146 497 146 497 144 529 c 1,6,-1
 234 535 l 1,7,8
 236 517 236 517 241 506 c 128,-1,9
 246 495 246 495 258 488 c 256,10,11
 270 481 270 481 291.5 478 c 128,-1,12
 313 475 313 475 348 475 c 0,13,14
 382 475 382 475 403.5 477.5 c 128,-1,15
 425 480 425 480 438 486 c 0,16,17
 450 491 450 491 455 498.5 c 128,-1,18
 460 506 460 506 460 517 c 2,19,-1
 460 533 l 2,20,21
 460 544 460 544 455 551.5 c 128,-1,22
 450 559 450 559 438 565 c 0,23,24
 425 570 425 570 404 572.5 c 128,-1,25
 383 575 383 575 350 575 c 2,26,-1
 298 575 l 1,27,-1
 298 647 l 1,28,-1
 350 647 l 2,29,30
 378 647 378 647 396.5 649 c 128,-1,31
 415 651 415 651 426 656 c 0,32,33
 438 661 438 661 443 669.5 c 128,-1,34
 448 678 448 678 448 691 c 2,35,-1
 448 711 l 2,36,37
 448 719 448 719 441 725 c 128,-1,38
 434 731 434 731 420 735 c 0,39,40
 407 738 407 738 388 739.5 c 128,-1,41
 369 741 369 741 344 741 c 256,42,43
 319 741 319 741 301.5 738.5 c 128,-1,44
 284 736 284 736 272 730 c 0,45,46
 261 724 261 724 255 715 c 128,-1,47
 249 706 249 706 247 692 c 1,48,-1
 156 698 l 1,49,50
 158 729 158 729 170 750.5 c 128,-1,51
 182 772 182 772 205 786 c 0,52,53
 228 799 228 799 262.5 805.5 c 128,-1,54
 297 812 297 812 344 812 c 0,55,56
 388 812 388 812 423 807.5 c 128,-1,57
 458 803 458 803 484 792 c 256,58,59
 510 781 510 781 524 762.5 c 128,-1,60
 538 744 538 744 538 717 c 2,61,-1
 538 701 l 2,62,63
 538 684 538 684 531.5 670 c 128,-1,64
 525 656 525 656 512 646 c 0,65,66
 500 636 500 636 482.5 630 c 128,-1,67
 465 624 465 624 444 622 c 1,68,-1
 444 604 l 1,69,70
 468 602 468 602 487.5 596 c 128,-1,71
 507 590 507 590 521 580 c 0,72,73
 536 571 536 571 543.5 557.5 c 128,-1,74
 551 544 551 544 551 529 c 2,75,-1
 551 515 l 2,76,77
 551 486 551 486 539 465 c 128,-1,78
 527 444 527 444 502 431 c 0,79,80
 477 417 477 417 438.5 410.5 c 128,-1,81
 400 404 400 404 348 404 c 0,0,1
0 250 m 1,82,-1
 0 350 l 1,83,-1
 318 330 l 1,84,-1
 318 270 l 1,85,-1
 0 250 l 1,82,-1
396 270 m 1,86,-1
 396 330 l 1,87,-1
 700 350 l 1,88,-1
 700 250 l 1,89,-1
 396 270 l 1,86,-1
582 -114 m 1,90,-1
 489 -114 l 1,91,-1
 489 -210 l 1,92,-1
 398 -210 l 1,93,-1
 398 -114 l 1,94,-1
 144 -114 l 1,95,-1
 144 -44 l 1,96,-1
 370 216 l 1,97,-1
 489 216 l 1,98,-1
 489 -44 l 1,99,-1
 582 -44 l 1,100,-1
 582 -114 l 1,90,-1
223 -44 m 1,101,-1
 398 -44 l 1,102,-1
 398 154 l 1,103,-1
 223 -44 l 1,101,-1
EndSplineSet
EndChar

StartChar: questiondown
Encoding: 191 191 128
Width: 700
GlyphClass: 2
Flags: W
LayerCount: 4
Fore
SplineSet
395 810 m 0,0,1
 445 810 445 810 468 789.5 c 128,-1,2
 491 769 491 769 491 726 c 2,3,-1
 491 698 l 2,4,5
 491 654 491 654 468 633 c 128,-1,6
 445 612 445 612 395 612 c 256,7,8
 345 612 345 612 321.5 633 c 128,-1,9
 298 654 298 654 298 698 c 2,10,-1
 298 726 l 2,11,12
 298 769 298 769 322 789.5 c 128,-1,13
 346 810 346 810 395 810 c 0,0,1
430 487 m 1,14,-1
 450 406 l 1,15,16
 276 378 276 378 218 343 c 128,-1,17
 160 308 160 308 160 248 c 2,18,-1
 160 218 l 2,19,20
 160 159 160 159 195.5 119.5 c 128,-1,21
 231 80 231 80 350 80 c 0,22,23
 477 80 477 80 510 118 c 128,-1,24
 543 156 543 156 550 251 c 1,25,-1
 650 241 l 1,26,27
 643 101 643 101 579 45.5 c 128,-1,28
 515 -10 515 -10 351 -10 c 256,29,30
 187 -10 187 -10 123.5 52.5 c 128,-1,31
 60 115 60 115 60 206 c 2,32,-1
 60 252 l 2,33,34
 60 362 60 362 150 409.5 c 128,-1,35
 240 457 240 457 430 487 c 1,14,-1
EndSplineSet
EndChar

StartChar: AE
Encoding: 198 198 135
Width: 700
GlyphClass: 2
Flags: W
LayerCount: 4
Fore
SplineSet
296 720 m 1,0,-1
 176 310 l 1,1,-1
 360 310 l 1,2,-1
 360 720 l 1,3,-1
 296 720 l 1,0,-1
360 230 m 1,4,-1
 153 230 l 1,5,-1
 86 0 l 1,6,-1
 0 0 l 1,7,-1
 243 800 l 1,8,-1
 690 800 l 1,9,-1
 690 720 l 1,10,-1
 450 720 l 1,11,-1
 450 470 l 1,12,-1
 680 470 l 1,13,-1
 680 390 l 1,14,-1
 450 390 l 1,15,-1
 450 80 l 1,16,-1
 690 80 l 1,17,-1
 690 0 l 1,18,-1
 360 0 l 1,19,-1
 360 230 l 1,4,-1
EndSplineSet
EndChar

StartChar: Eth
Encoding: 208 208 145
Width: 700
GlyphClass: 2
Flags: W
LayerCount: 4
Fore
SplineSet
100 0 m 1,0,-1
 100 395 l 1,1,-1
 0 395 l 1,2,-1
 0 485 l 1,3,-1
 100 485 l 1,4,-1
 100 800 l 1,5,-1
 321 800 l 2,6,7
 461 800 461 800 540.5 720.5 c 128,-1,8
 620 641 620 641 620 509 c 2,9,-1
 620 287 l 2,10,11
 620 156 620 156 540 78 c 128,-1,12
 460 0 460 0 320 0 c 2,13,-1
 100 0 l 1,0,-1
200 90 m 1,14,-1
 320 90 l 2,15,16
 421 90 421 90 470.5 144.5 c 128,-1,17
 520 199 520 199 520 287 c 2,18,-1
 520 509 l 2,19,20
 520 596 520 596 470.5 653 c 128,-1,21
 421 710 421 710 320 710 c 2,22,-1
 200 710 l 1,23,-1
 200 485 l 1,24,-1
 350 485 l 1,25,-1
 350 395 l 1,26,-1
 200 395 l 1,27,-1
 200 90 l 1,14,-1
EndSplineSet
EndChar

StartChar: multiply
Encoding: 215 215 152
Width: 700
GlyphClass: 2
Flags: W
LayerCount: 4
Fore
SplineSet
134 46 m 1,0,-1
 71 109 l 1,1,-1
 287 350 l 1,2,-1
 71 591 l 1,3,-1
 134 654 l 1,4,-1
 350 413 l 1,5,-1
 566 649 l 1,6,-1
 629 586 l 1,7,-1
 413 350 l 1,8,-1
 629 114 l 1,9,-1
 566 51 l 1,10,-1
 350 287 l 1,11,-1
 134 46 l 1,0,-1
EndSplineSet
EndChar

StartChar: Oslash
Encoding: 216 216 153
Width: 700
GlyphClass: 2
Flags: W
LayerCount: 4
Fore
SplineSet
201 152 m 1,0,-1
 424 711 l 1,1,2
 408 715 408 715 390 717.5 c 128,-1,3
 372 720 372 720 350 720 c 0,4,5
 257 720 257 720 218.5 674.5 c 128,-1,6
 180 629 180 629 180 519 c 2,7,-1
 180 277 l 2,8,9
 180 237 180 237 185 206 c 128,-1,10
 190 175 190 175 201 152 c 1,0,-1
350 80 m 0,11,12
 443 80 443 80 481.5 125 c 128,-1,13
 520 170 520 170 520 277 c 2,14,-1
 520 519 l 2,15,16
 520 570 520 570 512 607 c 128,-1,17
 504 644 504 644 487 668 c 1,18,-1
 259 95 l 1,19,20
 277 88 277 88 299.5 84 c 128,-1,21
 322 80 322 80 350 80 c 0,11,12
350 -10 m 0,22,23
 317 -10 317 -10 288 -5.5 c 128,-1,24
 259 -1 259 -1 234 9 c 1,25,-1
 190 -100 l 1,26,-1
 90 -100 l 1,27,-1
 153 59 l 1,28,29
 117 95 117 95 98.5 150 c 128,-1,30
 80 205 80 205 80 277 c 2,31,-1
 80 519 l 2,32,33
 80 661 80 661 149.5 735.5 c 128,-1,34
 219 810 219 810 351 810 c 0,35,36
 378 810 378 810 402.5 807 c 128,-1,37
 427 804 427 804 449 797 c 1,38,-1
 490 900 l 1,39,-1
 590 900 l 1,40,-1
 531 754 l 1,41,42
 575 718 575 718 597.5 659 c 128,-1,43
 620 600 620 600 620 519 c 2,44,-1
 620 277 l 2,45,46
 620 137 620 137 550.5 63.5 c 128,-1,47
 481 -10 481 -10 350 -10 c 0,22,23
EndSplineSet
EndChar

StartChar: Thorn
Encoding: 222 222 159
Width: 700
GlyphClass: 2
Flags: W
LayerCount: 4
Fore
SplineSet
100 0 m 1,0,-1
 100 800 l 1,1,-1
 200 800 l 1,2,-1
 200 670 l 1,3,-1
 381 670 l 2,4,5
 505 670 505 670 567.5 616.5 c 128,-1,6
 630 563 630 563 630 459 c 2,7,-1
 630 367 l 2,8,9
 630 260 630 260 567 205 c 128,-1,10
 504 150 504 150 380 150 c 2,11,-1
 200 150 l 1,12,-1
 200 0 l 1,13,-1
 100 0 l 1,0,-1
200 238 m 1,14,-1
 380 238 l 2,15,16
 461 238 461 238 495.5 267.5 c 128,-1,17
 530 297 530 297 530 367 c 2,18,-1
 530 459 l 2,19,20
 530 525 530 525 495.5 552.5 c 128,-1,21
 461 580 461 580 380 580 c 2,22,-1
 200 580 l 1,23,-1
 200 238 l 1,14,-1
EndSplineSet
EndChar

StartChar: germandbls
Encoding: 223 223 160
Width: 700
GlyphClass: 2
Flags: W
LayerCount: 4
Fore
SplineSet
457 -6 m 0,0,1
 394 -6 394 -6 335 16.5 c 128,-1,2
 276 39 276 39 236 81 c 1,3,-1
 291 160 l 1,4,5
 325 129 325 129 370.5 106.5 c 128,-1,6
 416 84 416 84 466 84 c 0,7,8
 510 84 510 84 545.5 101.5 c 128,-1,9
 581 119 581 119 581 164 c 0,10,11
 581 211 581 211 549.5 229 c 128,-1,12
 518 247 518 247 452 259 c 0,13,14
 347 278 347 278 296.5 320 c 128,-1,15
 246 362 246 362 246 430 c 0,16,17
 246 509 246 509 309 557.5 c 128,-1,18
 372 606 372 606 462 607 c 1,19,20
 453 664 453 664 409.5 688 c 128,-1,21
 366 712 366 712 305 712 c 0,22,23
 246 712 246 712 198 678 c 128,-1,24
 150 644 150 644 150 563 c 2,25,-1
 150 0 l 1,26,-1
 50 0 l 1,27,-1
 50 576 l 2,28,29
 50 694 50 694 127.5 751 c 128,-1,30
 205 808 205 808 306 808 c 0,31,32
 422 808 422 808 492.5 743.5 c 128,-1,33
 563 679 563 679 563 578 c 2,34,-1
 563 532 l 1,35,36
 465 532 465 532 405 513.5 c 128,-1,37
 345 495 345 495 345 441 c 0,38,39
 345 398 345 398 385 381 c 128,-1,40
 425 364 425 364 499 351 c 0,41,42
 592 335 592 335 636.5 291 c 128,-1,43
 681 247 681 247 681 173 c 0,44,45
 681 78 681 78 612.5 36 c 128,-1,46
 544 -6 544 -6 457 -6 c 0,0,1
EndSplineSet
EndChar

StartChar: ae
Encoding: 230 230 167
Width: 700
GlyphClass: 2
Flags: W
LayerCount: 4
Fore
SplineSet
671 144 m 1,0,1
 661 65 661 65 620.5 27.5 c 128,-1,2
 580 -10 580 -10 496 -10 c 0,3,4
 440 -10 440 -10 400 12 c 128,-1,5
 360 34 360 34 340 80 c 1,6,-1
 324 80 l 1,7,8
 301 41 301 41 267 15.5 c 128,-1,9
 233 -10 233 -10 178 -10 c 0,10,11
 126 -10 126 -10 78 30.5 c 128,-1,12
 30 71 30 71 30 161 c 0,13,14
 30 241 30 241 77 285.5 c 128,-1,15
 124 330 124 330 187 330 c 2,16,-1
 310 330 l 1,17,-1
 310 416 l 2,18,19
 310 468 310 468 286 499 c 128,-1,20
 262 530 262 530 216 530 c 0,21,22
 174 530 174 530 156 512 c 128,-1,23
 138 494 138 494 121 434 c 1,24,-1
 43 458 l 1,25,26
 57 530 57 530 99 570 c 128,-1,27
 141 610 141 610 224 610 c 0,28,29
 265 610 265 610 298.5 593.5 c 128,-1,30
 332 577 332 577 353 543 c 1,31,32
 375 577 375 577 409 593.5 c 128,-1,33
 443 610 443 610 486 610 c 0,34,35
 570 610 570 610 620 560.5 c 128,-1,36
 670 511 670 511 670 407 c 2,37,-1
 670 280 l 1,38,-1
 390 280 l 1,39,-1
 390 182 l 2,40,41
 390 120 390 120 413 92.5 c 128,-1,42
 436 65 436 65 485 65 c 256,43,44
 534 65 534 65 554 83 c 128,-1,45
 574 101 574 101 582 152 c 1,46,-1
 671 144 l 1,0,1
390 414 m 2,47,-1
 390 345 l 1,48,-1
 580 345 l 1,49,-1
 580 405 l 2,50,51
 580 473 580 473 556.5 504 c 128,-1,52
 533 535 533 535 485 535 c 0,53,54
 439 535 439 535 414.5 505.5 c 128,-1,55
 390 476 390 476 390 414 c 2,47,-1
310 139 m 1,56,-1
 310 265 l 1,57,-1
 215 265 l 2,58,59
 174 265 174 265 147 243.5 c 128,-1,60
 120 222 120 222 120 167 c 0,61,62
 120 119 120 119 137.5 92.5 c 128,-1,63
 155 66 155 66 198 66 c 0,64,65
 232 66 232 66 258.5 85.5 c 128,-1,66
 285 105 285 105 310 139 c 1,56,-1
EndSplineSet
EndChar

StartChar: eth
Encoding: 240 240 177
Width: 700
GlyphClass: 2
Flags: W
LayerCount: 4
Fore
SplineSet
350 -10 m 256,0,1
 238 -10 238 -10 169 47 c 128,-1,2
 100 104 100 104 100 220 c 2,3,-1
 100 292 l 2,4,5
 100 388 100 388 163.5 444 c 128,-1,6
 227 500 227 500 328 500 c 0,7,8
 391 500 391 500 431 478 c 128,-1,9
 471 456 471 456 487 426 c 1,10,-1
 509 426 l 1,11,12
 505 490 505 490 489 540 c 128,-1,13
 473 590 473 590 443 627 c 1,14,-1
 250 540 l 1,15,-1
 250 620 l 1,16,-1
 384 680 l 1,17,18
 351 702 351 702 307 720 c 128,-1,19
 263 738 263 738 209 752 c 1,20,-1
 235 821 l 1,21,22
 310 801 310 801 367 775 c 128,-1,23
 424 749 424 749 465 717 c 1,24,-1
 650 800 l 1,25,-1
 650 720 l 1,26,-1
 521 662 l 1,27,28
 564 608 564 608 582 537.5 c 128,-1,29
 600 467 600 467 600 377 c 2,30,-1
 600 226 l 2,31,32
 600 103 600 103 531 46.5 c 128,-1,33
 462 -10 462 -10 350 -10 c 256,0,1
351 80 m 256,34,35
 432 80 432 80 466 114.5 c 128,-1,36
 500 149 500 149 500 218 c 2,37,-1
 500 281 l 2,38,39
 500 345 500 345 466 377 c 128,-1,40
 432 409 432 409 351 409 c 256,41,42
 270 409 270 409 236 377 c 128,-1,43
 202 345 202 345 202 281 c 2,44,-1
 202 218 l 2,45,46
 202 149 202 149 236 114.5 c 128,-1,47
 270 80 270 80 351 80 c 256,34,35
EndSplineSet
EndChar

StartChar: divide
Encoding: 247 247 184
Width: 700
GlyphClass: 2
Flags: W
LayerCount: 4
Fore
SplineSet
350 526 m 0,0,1
 312 526 312 526 288 541.5 c 128,-1,2
 264 557 264 557 264 590 c 2,3,-1
 264 607 l 2,4,5
 264 641 264 641 288 657 c 128,-1,6
 312 673 312 673 350 673 c 256,7,8
 388 673 388 673 411.5 657 c 128,-1,9
 435 641 435 641 435 607 c 2,10,-1
 435 590 l 2,11,12
 435 557 435 557 411 541.5 c 128,-1,13
 387 526 387 526 350 526 c 0,0,1
70 300 m 1,14,-1
 70 400 l 1,15,-1
 630 400 l 1,16,-1
 630 300 l 1,17,-1
 70 300 l 1,14,-1
350 26 m 0,18,19
 312 26 312 26 288 41.5 c 128,-1,20
 264 57 264 57 264 90 c 2,21,-1
 264 107 l 2,22,23
 264 141 264 141 288 157 c 128,-1,24
 312 173 312 173 350 173 c 256,25,26
 388 173 388 173 411.5 157 c 128,-1,27
 435 141 435 141 435 107 c 2,28,-1
 435 90 l 2,29,30
 435 57 435 57 411 41.5 c 128,-1,31
 387 26 387 26 350 26 c 0,18,19
EndSplineSet
EndChar

StartChar: oslash
Encoding: 248 248 185
Width: 700
GlyphClass: 2
Flags: W
LayerCount: 4
Fore
SplineSet
200 217 m 2,0,1
 200 188 200 188 206 165 c 128,-1,2
 212 142 212 142 224 126 c 1,3,-1
 416 512 l 1,4,5
 402 516 402 516 385.5 518 c 128,-1,6
 369 520 369 520 350 520 c 0,7,8
 272 520 272 520 236 486 c 128,-1,9
 200 452 200 452 200 379 c 2,10,-1
 200 217 l 2,0,1
350 80 m 0,11,12
 428 80 428 80 464 113 c 128,-1,13
 500 146 500 146 500 217 c 2,14,-1
 500 379 l 2,15,16
 500 409 500 409 494 432.5 c 128,-1,17
 488 456 488 456 476 472 c 1,18,-1
 283 88 l 1,19,20
 297 84 297 84 314 82 c 128,-1,21
 331 80 331 80 350 80 c 0,11,12
350 -10 m 0,22,23
 323 -10 323 -10 298 -7 c 128,-1,24
 273 -4 273 -4 251 3 c 1,25,-1
 200 -100 l 1,26,-1
 100 -100 l 1,27,-1
 172 43 l 1,28,29
 138 71 138 71 119 114.5 c 128,-1,30
 100 158 100 158 100 217 c 2,31,-1
 100 379 l 2,32,33
 100 496 100 496 169.5 553 c 128,-1,34
 239 610 239 610 351 610 c 0,35,36
 378 610 378 610 402.5 607 c 128,-1,37
 427 604 427 604 449 597 c 1,38,-1
 500 700 l 1,39,-1
 600 700 l 1,40,-1
 528 557 l 1,41,42
 562 529 562 529 581 484 c 128,-1,43
 600 439 600 439 600 379 c 2,44,-1
 600 217 l 2,45,46
 600 101 600 101 531 45.5 c 128,-1,47
 462 -10 462 -10 350 -10 c 0,22,23
EndSplineSet
EndChar

StartChar: thorn
Encoding: 254 254 191
Width: 700
GlyphClass: 2
Flags: W
LayerCount: 4
Fore
SplineSet
341 78 m 0,0,1
 423 78 423 78 461.5 112.5 c 128,-1,2
 500 147 500 147 500 221 c 2,3,-1
 500 383 l 2,4,5
 500 452 500 452 471 483.5 c 128,-1,6
 442 515 442 515 380 515 c 0,7,8
 331 515 331 515 287 489.5 c 128,-1,9
 243 464 243 464 200 410 c 1,10,-1
 200 116 l 1,11,12
 233 97 233 97 267 87.5 c 128,-1,13
 301 78 301 78 341 78 c 0,0,1
342 -10 m 0,14,15
 307 -10 307 -10 269 -2.5 c 128,-1,16
 231 5 231 5 200 18 c 1,17,-1
 200 -200 l 1,18,-1
 100 -200 l 1,19,-1
 100 800 l 1,20,-1
 200 800 l 1,21,-1
 200 500 l 1,22,-1
 230 500 l 1,23,24
 255 551 255 551 302.5 580.5 c 128,-1,25
 350 610 350 610 405 610 c 0,26,27
 495 610 495 610 547.5 548.5 c 128,-1,28
 600 487 600 487 600 382 c 2,29,-1
 600 219 l 2,30,31
 600 114 600 114 530.5 52 c 128,-1,32
 461 -10 461 -10 342 -10 c 0,14,15
EndSplineSet
EndChar

StartChar: Dcroat
Encoding: 272 272 209
Width: 700
GlyphClass: 2
Flags: W
LayerCount: 4
Fore
SplineSet
100 0 m 1,0,-1
 100 395 l 1,1,-1
 0 395 l 1,2,-1
 0 485 l 1,3,-1
 100 485 l 1,4,-1
 100 800 l 1,5,-1
 321 800 l 2,6,7
 461 800 461 800 540.5 720.5 c 128,-1,8
 620 641 620 641 620 509 c 2,9,-1
 620 287 l 2,10,11
 620 156 620 156 540 78 c 128,-1,12
 460 0 460 0 320 0 c 2,13,-1
 100 0 l 1,0,-1
200 90 m 1,14,-1
 320 90 l 2,15,16
 421 90 421 90 470.5 144.5 c 128,-1,17
 520 199 520 199 520 287 c 2,18,-1
 520 509 l 2,19,20
 520 596 520 596 470.5 653 c 128,-1,21
 421 710 421 710 320 710 c 2,22,-1
 200 710 l 1,23,-1
 200 485 l 1,24,-1
 350 485 l 1,25,-1
 350 395 l 1,26,-1
 200 395 l 1,27,-1
 200 90 l 1,14,-1
EndSplineSet
EndChar

StartChar: dcroat
Encoding: 273 273 210
Width: 700
GlyphClass: 2
Flags: W
LayerCount: 4
Fore
SplineSet
320 85 m 0,0,1
 369 85 369 85 413 110.5 c 128,-1,2
 457 136 457 136 500 190 c 1,3,-1
 500 434 l 1,4,5
 469 453 469 453 435 462.5 c 128,-1,6
 401 472 401 472 359 472 c 0,7,8
 278 472 278 472 240 437.5 c 128,-1,9
 202 403 202 403 202 329 c 2,10,-1
 202 228 l 2,11,12
 202 154 202 154 230.5 119.5 c 128,-1,13
 259 85 259 85 320 85 c 0,0,1
470 100 m 1,14,15
 445 49 445 49 397.5 19.5 c 128,-1,16
 350 -10 350 -10 295 -10 c 0,17,18
 205 -10 205 -10 152.5 51.5 c 128,-1,19
 100 113 100 113 100 218 c 2,20,-1
 100 331 l 2,21,22
 100 436 100 436 169.5 498 c 128,-1,23
 239 560 239 560 358 560 c 0,24,25
 392 560 392 560 429.5 552 c 128,-1,26
 467 544 467 544 500 531 c 1,27,-1
 500 630 l 1,28,-1
 300 630 l 1,29,-1
 300 710 l 1,30,-1
 500 710 l 1,31,-1
 500 800 l 1,32,-1
 600 800 l 1,33,-1
 600 710 l 1,34,-1
 700 710 l 1,35,-1
 700 630 l 1,36,-1
 600 630 l 1,37,-1
 600 0 l 1,38,-1
 500 0 l 1,39,-1
 500 100 l 1,40,-1
 470 100 l 1,14,15
EndSplineSet
EndChar

StartChar: Hbar
Encoding: 294 294 231
Width: 700
GlyphClass: 2
Flags: W
LayerCount: 4
Fore
SplineSet
200 430 m 1,0,-1
 500 430 l 1,1,-1
 500 560 l 1,2,-1
 200 560 l 1,3,-1
 200 430 l 1,0,-1
200 340 m 1,4,-1
 200 0 l 1,5,-1
 100 0 l 1,6,-1
 100 560 l 1,7,-1
 0 560 l 1,8,-1
 0 650 l 1,9,-1
 100 650 l 1,10,-1
 100 800 l 1,11,-1
 200 800 l 1,12,-1
 200 650 l 1,13,-1
 500 650 l 1,14,-1
 500 800 l 1,15,-1
 600 800 l 1,16,-1
 600 650 l 1,17,-1
 700 650 l 1,18,-1
 700 560 l 1,19,-1
 600 560 l 1,20,-1
 600 0 l 1,21,-1
 500 0 l 1,22,-1
 500 340 l 1,23,-1
 200 340 l 1,4,-1
EndSplineSet
EndChar

StartChar: hbar
Encoding: 295 295 232
Width: 700
GlyphClass: 2
Flags: W
LayerCount: 4
Fore
SplineSet
200 360 m 1,0,-1
 200 0 l 1,1,-1
 100 0 l 1,2,-1
 100 630 l 1,3,-1
 0 630 l 1,4,-1
 0 710 l 1,5,-1
 100 710 l 1,6,-1
 100 800 l 1,7,-1
 200 800 l 1,8,-1
 200 710 l 1,9,-1
 400 710 l 1,10,-1
 400 630 l 1,11,-1
 200 630 l 1,12,-1
 200 450 l 1,13,-1
 230 450 l 1,14,15
 252 501 252 501 301.5 530.5 c 128,-1,16
 351 560 351 560 414 560 c 0,17,18
 500 560 500 560 550 511 c 128,-1,19
 600 462 600 462 600 378 c 2,20,-1
 600 0 l 1,21,-1
 500 0 l 1,22,-1
 500 354 l 2,23,24
 500 410 500 410 471 437.5 c 128,-1,25
 442 465 442 465 382 465 c 0,26,27
 336 465 336 465 291 439 c 128,-1,28
 246 413 246 413 200 360 c 1,0,-1
EndSplineSet
EndChar

StartChar: dotlessi.salt_serifs
Encoding: 57380 57380 242
AltUni2: 000131.ffffffff.0
Width: 700
GlyphClass: 2
Flags: W
LayerCount: 4
Fore
SplineSet
400 90 m 1,0,-1
 620 90 l 1,1,-1
 620 0 l 1,2,-1
 300 0 l 1,3,-1
 300 510 l 1,4,-1
 80 510 l 1,5,-1
 80 600 l 1,6,-1
 400 600 l 1,7,-1
 400 90 l 1,0,-1
EndSplineSet
EndChar

StartChar: IJ
Encoding: 306 306 243
Width: 700
GlyphClass: 2
Flags: W
LayerCount: 4
Fore
SplineSet
160 0 m 1,0,-1
 60 0 l 1,1,-1
 60 800 l 1,2,-1
 160 800 l 1,3,-1
 160 0 l 1,0,-1
440 -10 m 0,4,5
 353 -10 353 -10 300.5 47 c 128,-1,6
 248 104 248 104 241 257 c 1,7,-1
 341 268 l 1,8,9
 348 156 348 156 367 118 c 128,-1,10
 386 80 386 80 441 80 c 0,11,12
 500 80 500 80 520.5 126.5 c 128,-1,13
 541 173 541 173 541 239 c 2,14,-1
 541 710 l 1,15,-1
 351 710 l 1,16,-1
 351 800 l 1,17,-1
 641 800 l 1,18,-1
 641 240 l 2,19,20
 641 124 641 124 592.5 57 c 128,-1,21
 544 -10 544 -10 440 -10 c 0,4,5
EndSplineSet
EndChar

StartChar: Lslash
Encoding: 321 321 258
Width: 700
GlyphClass: 2
Flags: W
LayerCount: 4
Fore
SplineSet
150 0 m 1,0,-1
 150 361 l 1,1,-1
 50 330 l 1,2,-1
 50 410 l 1,3,-1
 150 441 l 1,4,-1
 150 800 l 1,5,-1
 250 800 l 1,6,-1
 250 472 l 1,7,-1
 500 550 l 1,8,-1
 500 470 l 1,9,-1
 250 392 l 1,10,-1
 250 90 l 1,11,-1
 600 90 l 1,12,-1
 600 0 l 1,13,-1
 150 0 l 1,0,-1
EndSplineSet
EndChar

StartChar: lslash.salt_serifs
Encoding: 57397 57397 259
AltUni2: 000142.ffffffff.0
Width: 700
GlyphClass: 2
Flags: W
LayerCount: 4
Fore
SplineSet
400 90 m 1,0,-1
 620 90 l 1,1,-1
 620 0 l 1,2,-1
 300 0 l 1,3,-1
 300 351 l 1,4,-1
 150 310 l 1,5,-1
 150 390 l 1,6,-1
 300 431 l 1,7,-1
 300 710 l 1,8,-1
 80 710 l 1,9,-1
 80 800 l 1,10,-1
 400 800 l 1,11,-1
 400 458 l 1,12,-1
 550 500 l 1,13,-1
 550 420 l 1,14,-1
 400 378 l 1,15,-1
 400 90 l 1,0,-1
EndSplineSet
EndChar

StartChar: Eng
Encoding: 330 330 267
Width: 700
GlyphClass: 2
Flags: W
LayerCount: 4
Fore
SplineSet
368 -208 m 0,0,1
 332 -208 332 -208 293.5 -198.5 c 128,-1,2
 255 -189 255 -189 211 -176 c 1,3,-1
 231 -80 l 1,4,5
 271 -95 271 -95 303 -103.5 c 128,-1,6
 335 -112 335 -112 365 -112 c 0,7,8
 425 -112 425 -112 462.5 -73 c 128,-1,9
 500 -34 500 -34 500 57 c 2,10,-1
 500 574 l 2,11,12
 500 650 500 650 465.5 682.5 c 128,-1,13
 431 715 431 715 382 715 c 0,14,15
 324 715 324 715 286.5 681 c 128,-1,16
 249 647 249 647 200 590 c 1,17,-1
 200 0 l 1,18,-1
 100 0 l 1,19,-1
 100 800 l 1,20,-1
 200 800 l 1,21,-1
 200 680 l 1,22,-1
 230 680 l 1,23,24
 256 740 256 740 305 775 c 128,-1,25
 354 810 354 810 414 810 c 0,26,27
 501 810 501 810 550.5 753.5 c 128,-1,28
 600 697 600 697 600 598 c 2,29,-1
 600 44 l 2,30,31
 600 -84 600 -84 533.5 -146 c 128,-1,32
 467 -208 467 -208 368 -208 c 0,0,1
EndSplineSet
EndChar

StartChar: eng
Encoding: 331 331 268
Width: 700
GlyphClass: 2
Flags: W
LayerCount: 4
Fore
SplineSet
398 -208 m 0,0,1
 369 -208 369 -208 337 -202 c 128,-1,2
 305 -196 305 -196 271 -186 c 1,3,-1
 291 -90 l 1,4,5
 319 -100 319 -100 345.5 -106 c 128,-1,6
 372 -112 372 -112 395 -112 c 0,7,8
 442 -112 442 -112 471 -84.5 c 128,-1,9
 500 -57 500 -57 500 7 c 2,10,-1
 500 404 l 2,11,12
 500 460 500 460 471 487.5 c 128,-1,13
 442 515 442 515 382 515 c 0,14,15
 336 515 336 515 291 489 c 128,-1,16
 246 463 246 463 200 410 c 1,17,-1
 200 0 l 1,18,-1
 100 0 l 1,19,-1
 100 600 l 1,20,-1
 200 600 l 1,21,-1
 200 500 l 1,22,-1
 230 500 l 1,23,24
 252 551 252 551 301.5 580.5 c 128,-1,25
 351 610 351 610 414 610 c 0,26,27
 500 610 500 610 550 561 c 128,-1,28
 600 512 600 512 600 428 c 2,29,-1
 600 -6 l 2,30,31
 600 -109 600 -109 542.5 -158.5 c 128,-1,32
 485 -208 485 -208 398 -208 c 0,0,1
EndSplineSet
EndChar

StartChar: OE
Encoding: 338 338 275
Width: 700
GlyphClass: 2
Flags: W
LayerCount: 4
Fore
SplineSet
270 0 m 2,0,1
 148 0 148 0 79 78 c 128,-1,2
 10 156 10 156 10 287 c 2,3,-1
 10 509 l 2,4,5
 10 641 10 641 78.5 720.5 c 128,-1,6
 147 800 147 800 269 800 c 2,7,-1
 700 800 l 1,8,-1
 700 720 l 1,9,-1
 450 720 l 1,10,-1
 450 480 l 1,11,-1
 700 480 l 1,12,-1
 700 400 l 1,13,-1
 450 400 l 1,14,-1
 450 80 l 1,15,-1
 700 80 l 1,16,-1
 700 0 l 1,17,-1
 270 0 l 2,0,1
270 80 m 2,18,-1
 360 80 l 1,19,-1
 360 720 l 1,20,-1
 270 720 l 2,21,22
 183 720 183 720 141.5 660.5 c 128,-1,23
 100 601 100 601 100 509 c 2,24,-1
 100 287 l 2,25,26
 100 194 100 194 141.5 137 c 128,-1,27
 183 80 183 80 270 80 c 2,18,-1
EndSplineSet
EndChar

StartChar: oe
Encoding: 339 339 276
Width: 700
GlyphClass: 2
Flags: W
LayerCount: 4
Fore
SplineSet
671 134 m 1,0,1
 661 60 661 60 620.5 25 c 128,-1,2
 580 -10 580 -10 496 -10 c 0,3,4
 444 -10 444 -10 406 9 c 128,-1,5
 368 28 368 28 347 67 c 1,6,7
 324 28 324 28 287.5 9 c 128,-1,8
 251 -10 251 -10 205 -10 c 0,9,10
 127 -10 127 -10 78.5 45.5 c 128,-1,11
 30 101 30 101 30 217 c 2,12,-1
 30 379 l 2,13,14
 30 496 30 496 79 553 c 128,-1,15
 128 610 128 610 206 610 c 0,16,17
 252 610 252 610 288 591 c 128,-1,18
 324 572 324 572 346 533 c 1,19,20
 368 572 368 572 404 591 c 128,-1,21
 440 610 440 610 486 610 c 0,22,23
 570 610 570 610 620 560.5 c 128,-1,24
 670 511 670 511 670 407 c 2,25,-1
 670 280 l 1,26,-1
 390 280 l 1,27,-1
 390 182 l 2,28,29
 390 120 390 120 413 92.5 c 128,-1,30
 436 65 436 65 485 65 c 256,31,32
 534 65 534 65 554.5 80.5 c 128,-1,33
 575 96 575 96 582 142 c 1,34,-1
 671 134 l 1,0,1
390 414 m 2,35,-1
 390 345 l 1,36,-1
 580 345 l 1,37,-1
 580 405 l 2,38,39
 580 473 580 473 556.5 504 c 128,-1,40
 533 535 533 535 485 535 c 0,41,42
 438 535 438 535 414 505.5 c 128,-1,43
 390 476 390 476 390 414 c 2,35,-1
215 70 m 0,44,45
 263 70 263 70 286.5 104.5 c 128,-1,46
 310 139 310 139 310 217 c 2,47,-1
 310 379 l 2,48,49
 310 457 310 457 286.5 493.5 c 128,-1,50
 263 530 263 530 215 530 c 0,51,52
 168 530 168 530 144 493.5 c 128,-1,53
 120 457 120 457 120 379 c 2,54,-1
 120 217 l 2,55,56
 120 139 120 139 144 104.5 c 128,-1,57
 168 70 168 70 215 70 c 0,44,45
EndSplineSet
EndChar

StartChar: Tbar
Encoding: 358 358 295
Width: 700
GlyphClass: 2
Flags: W
LayerCount: 4
Fore
SplineSet
300 0 m 1,0,-1
 300 310 l 1,1,-1
 100 310 l 1,2,-1
 100 400 l 1,3,-1
 300 400 l 1,4,-1
 300 710 l 1,5,-1
 50 710 l 1,6,-1
 50 800 l 1,7,-1
 650 800 l 1,8,-1
 650 710 l 1,9,-1
 400 710 l 1,10,-1
 400 400 l 1,11,-1
 600 400 l 1,12,-1
 600 310 l 1,13,-1
 400 310 l 1,14,-1
 400 0 l 1,15,-1
 300 0 l 1,0,-1
EndSplineSet
EndChar

StartChar: tbar
Encoding: 359 359 296
Width: 700
GlyphClass: 2
Flags: W
LayerCount: 4
Fore
SplineSet
449 -9 m 0,0,1
 350 -9 350 -9 295 40 c 128,-1,2
 240 89 240 89 240 190 c 2,3,-1
 240 280 l 1,4,-1
 110 280 l 1,5,-1
 110 370 l 1,6,-1
 240 370 l 1,7,-1
 240 510 l 1,8,-1
 70 510 l 1,9,-1
 70 600 l 1,10,-1
 240 600 l 1,11,-1
 240 800 l 1,12,-1
 340 800 l 1,13,-1
 340 600 l 1,14,-1
 600 600 l 1,15,-1
 600 510 l 1,16,-1
 340 510 l 1,17,-1
 340 370 l 1,18,-1
 570 370 l 1,19,-1
 570 280 l 1,20,-1
 340 280 l 1,21,-1
 340 199 l 2,22,23
 340 141 340 141 369 113 c 128,-1,24
 398 85 398 85 455 85 c 0,25,26
 493 85 493 85 526 90.5 c 128,-1,27
 559 96 559 96 589 105 c 1,28,-1
 609 14 l 1,29,30
 575 4 575 4 536.5 -2.5 c 128,-1,31
 498 -9 498 -9 449 -9 c 0,0,1
EndSplineSet
EndChar

StartChar: longs
Encoding: 383 383 320
Width: 700
GlyphClass: 2
Flags: W
LayerCount: 4
Fore
SplineSet
300 0 m 1,0,-1
 300 510 l 1,1,-1
 180 510 l 1,2,-1
 180 600 l 1,3,-1
 300 600 l 1,4,-1
 300 640 l 2,5,6
 300 721 300 721 354 765.5 c 128,-1,7
 408 810 408 810 481 810 c 0,8,9
 510 810 510 810 547 802 c 128,-1,10
 584 794 584 794 609 784 c 1,11,-1
 589 700 l 1,12,13
 568 708 568 708 542.5 714 c 128,-1,14
 517 720 517 720 491 720 c 0,15,16
 449 720 449 720 424.5 701.5 c 128,-1,17
 400 683 400 683 400 641 c 2,18,-1
 400 0 l 1,19,-1
 300 0 l 1,0,-1
EndSplineSet
EndChar

StartChar: florin
Encoding: 402 402 321
Width: 700
GlyphClass: 2
Flags: W
LayerCount: 4
Fore
SplineSet
219 -6 m 0,0,1
 203 -6 203 -6 183 -4.5 c 128,-1,2
 163 -3 163 -3 142 0 c 0,3,4
 122 3 122 3 103 7.5 c 128,-1,5
 84 12 84 12 71 18 c 1,6,-1
 91 104 l 1,7,8
 105 99 105 99 120 95 c 128,-1,9
 135 91 135 91 149 88 c 0,10,11
 162 86 162 86 175 85 c 128,-1,12
 188 84 188 84 199 84 c 0,13,14
 228 84 228 84 247 89.5 c 128,-1,15
 266 95 266 95 278 107 c 256,16,17
 290 119 290 119 295 139 c 128,-1,18
 300 159 300 159 300 190 c 2,19,-1
 300 410 l 1,20,-1
 90 410 l 1,21,-1
 90 500 l 1,22,-1
 300 500 l 1,23,-1
 300 640 l 2,24,25
 300 678 300 678 313 709.5 c 128,-1,26
 326 741 326 741 350 763 c 0,27,28
 374 786 374 786 407.5 798 c 128,-1,29
 441 810 441 810 481 810 c 0,30,31
 497 810 497 810 517 808.5 c 128,-1,32
 537 807 537 807 558 804 c 0,33,34
 578 801 578 801 597 796.5 c 128,-1,35
 616 792 616 792 629 786 c 1,36,-1
 609 700 l 1,37,38
 595 705 595 705 580 709 c 128,-1,39
 565 713 565 713 551 716 c 0,40,41
 538 718 538 718 525 719 c 128,-1,42
 512 720 512 720 501 720 c 0,43,44
 472 720 472 720 453 714.5 c 128,-1,45
 434 709 434 709 422 697 c 0,46,47
 411 684 411 684 405.5 664 c 128,-1,48
 400 644 400 644 400 614 c 2,49,-1
 400 500 l 1,50,-1
 620 500 l 1,51,-1
 620 410 l 1,52,-1
 400 410 l 1,53,-1
 400 164 l 2,54,55
 400 125 400 125 387.5 93.5 c 128,-1,56
 375 62 375 62 351 40 c 256,57,58
 327 18 327 18 293.5 6 c 128,-1,59
 260 -6 260 -6 219 -6 c 0,0,1
EndSplineSet
EndChar

StartChar: dotlessj
Encoding: 63166 63166 332
AltUni2: 000237.ffffffff.0
Width: 700
GlyphClass: 2
Flags: W
LayerCount: 4
Fore
SplineSet
258 -208 m 0,0,1
 220 -208 220 -208 182 -203.5 c 128,-1,2
 144 -199 144 -199 101 -186 c 1,3,-1
 121 -90 l 1,4,5
 158 -103 158 -103 190.5 -107.5 c 128,-1,6
 223 -112 223 -112 255 -112 c 0,7,8
 320 -112 320 -112 360 -84.5 c 128,-1,9
 400 -57 400 -57 400 7 c 2,10,-1
 400 510 l 1,11,-1
 120 510 l 1,12,-1
 120 600 l 1,13,-1
 500 600 l 1,14,-1
 500 -6 l 2,15,16
 500 -109 500 -109 430.5 -158.5 c 128,-1,17
 361 -208 361 -208 258 -208 c 0,0,1
EndSplineSet
EndChar

StartChar: quoteleft
Encoding: 8216 8216 333
AltUni2: 0002bb.ffffffff.0
Width: 700
GlyphClass: 2
Flags: W
LayerCount: 4
Fore
SplineSet
201 400 m 1,0,-1
 426 800 l 1,1,-1
 510 800 l 1,2,-1
 400 400 l 1,3,-1
 201 400 l 1,0,-1
EndSplineSet
EndChar

StartChar: gravecmb
Encoding: 768 768 342
Width: 0
GlyphClass: 2
Flags: W
LayerCount: 4
Fore
SplineSet
1 700 m 1,0,-1
 -194 900 l 1,1,-1
 -44 900 l 1,2,-1
 92 700 l 1,3,-1
 1 700 l 1,0,-1
EndSplineSet
EndChar

StartChar: acutecmb
Encoding: 769 769 343
Width: 0
GlyphClass: 2
Flags: W
LayerCount: 4
Fore
SplineSet
-114 700 m 1,0,-1
 22 900 l 1,1,-1
 172 900 l 1,2,-1
 -23 700 l 1,3,-1
 -114 700 l 1,0,-1
EndSplineSet
EndChar

StartChar: circumflexcmb
Encoding: 770 770 344
Width: 0
GlyphClass: 2
Flags: W
LayerCount: 4
Fore
SplineSet
-173 704 m 1,0,-1
 -211 768 l 1,1,-1
 -37 917 l 1,2,-1
 35 917 l 1,3,-1
 211 768 l 1,4,-1
 173 704 l 1,5,-1
 -1 820 l 1,6,-1
 -173 704 l 1,0,-1
EndSplineSet
EndChar

StartChar: tildecmb
Encoding: 771 771 345
Width: 0
GlyphClass: 2
Flags: W
LayerCount: 4
Fore
SplineSet
79 710 m 0,0,1
 45 710 45 710 21.5 728 c 128,-1,2
 -2 746 -2 746 -20 768 c 0,3,4
 -38 789 -38 789 -53.5 807 c 128,-1,5
 -69 825 -69 825 -87 825 c 0,6,7
 -106 825 -106 825 -120 806.5 c 128,-1,8
 -134 788 -134 788 -133 731 c 2,9,-1
 -133 720 l 1,10,-1
 -210 720 l 1,11,-1
 -210 735 l 2,12,13
 -210 810 -210 810 -176 860 c 128,-1,14
 -142 910 -142 910 -79 910 c 0,15,16
 -41 910 -41 910 -16.5 892 c 128,-1,17
 8 874 8 874 25 853 c 0,18,19
 42 831 42 831 56 813 c 128,-1,20
 70 795 70 795 87 795 c 0,21,22
 106 795 106 795 119.5 813.5 c 128,-1,23
 133 832 133 832 133 889 c 2,24,-1
 133 900 l 1,25,-1
 210 900 l 1,26,-1
 210 885 l 2,27,28
 210 809 210 809 176 759.5 c 128,-1,29
 142 710 142 710 79 710 c 0,0,1
EndSplineSet
EndChar

StartChar: macroncmb
Encoding: 772 772 346
Width: 0
GlyphClass: 2
Flags: W
LayerCount: 4
Fore
SplineSet
-200 755 m 1,0,-1
 -200 845 l 1,1,-1
 200 845 l 1,2,-1
 200 755 l 1,3,-1
 -200 755 l 1,0,-1
EndSplineSet
EndChar

StartChar: brevecmb
Encoding: 774 774 347
Width: 0
GlyphClass: 2
Flags: W
LayerCount: 4
Fore
SplineSet
0 693 m 256,0,1
 -97 693 -97 693 -164 740 c 128,-1,2
 -231 787 -231 787 -232 903 c 1,3,-1
 -132 903 l 1,4,5
 -131 831 -131 831 -98.5 801.5 c 128,-1,6
 -66 772 -66 772 0 772 c 256,7,8
 66 772 66 772 98.5 801.5 c 128,-1,9
 131 831 131 831 132 903 c 1,10,-1
 232 903 l 1,11,12
 231 787 231 787 164 740 c 128,-1,13
 97 693 97 693 0 693 c 256,0,1
EndSplineSet
EndChar

StartChar: dotaccentcmb
Encoding: 775 775 348
Width: 0
GlyphClass: 2
Flags: W
LayerCount: 4
Fore
SplineSet
0 710 m 0,0,1
 -38 710 -38 710 -61.5 722 c 128,-1,2
 -85 734 -85 734 -85 767 c 2,3,-1
 -85 774 l 2,4,5
 -85 808 -85 808 -61.5 820.5 c 128,-1,6
 -38 833 -38 833 0 833 c 256,7,8
 38 833 38 833 61.5 820.5 c 128,-1,9
 85 808 85 808 85 774 c 2,10,-1
 85 767 l 2,11,12
 85 734 85 734 61 722 c 128,-1,13
 37 710 37 710 0 710 c 0,0,1
EndSplineSet
EndChar

StartChar: dieresiscmb
Encoding: 776 776 349
Width: 0
GlyphClass: 2
Flags: W
LayerCount: 4
Fore
SplineSet
-115 710 m 0,0,1
 -144 710 -144 710 -162 722 c 128,-1,2
 -180 734 -180 734 -180 767 c 2,3,-1
 -180 774 l 2,4,5
 -180 808 -180 808 -162 820.5 c 128,-1,6
 -144 833 -144 833 -115 833 c 256,7,8
 -86 833 -86 833 -68 820.5 c 128,-1,9
 -50 808 -50 808 -50 774 c 2,10,-1
 -50 767 l 2,11,12
 -50 734 -50 734 -68.5 722 c 128,-1,13
 -87 710 -87 710 -115 710 c 0,0,1
115 710 m 0,14,15
 86 710 86 710 68 722 c 128,-1,16
 50 734 50 734 50 767 c 2,17,-1
 50 774 l 2,18,19
 50 808 50 808 68 820.5 c 128,-1,20
 86 833 86 833 115 833 c 256,21,22
 144 833 144 833 162 820.5 c 128,-1,23
 180 808 180 808 180 774 c 2,24,-1
 180 767 l 2,25,26
 180 734 180 734 161.5 722 c 128,-1,27
 143 710 143 710 115 710 c 0,14,15
EndSplineSet
EndChar

StartChar: ringcmb
Encoding: 778 778 350
Width: 0
GlyphClass: 2
Flags: W
LayerCount: 4
Fore
SplineSet
0 685 m 256,0,1
 -72 685 -72 685 -116 720.5 c 128,-1,2
 -160 756 -160 756 -160 830 c 2,3,-1
 -160 862 l 2,4,5
 -160 937 -160 937 -116 973.5 c 128,-1,6
 -72 1010 -72 1010 0 1010 c 256,7,8
 72 1010 72 1010 116 973.5 c 128,-1,9
 160 937 160 937 160 862 c 2,10,-1
 160 830 l 2,11,12
 160 756 160 756 116 720.5 c 128,-1,13
 72 685 72 685 0 685 c 256,0,1
0 756 m 0,14,15
 40 756 40 756 61 773 c 128,-1,16
 82 790 82 790 82 830 c 2,17,-1
 82 862 l 2,18,19
 82 902 82 902 61 920.5 c 128,-1,20
 40 939 40 939 0 939 c 0,21,22
 -41 939 -41 939 -61.5 920.5 c 128,-1,23
 -82 902 -82 902 -82 862 c 2,24,-1
 -82 830 l 2,25,26
 -82 790 -82 790 -61.5 773 c 128,-1,27
 -41 756 -41 756 0 756 c 0,14,15
EndSplineSet
EndChar

StartChar: hungarumlautcmb
Encoding: 779 779 351
Width: 0
GlyphClass: 2
Flags: W
LayerCount: 4
Fore
SplineSet
76 700 m 1,0,-1
 132 900 l 1,1,-1
 272 900 l 1,2,-1
 147 700 l 1,3,-1
 76 700 l 1,0,-1
-154 700 m 1,4,-1
 -98 900 l 1,5,-1
 42 900 l 1,6,-1
 -83 700 l 1,7,-1
 -154 700 l 1,4,-1
EndSplineSet
EndChar

StartChar: caroncmb
Encoding: 780 780 352
Width: 0
GlyphClass: 2
Flags: W
LayerCount: 4
Fore
SplineSet
-35 704 m 1,0,-1
 -211 853 l 1,1,-1
 -173 917 l 1,2,-1
 1 801 l 1,3,-1
 173 917 l 1,4,-1
 211 853 l 1,5,-1
 37 704 l 1,6,-1
 -35 704 l 1,0,-1
EndSplineSet
EndChar

StartChar: commaturnedabovecmb
Encoding: 786 786 353
Width: 0
GlyphClass: 2
Flags: W
LayerCount: 4
Fore
SplineSet
-134 700 m 1,0,-1
 21 900 l 1,1,-1
 112 900 l 1,2,-1
 16 700 l 1,3,-1
 -134 700 l 1,0,-1
EndSplineSet
EndChar

StartChar: commaaccentcmb
Encoding: 806 806 354
Width: 0
GlyphClass: 2
Flags: W
LayerCount: 4
Fore
SplineSet
-134 -300 m 1,0,-1
 -38 -100 l 1,1,-1
 112 -100 l 1,2,-1
 -43 -300 l 1,3,-1
 -134 -300 l 1,0,-1
EndSplineSet
EndChar

StartChar: cedillacmb
Encoding: 807 807 355
Width: 0
GlyphClass: 2
Flags: W
LayerCount: 4
Fore
SplineSet
-30 0 m 1,0,-1
 -10 42 l 1,1,2
 34 34 34 34 74 4.5 c 128,-1,3
 114 -25 114 -25 114 -91 c 0,4,5
 114 -156 114 -156 69 -186 c 128,-1,6
 24 -216 24 -216 -32 -216 c 0,7,8
 -98 -216 -98 -216 -139.5 -191.5 c 128,-1,9
 -181 -167 -181 -167 -185 -110 c 1,10,-1
 -97 -100 l 1,11,12
 -95 -119 -95 -119 -81.5 -126.5 c 128,-1,13
 -68 -134 -68 -134 -37 -134 c 0,14,15
 -7 -134 -7 -134 8.5 -121.5 c 128,-1,16
 24 -109 24 -109 24 -75 c 256,17,18
 24 -41 24 -41 11.5 -24.5 c 128,-1,19
 -1 -8 -1 -8 -30 0 c 1,0,-1
EndSplineSet
EndChar

StartChar: ogonekcmb
Encoding: 808 808 356
Width: 0
GlyphClass: 2
Flags: W
LayerCount: 4
Fore
SplineSet
55 -215 m 0,0,1
 -8 -215 -8 -215 -51.5 -183.5 c 128,-1,2
 -95 -152 -95 -152 -95 -96 c 0,3,4
 -95 -47 -95 -47 -57 -9 c 128,-1,5
 -19 29 -19 29 27 47 c 1,6,-1
 54 23 l 1,7,8
 20 2 20 2 7.5 -23 c 128,-1,9
 -5 -48 -5 -48 -5 -68 c 0,10,11
 -5 -96 -5 -96 13.5 -110.5 c 128,-1,12
 32 -125 32 -125 66 -125 c 0,13,14
 84 -125 84 -125 111.5 -122 c 128,-1,15
 139 -119 139 -119 155 -115 c 1,16,-1
 155 -205 l 1,17,18
 136 -209 136 -209 107 -212 c 128,-1,19
 78 -215 78 -215 55 -215 c 0,0,1
EndSplineSet
EndChar

StartChar: Gamma
Encoding: 915 915 370
Width: 700
GlyphClass: 2
Flags: W
LayerCount: 4
Fore
SplineSet
100 0 m 1,0,-1
 100 800 l 1,1,-1
 620 800 l 1,2,-1
 620 710 l 1,3,-1
 200 710 l 1,4,-1
 200 0 l 1,5,-1
 100 0 l 1,0,-1
EndSplineSet
EndChar

StartChar: Delta
Encoding: 916 916 371
Width: 700
GlyphClass: 2
Flags: W
LayerCount: 4
Fore
SplineSet
40 0 m 1,0,-1
 40 90 l 1,1,-1
 293 800 l 1,2,-1
 398 800 l 1,3,-1
 660 90 l 1,4,-1
 660 0 l 1,5,-1
 40 0 l 1,0,-1
558 90 m 1,6,-1
 348 696 l 1,7,-1
 139 90 l 1,8,-1
 558 90 l 1,6,-1
EndSplineSet
EndChar

StartChar: Theta
Encoding: 920 920 375
Width: 700
GlyphClass: 2
Flags: W
LayerCount: 4
Fore
SplineSet
350 -10 m 256,0,1
 202 -10 202 -10 126 63 c 128,-1,2
 50 136 50 136 50 277 c 2,3,-1
 50 519 l 2,4,5
 50 662 50 662 126.5 736 c 128,-1,6
 203 810 203 810 351 810 c 0,7,8
 498 810 498 810 574 736 c 128,-1,9
 650 662 650 662 650 519 c 2,10,-1
 650 277 l 2,11,12
 650 136 650 136 574 63 c 128,-1,13
 498 -10 498 -10 350 -10 c 256,0,1
350 80 m 256,14,15
 459 80 459 80 504.5 125 c 128,-1,16
 550 170 550 170 550 277 c 2,17,-1
 550 519 l 2,18,19
 550 629 550 629 504.5 674.5 c 128,-1,20
 459 720 459 720 350 720 c 256,21,22
 241 720 241 720 195.5 674.5 c 128,-1,23
 150 629 150 629 150 519 c 2,24,-1
 150 277 l 2,25,26
 150 170 150 170 195.5 125 c 128,-1,27
 241 80 241 80 350 80 c 256,14,15
250 360 m 1,28,-1
 250 450 l 1,29,-1
 450 450 l 1,30,-1
 450 360 l 1,31,-1
 250 360 l 1,28,-1
EndSplineSet
EndChar

StartChar: Lambda
Encoding: 923 923 378
Width: 700
GlyphClass: 2
Flags: W
LayerCount: 4
Fore
SplineSet
555 0 m 1,0,-1
 349 687 l 1,1,-1
 142 0 l 1,2,-1
 40 0 l 1,3,-1
 298 800 l 1,4,-1
 403 800 l 1,5,-1
 661 0 l 1,6,-1
 555 0 l 1,0,-1
EndSplineSet
EndChar

StartChar: Xi
Encoding: 926 926 381
Width: 700
GlyphClass: 2
Flags: W
LayerCount: 4
Fore
SplineSet
80 710 m 1,0,-1
 80 800 l 1,1,-1
 620 800 l 1,2,-1
 620 710 l 1,3,-1
 80 710 l 1,0,-1
105 390 m 1,4,-1
 105 480 l 1,5,-1
 595 480 l 1,6,-1
 595 390 l 1,7,-1
 105 390 l 1,4,-1
80 0 m 1,8,-1
 80 90 l 1,9,-1
 620 90 l 1,10,-1
 620 0 l 1,11,-1
 80 0 l 1,8,-1
EndSplineSet
EndChar

StartChar: Pi
Encoding: 928 928 383
Width: 700
GlyphClass: 2
Flags: W
LayerCount: 4
Fore
SplineSet
100 0 m 1,0,-1
 100 800 l 1,1,-1
 600 800 l 1,2,-1
 600 0 l 1,3,-1
 500 0 l 1,4,-1
 500 710 l 1,5,-1
 200 710 l 1,6,-1
 200 0 l 1,7,-1
 100 0 l 1,0,-1
EndSplineSet
EndChar

StartChar: Sigma
Encoding: 931 931 385
Width: 700
GlyphClass: 2
Flags: W
LayerCount: 4
Fore
SplineSet
620 0 m 1,0,-1
 70 0 l 1,1,-1
 70 90 l 1,2,-1
 425 412 l 1,3,-1
 70 710 l 1,4,-1
 70 800 l 1,5,-1
 620 800 l 1,6,-1
 620 710 l 1,7,-1
 202 710 l 1,8,-1
 500 455 l 1,9,-1
 500 377 l 1,10,-1
 190 90 l 1,11,-1
 620 90 l 1,12,-1
 620 0 l 1,0,-1
EndSplineSet
EndChar

StartChar: Psi
Encoding: 936 936 390
Width: 700
GlyphClass: 2
Flags: W
LayerCount: 4
Fore
SplineSet
400 0 m 1,0,-1
 300 0 l 1,1,-1
 300 193 l 1,2,3
 186 206 186 206 133 276.5 c 128,-1,4
 80 347 80 347 80 457 c 2,5,-1
 80 800 l 1,6,-1
 175 800 l 1,7,-1
 175 457 l 2,8,9
 175 377 175 377 204 337 c 128,-1,10
 233 297 233 297 300 288 c 1,11,-1
 300 800 l 1,12,-1
 400 800 l 1,13,-1
 400 288 l 1,14,15
 467 297 467 297 496 337 c 128,-1,16
 525 377 525 377 525 457 c 2,17,-1
 525 800 l 1,18,-1
 620 800 l 1,19,-1
 620 457 l 2,20,21
 620 347 620 347 567 276.5 c 128,-1,22
 514 206 514 206 400 193 c 1,23,-1
 400 0 l 1,0,-1
EndSplineSet
EndChar

StartChar: Omega
Encoding: 937 937 391
Width: 700
GlyphClass: 2
Flags: W
LayerCount: 4
Fore
SplineSet
300 0 m 1,0,-1
 70 0 l 1,1,-1
 70 90 l 1,2,-1
 200 90 l 1,3,-1
 200 180 l 1,4,5
 130 201 130 201 100 264 c 128,-1,6
 70 327 70 327 70 411 c 2,7,-1
 70 519 l 2,8,9
 70 663 70 663 140.5 736.5 c 128,-1,10
 211 810 211 810 350 810 c 256,11,12
 489 810 489 810 559.5 736.5 c 128,-1,13
 630 663 630 663 630 519 c 2,14,-1
 630 411 l 2,15,16
 630 327 630 327 600 264 c 128,-1,17
 570 201 570 201 500 180 c 1,18,-1
 500 90 l 1,19,-1
 630 90 l 1,20,-1
 630 0 l 1,21,-1
 400 0 l 1,22,-1
 400 230 l 1,23,24
 477 243 477 243 503.5 290.5 c 128,-1,25
 530 338 530 338 530 411 c 2,26,-1
 530 519 l 2,27,28
 530 628 530 628 489 674 c 128,-1,29
 448 720 448 720 350 720 c 256,30,31
 252 720 252 720 211 674 c 128,-1,32
 170 628 170 628 170 519 c 2,33,-1
 170 411 l 2,34,35
 170 338 170 338 196.5 290.5 c 128,-1,36
 223 243 223 243 300 230 c 1,37,-1
 300 0 l 1,0,-1
EndSplineSet
EndChar

StartChar: alpha
Encoding: 945 945 399
Width: 700
GlyphClass: 2
Flags: W
LayerCount: 4
Fore
SplineSet
300 85 m 0,0,1
 349 85 349 85 388.5 111.5 c 128,-1,2
 428 138 428 138 470 190 c 1,3,-1
 470 410 l 1,4,5
 428 462 428 462 388.5 488.5 c 128,-1,6
 349 515 349 515 300 515 c 0,7,8
 246 515 246 515 219 479.5 c 128,-1,9
 192 444 192 444 192 372 c 2,10,-1
 192 228 l 2,11,12
 192 157 192 157 219 121 c 128,-1,13
 246 85 246 85 300 85 c 0,0,1
490 110 m 1,14,-1
 460 110 l 1,15,16
 432 53 432 53 384.5 21.5 c 128,-1,17
 337 -10 337 -10 275 -10 c 0,18,19
 191 -10 191 -10 140.5 49.5 c 128,-1,20
 90 109 90 109 90 218 c 2,21,-1
 90 382 l 2,22,23
 90 490 90 490 140.5 550 c 128,-1,24
 191 610 191 610 275 610 c 0,25,26
 330 610 330 610 372.5 580.5 c 128,-1,27
 415 551 415 551 440 500 c 1,28,-1
 470 500 l 1,29,-1
 470 600 l 1,30,-1
 570 600 l 1,31,-1
 570 160 l 2,32,33
 570 106 570 106 595 93 c 128,-1,34
 620 80 620 80 670 89 c 1,35,-1
 670 -3 l 1,36,37
 590 -13 590 -13 543 11.5 c 128,-1,38
 496 36 496 36 490 110 c 1,14,-1
EndSplineSet
EndChar

StartChar: beta
Encoding: 946 946 400
Width: 700
GlyphClass: 2
Flags: W
LayerCount: 4
Fore
SplineSet
341 78 m 0,0,1
 420 78 420 78 459 113.5 c 128,-1,2
 498 149 498 149 498 221 c 2,3,-1
 498 263 l 2,4,5
 498 323 498 323 461.5 352.5 c 128,-1,6
 425 382 425 382 350 382 c 2,7,-1
 299 382 l 1,8,-1
 299 470 l 1,9,-1
 344 470 l 2,10,11
 407 470 407 470 438.5 496.5 c 128,-1,12
 470 523 470 523 470 577 c 2,13,-1
 470 595 l 2,14,15
 470 658 470 658 436.5 689 c 128,-1,16
 403 720 403 720 334 720 c 0,17,18
 266 720 266 720 233 684 c 128,-1,19
 200 648 200 648 200 576 c 2,20,-1
 200 116 l 1,21,22
 231 97 231 97 266 87.5 c 128,-1,23
 301 78 301 78 341 78 c 0,0,1
342 -10 m 0,24,25
 302 -10 302 -10 266 -2.5 c 128,-1,26
 230 5 230 5 200 18 c 1,27,-1
 200 -200 l 1,28,-1
 100 -200 l 1,29,-1
 100 573 l 2,30,31
 100 697 100 697 167.5 753.5 c 128,-1,32
 235 810 235 810 334 810 c 256,33,34
 433 810 433 810 500.5 758.5 c 128,-1,35
 568 707 568 707 568 613 c 2,36,-1
 568 587 l 2,37,38
 568 533 568 533 542 495.5 c 128,-1,39
 516 458 516 458 459 448 c 1,40,-1
 459 419 l 1,41,42
 525 412 525 412 561.5 369.5 c 128,-1,43
 598 327 598 327 600 270 c 2,44,-1
 600 219 l 2,45,46
 600 96 600 96 517.5 43 c 128,-1,47
 435 -10 435 -10 342 -10 c 0,24,25
EndSplineSet
EndChar

StartChar: gamma
Encoding: 947 947 401
Width: 700
GlyphClass: 2
Flags: W
LayerCount: 4
Fore
SplineSet
410 -200 m 1,0,-1
 290 -200 l 1,1,-1
 300 20 l 1,2,-1
 74 600 l 1,3,-1
 184 600 l 1,4,-1
 354 143 l 1,5,-1
 520 600 l 1,6,-1
 625 600 l 1,7,-1
 400 20 l 1,8,-1
 410 -200 l 1,0,-1
EndSplineSet
EndChar

StartChar: delta
Encoding: 948 948 402
Width: 700
GlyphClass: 2
Flags: W
LayerCount: 4
Fore
SplineSet
350 -10 m 256,0,1
 238 -10 238 -10 169 45.5 c 128,-1,2
 100 101 100 101 100 217 c 2,3,-1
 100 309 l 2,4,5
 100 367 100 367 135.5 413.5 c 128,-1,6
 171 460 171 460 237 489 c 1,7,8
 180 515 180 515 155 549.5 c 128,-1,9
 130 584 130 584 130 635 c 0,10,11
 130 720 130 720 185 760 c 128,-1,12
 240 800 240 800 347 800 c 2,13,-1
 532 800 l 1,14,-1
 532 710 l 1,15,-1
 347 710 l 2,16,17
 284 710 284 710 253.5 695.5 c 128,-1,18
 223 681 223 681 223 635 c 0,19,20
 223 601 223 601 253.5 582.5 c 128,-1,21
 284 564 284 564 412 524 c 0,22,23
 515 492 515 492 557.5 445.5 c 128,-1,24
 600 399 600 399 600 319 c 2,25,-1
 600 217 l 2,26,27
 600 101 600 101 531 45.5 c 128,-1,28
 462 -10 462 -10 350 -10 c 256,0,1
350 80 m 256,29,30
 425 80 425 80 462.5 112 c 128,-1,31
 500 144 500 144 500 217 c 2,32,-1
 500 319 l 2,33,34
 500 373 500 373 460 402.5 c 128,-1,35
 420 432 420 432 305 463 c 1,36,37
 254 439 254 439 227 399.5 c 128,-1,38
 200 360 200 360 200 309 c 2,39,-1
 200 217 l 2,40,41
 200 144 200 144 237.5 112 c 128,-1,42
 275 80 275 80 350 80 c 256,29,30
EndSplineSet
EndChar

StartChar: epsilon
Encoding: 949 949 403
Width: 700
GlyphClass: 2
Flags: W
LayerCount: 4
Fore
SplineSet
354 -10 m 0,0,1
 214 -10 214 -10 147.5 33.5 c 128,-1,2
 81 77 81 77 81 167 c 2,3,-1
 81 177 l 2,4,5
 81 228 81 228 120 266 c 128,-1,6
 159 304 159 304 237 309 c 1,7,-1
 237 331 l 1,8,9
 173 335 173 335 136 362.5 c 128,-1,10
 99 390 99 390 99 438 c 2,11,-1
 99 452 l 2,12,13
 99 533 99 533 161 571.5 c 128,-1,14
 223 610 223 610 354 610 c 0,15,16
 473 610 473 610 533.5 566 c 128,-1,17
 594 522 594 522 601 430 c 1,18,-1
 502 422 l 1,19,20
 495 476 495 476 460.5 499.5 c 128,-1,21
 426 523 426 523 354 523 c 0,22,23
 270 523 270 523 234.5 505 c 128,-1,24
 199 487 199 487 199 446 c 2,25,-1
 199 432 l 2,26,27
 199 395 199 395 233 379.5 c 128,-1,28
 267 364 267 364 346 364 c 2,29,-1
 402 364 l 1,30,-1
 402 284 l 1,31,-1
 346 284 l 2,32,33
 257 284 257 284 219 261.5 c 128,-1,34
 181 239 181 239 181 187 c 2,35,-1
 181 177 l 2,36,37
 181 123 181 123 221 100 c 128,-1,38
 261 77 261 77 354 77 c 0,39,40
 435 77 435 77 474 103 c 128,-1,41
 513 129 513 129 520 189 c 1,42,-1
 619 182 l 1,43,44
 612 83 612 83 547 36.5 c 128,-1,45
 482 -10 482 -10 354 -10 c 0,0,1
EndSplineSet
EndChar

StartChar: zeta
Encoding: 950 950 404
Width: 700
GlyphClass: 2
Flags: W
LayerCount: 4
Fore
SplineSet
410 -200 m 2,0,-1
 300 -200 l 1,1,-1
 300 -110 l 1,2,-1
 425 -110 l 2,3,4
 462 -110 462 -110 483.5 -97.5 c 128,-1,5
 505 -85 505 -85 505 -45 c 0,6,7
 505 -6 505 -6 483.5 7 c 128,-1,8
 462 20 462 20 425 20 c 2,9,-1
 340 20 l 2,10,11
 213 20 213 20 154 91.5 c 128,-1,12
 95 163 95 163 95 253 c 0,13,14
 95 311 95 311 119 367.5 c 128,-1,15
 143 424 143 424 184 468 c 2,16,-1
 329 623 l 1,17,-1
 322 639 l 1,18,19
 219 629 219 629 160 681 c 128,-1,20
 101 733 101 733 82 808 c 1,21,-1
 171 827 l 1,22,23
 184 763 184 763 244.5 735.5 c 128,-1,24
 305 708 305 708 391 733 c 1,25,-1
 593 822 l 1,26,-1
 635 710 l 1,27,-1
 475 663 l 1,28,-1
 268 432 l 2,29,30
 234 395 234 395 214.5 352.5 c 128,-1,31
 195 310 195 310 195 258 c 0,32,33
 195 191 195 191 230 150.5 c 128,-1,34
 265 110 265 110 340 110 c 2,35,-1
 424 110 l 2,36,37
 505 110 505 110 552.5 73 c 128,-1,38
 600 36 600 36 600 -45 c 0,39,40
 600 -120 600 -120 548.5 -160 c 128,-1,41
 497 -200 497 -200 410 -200 c 2,0,-1
EndSplineSet
EndChar

StartChar: eta
Encoding: 951 951 405
Width: 700
GlyphClass: 2
Flags: W
LayerCount: 4
Fore
SplineSet
500 -200 m 1,0,-1
 500 404 l 2,1,2
 500 460 500 460 471 487.5 c 128,-1,3
 442 515 442 515 382 515 c 0,4,5
 335 515 335 515 290.5 489 c 128,-1,6
 246 463 246 463 200 410 c 1,7,-1
 200 0 l 1,8,-1
 100 0 l 1,9,-1
 100 600 l 1,10,-1
 200 600 l 1,11,-1
 200 500 l 1,12,-1
 230 500 l 1,13,14
 252 550 252 550 301.5 580 c 128,-1,15
 351 610 351 610 414 610 c 0,16,17
 499 610 499 610 549.5 560.5 c 128,-1,18
 600 511 600 511 600 428 c 2,19,-1
 600 -200 l 1,20,-1
 500 -200 l 1,0,-1
EndSplineSet
EndChar

StartChar: theta
Encoding: 952 952 406
Width: 700
GlyphClass: 2
Flags: W
LayerCount: 4
Fore
SplineSet
350 -10 m 256,0,1
 238 -10 238 -10 169 45.5 c 128,-1,2
 100 101 100 101 100 217 c 2,3,-1
 100 579 l 2,4,5
 100 696 100 696 169.5 753 c 128,-1,6
 239 810 239 810 351 810 c 256,7,8
 463 810 463 810 531.5 753 c 128,-1,9
 600 696 600 696 600 579 c 2,10,-1
 600 217 l 2,11,12
 600 101 600 101 531 45.5 c 128,-1,13
 462 -10 462 -10 350 -10 c 256,0,1
200 579 m 2,14,-1
 200 450 l 1,15,-1
 500 450 l 1,16,-1
 500 579 l 2,17,18
 500 651 500 651 463 685.5 c 128,-1,19
 426 720 426 720 350 720 c 256,20,21
 274 720 274 720 237 685.5 c 128,-1,22
 200 651 200 651 200 579 c 2,14,-1
350 80 m 256,23,24
 426 80 426 80 463 114 c 128,-1,25
 500 148 500 148 500 217 c 2,26,-1
 500 360 l 1,27,-1
 200 360 l 1,28,-1
 200 217 l 2,29,30
 200 148 200 148 237 114 c 128,-1,31
 274 80 274 80 350 80 c 256,23,24
EndSplineSet
EndChar

StartChar: kappa
Encoding: 954 954 408
Width: 700
GlyphClass: 2
Flags: W
LayerCount: 4
Fore
SplineSet
250 273 m 1,0,-1
 250 0 l 1,1,-1
 150 0 l 1,2,-1
 150 600 l 1,3,-1
 250 600 l 1,4,-1
 250 357 l 1,5,-1
 301 357 l 1,6,-1
 493 600 l 1,7,-1
 615 600 l 1,8,-1
 380 321 l 1,9,-1
 612 0 l 1,10,-1
 498 0 l 1,11,-1
 301 273 l 1,12,-1
 250 273 l 1,0,-1
EndSplineSet
EndChar

StartChar: lambda
Encoding: 955 955 409
Width: 700
GlyphClass: 2
Flags: W
LayerCount: 4
Fore
SplineSet
516 0 m 1,0,-1
 348 513 l 1,1,-1
 180 0 l 1,2,-1
 74 0 l 1,3,-1
 287 600 l 1,4,-1
 319 600 l 1,5,-1
 312 622 l 2,6,7
 298 666 298 666 269.5 691.5 c 128,-1,8
 241 717 241 717 186 717 c 0,9,10
 167 717 167 717 144.5 714 c 128,-1,11
 122 711 122 711 95 705 c 1,12,-1
 78 795 l 1,13,14
 103 800 103 800 127.5 802.5 c 128,-1,15
 152 805 152 805 175 805 c 0,16,17
 247 805 247 805 304.5 772.5 c 128,-1,18
 362 740 362 740 390 662 c 2,19,-1
 625 0 l 1,20,-1
 516 0 l 1,0,-1
EndSplineSet
EndChar

StartChar: mu
Encoding: 956 956 410
Width: 700
GlyphClass: 2
Flags: W
LayerCount: 4
Fore
SplineSet
200 20 m 1,0,-1
 210 -200 l 1,1,-1
 90 -200 l 1,2,-1
 100 20 l 1,3,-1
 100 600 l 1,4,-1
 200 600 l 1,5,-1
 200 196 l 2,6,7
 200 136 200 136 234.5 110.5 c 128,-1,8
 269 85 269 85 318 85 c 0,9,10
 363 85 363 85 396.5 105 c 128,-1,11
 430 125 430 125 460 160 c 1,12,-1
 460 600 l 1,13,-1
 560 600 l 1,14,-1
 560 160 l 2,15,16
 560 106 560 106 585 93 c 128,-1,17
 610 80 610 80 660 89 c 1,18,-1
 660 -3 l 1,19,20
 587 -14 587 -14 547.5 12 c 128,-1,21
 508 38 508 38 504 100 c 1,22,-1
 484 100 l 1,23,24
 459 57 459 57 415.5 23.5 c 128,-1,25
 372 -10 372 -10 306 -10 c 0,26,27
 275 -10 275 -10 247.5 2 c 128,-1,28
 220 14 220 14 200 39 c 1,29,-1
 200 20 l 1,0,-1
EndSplineSet
EndChar

StartChar: nu
Encoding: 957 957 411
Width: 700
GlyphClass: 2
Flags: W
LayerCount: 4
Fore
SplineSet
402 0 m 1,0,-1
 297 0 l 1,1,-1
 74 600 l 1,2,-1
 179 600 l 1,3,-1
 362 73 l 1,4,5
 434 204 434 204 475 339.5 c 128,-1,6
 516 475 516 475 527 600 c 1,7,-1
 625 600 l 1,8,9
 606 431 606 431 545 280 c 128,-1,10
 484 129 484 129 402 0 c 1,0,-1
EndSplineSet
EndChar

StartChar: xi
Encoding: 958 958 412
Width: 700
GlyphClass: 2
Flags: W
LayerCount: 4
Fore
SplineSet
620 -45 m 0,0,1
 620 -120 620 -120 568.5 -160 c 128,-1,2
 517 -200 517 -200 430 -200 c 2,3,-1
 320 -200 l 1,4,-1
 320 -110 l 1,5,-1
 445 -110 l 2,6,7
 482 -110 482 -110 503.5 -97.5 c 128,-1,8
 525 -85 525 -85 525 -45 c 0,9,10
 525 -6 525 -6 503.5 7 c 128,-1,11
 482 20 482 20 445 20 c 2,12,-1
 340 20 l 2,13,14
 230 20 230 20 165 70.5 c 128,-1,15
 100 121 100 121 100 207 c 2,16,-1
 100 234 l 2,17,18
 100 295 100 295 144 341.5 c 128,-1,19
 188 388 188 388 277 395 c 1,20,-1
 277 418 l 1,21,22
 220 418 220 418 190 448 c 128,-1,23
 160 478 160 478 160 524 c 0,24,25
 160 561 160 561 179.5 590.5 c 128,-1,26
 199 620 199 620 242 636 c 1,27,-1
 242 659 l 1,28,29
 152 663 152 663 100.5 702.5 c 128,-1,30
 49 742 49 742 32 808 c 1,31,-1
 121 827 l 1,32,33
 134 778 134 778 203.5 754 c 128,-1,34
 273 730 273 730 361 743 c 1,35,-1
 563 822 l 1,36,-1
 605 710 l 1,37,-1
 390 657 l 1,38,-1
 334 626 l 2,39,40
 294 604 294 604 277 579.5 c 128,-1,41
 260 555 260 555 260 526 c 0,42,43
 260 484 260 484 282.5 467 c 128,-1,44
 305 450 305 450 339 450 c 2,45,-1
 530 450 l 1,46,-1
 530 360 l 1,47,-1
 341 360 l 2,48,49
 266 360 266 360 233 327.5 c 128,-1,50
 200 295 200 295 200 249 c 2,51,-1
 200 222 l 2,52,53
 200 172 200 172 233.5 141 c 128,-1,54
 267 110 267 110 340 110 c 2,55,-1
 444 110 l 2,56,57
 525 110 525 110 572.5 73 c 128,-1,58
 620 36 620 36 620 -45 c 0,0,1
EndSplineSet
EndChar

StartChar: pi
Encoding: 960 960 414
Width: 700
GlyphClass: 2
Flags: W
LayerCount: 4
Fore
SplineSet
630 600 m 1,0,-1
 630 510 l 1,1,-1
 510 510 l 1,2,-1
 510 160 l 2,3,4
 510 109 510 109 534.5 94.5 c 128,-1,5
 559 80 559 80 630 89 c 1,6,-1
 630 -3 l 1,7,8
 519 -13 519 -13 464.5 17 c 128,-1,9
 410 47 410 47 410 120 c 2,10,-1
 410 510 l 1,11,-1
 240 510 l 1,12,-1
 240 0 l 1,13,-1
 140 0 l 1,14,-1
 140 510 l 1,15,-1
 40 510 l 1,16,-1
 40 600 l 1,17,-1
 630 600 l 1,0,-1
EndSplineSet
EndChar

StartChar: rho
Encoding: 961 961 415
Width: 700
GlyphClass: 2
Flags: W
LayerCount: 4
Fore
SplineSet
380 85 m 0,0,1
 440 85 440 85 470 120.5 c 128,-1,2
 500 156 500 156 500 228 c 2,3,-1
 500 379 l 2,4,5
 500 450 500 450 462.5 485 c 128,-1,6
 425 520 425 520 350 520 c 256,7,8
 275 520 275 520 237.5 485 c 128,-1,9
 200 450 200 450 200 379 c 2,10,-1
 200 190 l 1,11,12
 243 137 243 137 287.5 111 c 128,-1,13
 332 85 332 85 380 85 c 0,0,1
100 -200 m 1,14,-1
 100 379 l 2,15,16
 100 496 100 496 169.5 553 c 128,-1,17
 239 610 239 610 351 610 c 256,18,19
 463 610 463 610 531.5 553 c 128,-1,20
 600 496 600 496 600 379 c 2,21,-1
 600 218 l 2,22,23
 600 109 600 109 546.5 49.5 c 128,-1,24
 493 -10 493 -10 405 -10 c 0,25,26
 346 -10 346 -10 301 19 c 128,-1,27
 256 48 256 48 230 100 c 1,28,-1
 200 100 l 1,29,-1
 200 -200 l 1,30,-1
 100 -200 l 1,14,-1
EndSplineSet
EndChar

StartChar: sigma1
Encoding: 962 962 416
Width: 700
GlyphClass: 2
Flags: W
LayerCount: 4
Fore
SplineSet
304 -200 m 1,0,-1
 304 -110 l 1,1,-1
 429 -110 l 2,2,3
 466 -110 466 -110 487.5 -97.5 c 128,-1,4
 509 -85 509 -85 509 -45 c 0,5,6
 509 -6 509 -6 487.5 7 c 128,-1,7
 466 20 466 20 429 20 c 2,8,-1
 344 20 l 2,9,10
 213 20 213 20 156.5 80.5 c 128,-1,11
 100 141 100 141 100 257 c 2,12,-1
 100 377 l 2,13,14
 100 490 100 490 159.5 550 c 128,-1,15
 219 610 219 610 353 610 c 0,16,17
 471 610 471 610 527.5 557 c 128,-1,18
 584 504 584 504 591 394 c 1,19,-1
 498 388 l 1,20,21
 494 457 494 457 459 488.5 c 128,-1,22
 424 520 424 520 352 520 c 0,23,24
 272 520 272 520 236 487.5 c 128,-1,25
 200 455 200 455 200 383 c 2,26,-1
 200 247 l 2,27,28
 200 175 200 175 234.5 142.5 c 128,-1,29
 269 110 269 110 344 110 c 2,30,-1
 429 110 l 2,31,32
 510 110 510 110 557 73 c 128,-1,33
 604 36 604 36 604 -45 c 0,34,35
 604 -120 604 -120 552.5 -160 c 128,-1,36
 501 -200 501 -200 414 -200 c 2,37,-1
 304 -200 l 1,0,-1
EndSplineSet
EndChar

StartChar: sigma
Encoding: 963 963 417
Width: 700
GlyphClass: 2
Flags: W
LayerCount: 4
Fore
SplineSet
330 80 m 256,0,1
 395 80 395 80 427.5 112 c 128,-1,2
 460 144 460 144 460 217 c 2,3,-1
 460 349 l 2,4,5
 460 432 460 432 427.5 471 c 128,-1,6
 395 510 395 510 330 510 c 256,7,8
 265 510 265 510 232.5 475.5 c 128,-1,9
 200 441 200 441 200 369 c 2,10,-1
 200 217 l 2,11,12
 200 144 200 144 232.5 112 c 128,-1,13
 265 80 265 80 330 80 c 256,0,1
330 -10 m 256,14,15
 227 -10 227 -10 163.5 45.5 c 128,-1,16
 100 101 100 101 100 217 c 2,17,-1
 100 369 l 2,18,19
 100 481 100 481 164 540.5 c 128,-1,20
 228 600 228 600 331 600 c 2,21,-1
 700 600 l 1,22,-1
 700 500 l 1,23,-1
 485 517 l 1,24,25
 521 492 521 492 540.5 449.5 c 128,-1,26
 560 407 560 407 560 349 c 2,27,-1
 560 217 l 2,28,29
 560 101 560 101 496.5 45.5 c 128,-1,30
 433 -10 433 -10 330 -10 c 256,14,15
EndSplineSet
EndChar

StartChar: tau
Encoding: 964 964 418
Width: 700
GlyphClass: 2
Flags: W
LayerCount: 4
Fore
SplineSet
520 -3 m 1,0,1
 403 -14 403 -14 351.5 14.5 c 128,-1,2
 300 43 300 43 300 120 c 2,3,-1
 300 510 l 1,4,-1
 100 510 l 1,5,-1
 100 600 l 1,6,-1
 610 600 l 1,7,-1
 610 510 l 1,8,-1
 400 510 l 1,9,-1
 400 160 l 2,10,11
 400 111 400 111 425.5 96 c 128,-1,12
 451 81 451 81 520 89 c 1,13,-1
 520 -3 l 1,0,1
EndSplineSet
EndChar

StartChar: upsilon
Encoding: 965 965 419
Width: 700
GlyphClass: 2
Flags: W
LayerCount: 4
Fore
SplineSet
350 -10 m 256,0,1
 228 -10 228 -10 164 48.5 c 128,-1,2
 100 107 100 107 100 217 c 2,3,-1
 100 600 l 1,4,-1
 200 600 l 1,5,-1
 200 217 l 2,6,7
 200 144 200 144 235 112 c 128,-1,8
 270 80 270 80 350 80 c 256,9,10
 430 80 430 80 465 112 c 128,-1,11
 500 144 500 144 500 217 c 2,12,-1
 500 600 l 1,13,-1
 600 600 l 1,14,-1
 600 217 l 2,15,16
 600 107 600 107 536 48.5 c 128,-1,17
 472 -10 472 -10 350 -10 c 256,0,1
EndSplineSet
EndChar

StartChar: phi
Encoding: 966 966 420
Width: 700
GlyphClass: 2
Flags: W
LayerCount: 4
Fore
SplineSet
396 -200 m 1,0,-1
 304 -200 l 1,1,-1
 304 -8 l 1,2,3
 194 3 194 3 127 70.5 c 128,-1,4
 60 138 60 138 60 257 c 2,5,-1
 60 349 l 2,6,7
 60 431 60 431 79.5 498.5 c 128,-1,8
 99 566 99 566 132 617 c 1,9,-1
 219 585 l 1,10,11
 192 541 192 541 172 481 c 128,-1,12
 152 421 152 421 152 349 c 2,13,-1
 152 257 l 2,14,15
 152 176 152 176 190.5 129.5 c 128,-1,16
 229 83 229 83 304 73 c 1,17,-1
 304 600 l 1,18,-1
 400 600 l 2,19,20
 508 600 508 600 574 531 c 128,-1,21
 640 462 640 462 640 319 c 2,22,-1
 640 257 l 2,23,24
 640 138 640 138 573 70.5 c 128,-1,25
 506 3 506 3 396 -8 c 1,26,-1
 396 -200 l 1,0,-1
396 520 m 1,27,-1
 396 73 l 1,28,29
 471 83 471 83 509.5 129.5 c 128,-1,30
 548 176 548 176 548 257 c 2,31,-1
 548 319 l 2,32,33
 548 423 548 423 509.5 471.5 c 128,-1,34
 471 520 471 520 396 520 c 1,27,-1
EndSplineSet
EndChar

StartChar: chi
Encoding: 967 967 421
Width: 700
GlyphClass: 2
Flags: W
LayerCount: 4
Fore
SplineSet
491 -200 m 1,0,-1
 340 112 l 1,1,-1
 183 -200 l 1,2,-1
 86 -200 l 1,3,-1
 299 196 l 1,4,-1
 103 600 l 1,5,-1
 202 600 l 1,6,-1
 356 284 l 1,7,-1
 517 600 l 1,8,-1
 614 600 l 1,9,-1
 397 200 l 1,10,-1
 592 -200 l 1,11,-1
 491 -200 l 1,0,-1
EndSplineSet
EndChar

StartChar: psi
Encoding: 968 968 422
Width: 700
GlyphClass: 2
Flags: W
LayerCount: 4
Fore
SplineSet
396 -200 m 1,0,-1
 304 -200 l 1,1,-1
 304 -8 l 1,2,3
 177 2 177 2 118.5 67.5 c 128,-1,4
 60 133 60 133 60 237 c 2,5,-1
 60 600 l 1,6,-1
 152 600 l 1,7,-1
 152 237 l 2,8,9
 152 165 152 165 188.5 127 c 128,-1,10
 225 89 225 89 304 82 c 1,11,-1
 304 600 l 1,12,-1
 396 600 l 1,13,-1
 396 82 l 1,14,15
 475 89 475 89 511.5 127 c 128,-1,16
 548 165 548 165 548 237 c 2,17,-1
 548 600 l 1,18,-1
 640 600 l 1,19,-1
 640 237 l 2,20,21
 640 133 640 133 581.5 67.5 c 128,-1,22
 523 2 523 2 396 -8 c 1,23,-1
 396 -200 l 1,0,-1
EndSplineSet
EndChar

StartChar: omega
Encoding: 969 969 423
Width: 700
GlyphClass: 2
Flags: W
LayerCount: 4
Fore
SplineSet
210 -10 m 0,0,1
 143 -10 143 -10 101.5 50.5 c 128,-1,2
 60 111 60 111 60 227 c 2,3,-1
 60 329 l 2,4,5
 60 418 60 418 78.5 498 c 128,-1,6
 97 578 97 578 122 617 c 1,7,-1
 209 585 l 1,8,9
 192 552 192 552 172 480 c 128,-1,10
 152 408 152 408 152 329 c 2,11,-1
 152 227 l 2,12,13
 152 154 152 154 171 117 c 128,-1,14
 190 80 190 80 230 80 c 0,15,16
 267 80 267 80 285.5 107 c 128,-1,17
 304 134 304 134 304 197 c 2,18,-1
 304 460 l 1,19,-1
 396 460 l 1,20,-1
 396 197 l 2,21,22
 396 134 396 134 414.5 107 c 128,-1,23
 433 80 433 80 470 80 c 0,24,25
 509 80 509 80 528.5 117 c 128,-1,26
 548 154 548 154 548 227 c 2,27,-1
 548 329 l 2,28,29
 548 408 548 408 528 480 c 128,-1,30
 508 552 508 552 491 585 c 1,31,-1
 578 617 l 1,32,33
 603 578 603 578 621.5 498 c 128,-1,34
 640 418 640 418 640 329 c 2,35,-1
 640 227 l 2,36,37
 640 111 640 111 598.5 50.5 c 128,-1,38
 557 -10 557 -10 490 -10 c 0,39,40
 445 -10 445 -10 408.5 19.5 c 128,-1,41
 372 49 372 49 356 118 c 1,42,-1
 344 118 l 1,43,44
 328 49 328 49 291.5 19.5 c 128,-1,45
 255 -10 255 -10 210 -10 c 0,0,1
EndSplineSet
EndChar

StartChar: Djecyrillic
Encoding: 1026 1026 431
Width: 700
GlyphClass: 2
Flags: W
LayerCount: 4
Fore
SplineSet
180 0 m 1,0,-1
 180 710 l 1,1,-1
 30 710 l 1,2,-1
 30 800 l 1,3,-1
 530 800 l 1,4,-1
 530 710 l 1,5,-1
 280 710 l 1,6,-1
 280 520 l 1,7,-1
 410 520 l 2,8,9
 527 520 527 520 583.5 468 c 128,-1,10
 640 416 640 416 640 309 c 2,11,-1
 640 211 l 2,12,13
 640 104 640 104 583.5 52 c 128,-1,14
 527 0 527 0 410 0 c 1,15,-1
 410 88 l 1,16,17
 470 88 470 88 505 115 c 128,-1,18
 540 142 540 142 540 213 c 2,19,-1
 540 307 l 2,20,21
 540 378 540 378 505 405 c 128,-1,22
 470 432 470 432 410 432 c 2,23,-1
 280 432 l 1,24,-1
 280 0 l 1,25,-1
 180 0 l 1,0,-1
EndSplineSet
EndChar

StartChar: Ecyrillic
Encoding: 1028 1028 433
Width: 700
GlyphClass: 2
Flags: W
LayerCount: 4
Fore
SplineSet
640 257 m 1,0,1
 633 125 633 125 562 57.5 c 128,-1,2
 491 -10 491 -10 360 -10 c 0,3,4
 221 -10 221 -10 150.5 62 c 128,-1,5
 80 134 80 134 80 277 c 2,6,-1
 80 519 l 2,7,8
 80 663 80 663 150.5 736.5 c 128,-1,9
 221 810 221 810 361 810 c 0,10,11
 492 810 492 810 562.5 741.5 c 128,-1,12
 633 673 633 673 640 539 c 1,13,-1
 540 529 l 1,14,15
 531 633 531 633 490 676.5 c 128,-1,16
 449 720 449 720 360 720 c 0,17,18
 262 720 262 720 221 674.5 c 128,-1,19
 180 629 180 629 180 519 c 2,20,-1
 180 480 l 1,21,-1
 407 480 l 1,22,-1
 407 390 l 1,23,-1
 180 390 l 1,24,-1
 180 277 l 2,25,26
 180 170 180 170 221 125 c 128,-1,27
 262 80 262 80 360 80 c 0,28,29
 450 80 450 80 491 123 c 128,-1,30
 532 166 532 166 540 267 c 1,31,-1
 640 257 l 1,0,1
EndSplineSet
EndChar

StartChar: Ljecyrillic
Encoding: 1033 1033 438
Width: 700
GlyphClass: 2
Flags: W
LayerCount: 4
Fore
SplineSet
175 164 m 2,0,1
 174 73 174 73 136 33.5 c 128,-1,2
 98 -6 98 -6 45 -6 c 0,3,4
 29 -7 29 -7 13 -4 c 128,-1,5
 -3 -1 -3 -1 -19 4 c 1,6,-1
 1 95 l 1,7,8
 10 92 10 92 19 89.5 c 128,-1,9
 28 87 28 87 37 87 c 0,10,11
 56 86 56 86 69.5 102.5 c 128,-1,12
 83 119 83 119 84 172 c 2,13,-1
 96 800 l 1,14,-1
 396 800 l 1,15,-1
 396 520 l 1,16,-1
 440 520 l 2,17,18
 539 520 539 520 589.5 466.5 c 128,-1,19
 640 413 640 413 640 309 c 2,20,-1
 640 211 l 2,21,22
 640 107 640 107 590 53.5 c 128,-1,23
 540 0 540 0 441 0 c 2,24,-1
 304 0 l 1,25,-1
 304 710 l 1,26,-1
 185 710 l 1,27,-1
 175 164 l 2,0,1
396 90 m 1,28,-1
 440 90 l 2,29,30
 489 90 489 90 518.5 117 c 128,-1,31
 548 144 548 144 548 215 c 2,32,-1
 548 307 l 2,33,34
 548 378 548 378 518.5 405 c 128,-1,35
 489 432 489 432 440 432 c 2,36,-1
 396 432 l 1,37,-1
 396 90 l 1,28,-1
EndSplineSet
EndChar

StartChar: Njecyrillic
Encoding: 1034 1034 439
Width: 700
GlyphClass: 2
Flags: W
LayerCount: 4
Fore
SplineSet
396 90 m 1,0,-1
 450 90 l 2,1,2
 495 90 495 90 521.5 117 c 128,-1,3
 548 144 548 144 548 215 c 2,4,-1
 548 307 l 2,5,6
 548 378 548 378 521.5 405 c 128,-1,7
 495 432 495 432 450 432 c 2,8,-1
 396 432 l 1,9,-1
 396 90 l 1,0,-1
152 390 m 1,10,-1
 152 0 l 1,11,-1
 60 0 l 1,12,-1
 60 800 l 1,13,-1
 152 800 l 1,14,-1
 152 480 l 1,15,-1
 304 480 l 1,16,-1
 304 800 l 1,17,-1
 396 800 l 1,18,-1
 396 520 l 1,19,-1
 450 520 l 2,20,21
 544 520 544 520 592 466.5 c 128,-1,22
 640 413 640 413 640 309 c 2,23,-1
 640 211 l 2,24,25
 640 107 640 107 592.5 53.5 c 128,-1,26
 545 0 545 0 451 0 c 2,27,-1
 304 0 l 1,28,-1
 304 390 l 1,29,-1
 152 390 l 1,10,-1
EndSplineSet
EndChar

StartChar: Tshecyrillic
Encoding: 1035 1035 440
Width: 700
GlyphClass: 2
Flags: W
LayerCount: 4
Fore
SplineSet
270 0 m 1,0,-1
 170 0 l 1,1,-1
 170 710 l 1,2,-1
 20 710 l 1,3,-1
 20 800 l 1,4,-1
 520 800 l 1,5,-1
 520 710 l 1,6,-1
 270 710 l 1,7,-1
 270 490 l 1,8,-1
 410 490 l 2,9,10
 524 490 524 490 582 436.5 c 128,-1,11
 640 383 640 383 640 279 c 2,12,-1
 640 0 l 1,13,-1
 540 0 l 1,14,-1
 540 277 l 2,15,16
 540 345 540 345 510.5 373.5 c 128,-1,17
 481 402 481 402 410 402 c 2,18,-1
 270 402 l 1,19,-1
 270 0 l 1,0,-1
EndSplineSet
EndChar

StartChar: Dzhecyrillic
Encoding: 1039 1039 444
Width: 700
GlyphClass: 2
Flags: W
LayerCount: 4
Fore
SplineSet
300 -150 m 1,0,-1
 300 0 l 1,1,-1
 100 0 l 1,2,-1
 100 800 l 1,3,-1
 200 800 l 1,4,-1
 200 90 l 1,5,-1
 500 90 l 1,6,-1
 500 800 l 1,7,-1
 600 800 l 1,8,-1
 600 0 l 1,9,-1
 400 0 l 1,10,-1
 400 -150 l 1,11,-1
 300 -150 l 1,0,-1
EndSplineSet
EndChar

StartChar: Becyrillic
Encoding: 1041 1041 446
Width: 700
GlyphClass: 2
Flags: W
LayerCount: 4
Fore
SplineSet
100 0 m 1,0,-1
 100 800 l 1,1,-1
 575 800 l 1,2,-1
 575 710 l 1,3,-1
 200 710 l 1,4,-1
 200 460 l 1,5,-1
 384 460 l 2,6,7
 494 460 494 460 554 409 c 128,-1,8
 614 358 614 358 614 263 c 2,9,-1
 614 211 l 2,10,11
 614 110 614 110 554.5 55 c 128,-1,12
 495 0 495 0 385 0 c 2,13,-1
 100 0 l 1,0,-1
200 90 m 1,14,-1
 364 90 l 2,15,16
 445 90 445 90 479.5 118.5 c 128,-1,17
 514 147 514 147 514 216 c 2,18,-1
 514 248 l 2,19,20
 514 315 514 315 479.5 343.5 c 128,-1,21
 445 372 445 372 364 372 c 2,22,-1
 200 372 l 1,23,-1
 200 90 l 1,14,-1
EndSplineSet
EndChar

StartChar: Decyrillic
Encoding: 1044 1044 449
Width: 700
GlyphClass: 2
Flags: W
LayerCount: 4
Fore
SplineSet
183 115 m 1,0,-1
 183 90 l 1,1,-1
 480 90 l 1,2,-1
 480 710 l 1,3,-1
 239 710 l 1,4,-1
 236 303 l 2,5,6
 235 235 235 235 226 190.5 c 128,-1,7
 217 146 217 146 183 115 c 1,0,-1
110 0 m 1,8,-1
 110 -150 l 1,9,-1
 10 -150 l 1,10,-1
 10 90 l 1,11,-1
 73 90 l 1,12,13
 106 115 106 115 122.5 167.5 c 128,-1,14
 139 220 139 220 140 309 c 2,15,-1
 143 800 l 1,16,-1
 580 800 l 1,17,-1
 580 90 l 1,18,-1
 680 90 l 1,19,-1
 680 -150 l 1,20,-1
 580 -150 l 1,21,-1
 580 0 l 1,22,-1
 110 0 l 1,8,-1
EndSplineSet
EndChar

StartChar: Zhecyrillic
Encoding: 1046 1046 451
Width: 700
GlyphClass: 2
Flags: W
LayerCount: 4
Fore
SplineSet
264 385 m 1,0,-1
 104 0 l 1,1,-1
 4 0 l 1,2,-1
 191 432 l 1,3,-1
 6 800 l 1,4,-1
 101 800 l 1,5,-1
 264 465 l 1,6,-1
 306 465 l 1,7,-1
 306 800 l 1,8,-1
 396 800 l 1,9,-1
 396 465 l 1,10,-1
 438 465 l 1,11,-1
 600 800 l 1,12,-1
 695 800 l 1,13,-1
 510 432 l 1,14,-1
 697 0 l 1,15,-1
 597 0 l 1,16,-1
 438 385 l 1,17,-1
 396 385 l 1,18,-1
 396 0 l 1,19,-1
 306 0 l 1,20,-1
 306 385 l 1,21,-1
 264 385 l 1,0,-1
EndSplineSet
EndChar

StartChar: Zecyrillic
Encoding: 1047 1047 452
Width: 700
GlyphClass: 2
Flags: W
LayerCount: 4
Fore
SplineSet
340 -10 m 0,0,1
 207 -10 207 -10 142 44.5 c 128,-1,2
 77 99 77 99 70 217 c 1,3,-1
 170 227 l 1,4,5
 178 146 178 146 217 112 c 128,-1,6
 256 78 256 78 340 78 c 0,7,8
 438 78 438 78 479 110 c 128,-1,9
 520 142 520 142 520 217 c 2,10,-1
 520 244 l 2,11,12
 520 318 520 318 481.5 349 c 128,-1,13
 443 380 443 380 350 380 c 2,14,-1
 250 380 l 1,15,-1
 250 470 l 1,16,-1
 350 470 l 2,17,18
 431 470 431 470 465.5 494.5 c 128,-1,19
 500 519 500 519 500 576 c 2,20,-1
 500 608 l 2,21,22
 500 670 500 670 463.5 696 c 128,-1,23
 427 722 427 722 340 722 c 0,24,25
 266 722 266 722 231.5 691.5 c 128,-1,26
 197 661 197 661 190 588 c 1,27,-1
 90 598 l 1,28,29
 97 708 97 708 157.5 759 c 128,-1,30
 218 810 218 810 340 810 c 0,31,32
 461 810 461 810 530.5 763 c 128,-1,33
 600 716 600 716 600 608 c 2,34,-1
 600 576 l 2,35,36
 600 516 600 516 558.5 481 c 128,-1,37
 517 446 517 446 443 441 c 1,38,-1
 443 412 l 1,39,40
 532 405 532 405 576 357 c 128,-1,41
 620 309 620 309 620 244 c 2,42,-1
 620 217 l 2,43,44
 620 109 620 109 557.5 49.5 c 128,-1,45
 495 -10 495 -10 340 -10 c 0,0,1
EndSplineSet
EndChar

StartChar: Iicyrillic
Encoding: 1048 1048 453
Width: 700
GlyphClass: 2
Flags: W
LayerCount: 4
Fore
SplineSet
510 0 m 1,0,-1
 510 674 l 1,1,-1
 243 0 l 1,2,-1
 100 0 l 1,3,-1
 100 800 l 1,4,-1
 190 800 l 1,5,-1
 190 111 l 1,6,-1
 463 800 l 1,7,-1
 600 800 l 1,8,-1
 600 0 l 1,9,-1
 510 0 l 1,0,-1
EndSplineSet
EndChar

StartChar: Elcyrillic
Encoding: 1051 1051 456
Width: 700
GlyphClass: 2
Flags: W
LayerCount: 4
Fore
SplineSet
500 0 m 1,0,-1
 500 710 l 1,1,-1
 259 710 l 1,2,-1
 256 235 l 2,3,4
 255 107 255 107 207.5 48.5 c 128,-1,5
 160 -10 160 -10 79 -10 c 0,6,7
 56 -10 56 -10 35 -6.5 c 128,-1,8
 14 -3 14 -3 -3 2 c 1,9,-1
 14 90 l 1,10,11
 30 85 30 85 43.5 82.5 c 128,-1,12
 57 80 57 80 70 80 c 0,13,14
 116 80 116 80 137.5 120.5 c 128,-1,15
 159 161 159 161 160 248 c 2,16,-1
 163 800 l 1,17,-1
 600 800 l 1,18,-1
 600 0 l 1,19,-1
 500 0 l 1,0,-1
EndSplineSet
EndChar

StartChar: Ucyrillic
Encoding: 1059 1059 464
Width: 700
GlyphClass: 2
Flags: W
LayerCount: 4
Fore
SplineSet
194 -1 m 0,0,1
 174 -1 174 -1 152 2 c 128,-1,2
 130 5 130 5 108 9 c 1,3,-1
 125 99 l 1,4,5
 148 94 148 94 167 91.5 c 128,-1,6
 186 89 186 89 202 89 c 0,7,8
 250 89 250 89 275.5 113.5 c 128,-1,9
 301 138 301 138 321 189 c 2,10,-1
 325 200 l 1,11,-1
 287 200 l 1,12,-1
 44 800 l 1,13,-1
 144 800 l 1,14,-1
 352 268 l 1,15,-1
 559 800 l 1,16,-1
 655 800 l 1,17,-1
 396 155 l 2,18,19
 360 66 360 66 308.5 32.5 c 128,-1,20
 257 -1 257 -1 194 -1 c 0,0,1
EndSplineSet
EndChar

StartChar: Efcyrillic
Encoding: 1060 1060 465
Width: 700
GlyphClass: 2
Flags: W
LayerCount: 4
Fore
SplineSet
433 90 m 2,0,-1
 400 90 l 1,1,-1
 400 -10 l 1,2,-1
 300 -10 l 1,3,-1
 300 90 l 1,4,-1
 268 90 l 2,5,6
 155 90 155 90 102.5 164 c 128,-1,7
 50 238 50 238 50 357 c 2,8,-1
 50 439 l 2,9,10
 50 560 50 560 102.5 635 c 128,-1,11
 155 710 155 710 268 710 c 2,12,-1
 300 710 l 1,13,-1
 300 810 l 1,14,-1
 400 810 l 1,15,-1
 400 710 l 1,16,-1
 433 710 l 2,17,18
 546 710 546 710 598 635 c 128,-1,19
 650 560 650 560 650 439 c 2,20,-1
 650 357 l 2,21,22
 650 238 650 238 598 164 c 128,-1,23
 546 90 546 90 433 90 c 2,0,-1
433 620 m 2,24,-1
 395 620 l 1,25,-1
 395 180 l 1,26,-1
 433 180 l 2,27,28
 496 180 496 180 523 220.5 c 128,-1,29
 550 261 550 261 550 357 c 2,30,-1
 550 439 l 2,31,32
 550 538 550 538 523 579 c 128,-1,33
 496 620 496 620 433 620 c 2,24,-1
268 180 m 2,34,-1
 305 180 l 1,35,-1
 305 620 l 1,36,-1
 268 620 l 2,37,38
 204 620 204 620 177 579 c 128,-1,39
 150 538 150 538 150 439 c 2,40,-1
 150 357 l 2,41,42
 150 261 150 261 177 220.5 c 128,-1,43
 204 180 204 180 268 180 c 2,34,-1
EndSplineSet
EndChar

StartChar: Tsecyrillic
Encoding: 1062 1062 467
Width: 700
GlyphClass: 2
Flags: W
LayerCount: 4
Fore
SplineSet
550 -150 m 1,0,-1
 550 0 l 1,1,-1
 100 0 l 1,2,-1
 100 800 l 1,3,-1
 200 800 l 1,4,-1
 200 90 l 1,5,-1
 450 90 l 1,6,-1
 450 800 l 1,7,-1
 550 800 l 1,8,-1
 550 90 l 1,9,-1
 650 90 l 1,10,-1
 650 -150 l 1,11,-1
 550 -150 l 1,0,-1
EndSplineSet
EndChar

StartChar: Checyrillic
Encoding: 1063 1063 468
Width: 700
GlyphClass: 2
Flags: W
LayerCount: 4
Fore
SplineSet
600 800 m 1,0,-1
 600 0 l 1,1,-1
 500 0 l 1,2,-1
 500 280 l 1,3,-1
 350 280 l 2,4,5
 214 280 214 280 157 328 c 128,-1,6
 100 376 100 376 100 491 c 2,7,-1
 100 800 l 1,8,-1
 200 800 l 1,9,-1
 200 493 l 2,10,11
 200 425 200 425 234.5 396.5 c 128,-1,12
 269 368 269 368 350 368 c 2,13,-1
 500 368 l 1,14,-1
 500 800 l 1,15,-1
 600 800 l 1,0,-1
EndSplineSet
EndChar

StartChar: Shacyrillic
Encoding: 1064 1064 469
Width: 700
GlyphClass: 2
Flags: W
LayerCount: 4
Fore
SplineSet
60 0 m 1,0,-1
 60 800 l 1,1,-1
 152 800 l 1,2,-1
 152 86 l 1,3,-1
 304 86 l 1,4,-1
 304 800 l 1,5,-1
 396 800 l 1,6,-1
 396 86 l 1,7,-1
 548 86 l 1,8,-1
 548 800 l 1,9,-1
 640 800 l 1,10,-1
 640 0 l 1,11,-1
 60 0 l 1,0,-1
EndSplineSet
EndChar

StartChar: Shchacyrillic
Encoding: 1065 1065 470
Width: 700
GlyphClass: 2
Flags: W
LayerCount: 4
Fore
SplineSet
685 -150 m 1,0,-1
 588 -150 l 1,1,-1
 588 0 l 1,2,-1
 60 0 l 1,3,-1
 60 800 l 1,4,-1
 152 800 l 1,5,-1
 152 86 l 1,6,-1
 304 86 l 1,7,-1
 304 800 l 1,8,-1
 396 800 l 1,9,-1
 396 86 l 1,10,-1
 548 86 l 1,11,-1
 548 800 l 1,12,-1
 640 800 l 1,13,-1
 640 86 l 1,14,-1
 685 86 l 1,15,-1
 685 -150 l 1,0,-1
EndSplineSet
EndChar

StartChar: Hardsigncyrillic
Encoding: 1066 1066 471
Width: 700
GlyphClass: 2
Flags: W
LayerCount: 4
Fore
SplineSet
421 0 m 2,0,-1
 200 0 l 1,1,-1
 200 710 l 1,2,-1
 10 710 l 1,3,-1
 10 800 l 1,4,-1
 300 800 l 1,5,-1
 300 520 l 1,6,-1
 420 520 l 2,7,8
 539 520 539 520 594.5 469.5 c 128,-1,9
 650 419 650 419 650 309 c 2,10,-1
 650 211 l 2,11,12
 650 101 650 101 595 50.5 c 128,-1,13
 540 0 540 0 421 0 c 2,0,-1
300 90 m 1,14,-1
 420 90 l 2,15,16
 491 90 491 90 520.5 118.5 c 128,-1,17
 550 147 550 147 550 215 c 2,18,-1
 550 307 l 2,19,20
 550 375 550 375 520.5 403.5 c 128,-1,21
 491 432 491 432 420 432 c 2,22,-1
 300 432 l 1,23,-1
 300 90 l 1,14,-1
EndSplineSet
EndChar

StartChar: Yericyrillic
Encoding: 1067 1067 472
Width: 700
GlyphClass: 2
Flags: W
LayerCount: 4
Fore
SplineSet
80 0 m 1,0,-1
 80 800 l 1,1,-1
 172 800 l 1,2,-1
 172 520 l 1,3,-1
 230 520 l 2,4,5
 333 520 333 520 381.5 469 c 128,-1,6
 430 418 430 418 430 309 c 2,7,-1
 430 211 l 2,8,9
 430 102 430 102 381.5 51 c 128,-1,10
 333 0 333 0 231 0 c 2,11,-1
 80 0 l 1,0,-1
528 0 m 1,12,-1
 528 800 l 1,13,-1
 620 800 l 1,14,-1
 620 0 l 1,15,-1
 528 0 l 1,12,-1
172 86 m 1,16,-1
 230 86 l 2,17,18
 279 86 279 86 308.5 114 c 128,-1,19
 338 142 338 142 338 215 c 2,20,-1
 338 307 l 2,21,22
 338 380 338 380 308.5 408 c 128,-1,23
 279 436 279 436 230 436 c 2,24,-1
 172 436 l 1,25,-1
 172 86 l 1,16,-1
EndSplineSet
EndChar

StartChar: Softsigncyrillic
Encoding: 1068 1068 473
Width: 700
GlyphClass: 2
Flags: W
LayerCount: 4
Fore
SplineSet
100 0 m 1,0,-1
 100 800 l 1,1,-1
 200 800 l 1,2,-1
 200 520 l 1,3,-1
 380 520 l 2,4,5
 509 520 509 520 569.5 469 c 128,-1,6
 630 418 630 418 630 309 c 2,7,-1
 630 211 l 2,8,9
 630 102 630 102 569.5 51 c 128,-1,10
 509 0 509 0 381 0 c 2,11,-1
 100 0 l 1,0,-1
200 90 m 1,12,-1
 380 90 l 2,13,14
 448 90 448 90 489 117 c 128,-1,15
 530 144 530 144 530 215 c 2,16,-1
 530 307 l 2,17,18
 530 378 530 378 489.5 405 c 128,-1,19
 449 432 449 432 380 432 c 2,20,-1
 200 432 l 1,21,-1
 200 90 l 1,12,-1
EndSplineSet
EndChar

StartChar: Ereversedcyrillic
Encoding: 1069 1069 474
Width: 700
GlyphClass: 2
Flags: W
LayerCount: 4
Fore
SplineSet
360 -10 m 0,0,1
 231 -10 231 -10 159.5 55 c 128,-1,2
 88 120 88 120 80 257 c 1,3,-1
 180 267 l 1,4,5
 189 166 189 166 230 123 c 128,-1,6
 271 80 271 80 360 80 c 0,7,8
 458 80 458 80 499 125 c 128,-1,9
 540 170 540 170 540 277 c 2,10,-1
 540 390 l 1,11,-1
 273 390 l 1,12,-1
 273 480 l 1,13,-1
 540 480 l 1,14,-1
 540 519 l 2,15,16
 540 629 540 629 499 674.5 c 128,-1,17
 458 720 458 720 360 720 c 0,18,19
 271 720 271 720 230 676.5 c 128,-1,20
 189 633 189 633 180 529 c 1,21,-1
 80 539 l 1,22,23
 88 679 88 679 159.5 744.5 c 128,-1,24
 231 810 231 810 359 810 c 0,25,26
 504 810 504 810 572 739.5 c 128,-1,27
 640 669 640 669 640 519 c 2,28,-1
 640 277 l 2,29,30
 640 129 640 129 572 59.5 c 128,-1,31
 504 -10 504 -10 360 -10 c 0,0,1
EndSplineSet
EndChar

StartChar: IUcyrillic
Encoding: 1070 1070 475
Width: 700
GlyphClass: 2
Flags: W
LayerCount: 4
Fore
SplineSet
445 -10 m 0,0,1
 344 -10 344 -10 297 60.5 c 128,-1,2
 250 131 250 131 250 247 c 2,3,-1
 250 394 l 1,4,-1
 152 394 l 1,5,-1
 152 0 l 1,6,-1
 60 0 l 1,7,-1
 60 800 l 1,8,-1
 152 800 l 1,9,-1
 152 476 l 1,10,-1
 250 476 l 1,11,-1
 250 549 l 2,12,13
 250 668 250 668 297.5 739 c 128,-1,14
 345 810 345 810 446 810 c 256,15,16
 547 810 547 810 593.5 739 c 128,-1,17
 640 668 640 668 640 549 c 2,18,-1
 640 247 l 2,19,20
 640 131 640 131 593.5 60.5 c 128,-1,21
 547 -10 547 -10 445 -10 c 0,0,1
445 76 m 256,22,23
 501 76 501 76 524.5 115 c 128,-1,24
 548 154 548 154 548 247 c 2,25,-1
 548 549 l 2,26,27
 548 644 548 644 524.5 683.5 c 128,-1,28
 501 723 501 723 445 723 c 256,29,30
 389 723 389 723 365.5 683.5 c 128,-1,31
 342 644 342 644 342 549 c 2,32,-1
 342 247 l 2,33,34
 342 154 342 154 365.5 115 c 128,-1,35
 389 76 389 76 445 76 c 256,22,23
EndSplineSet
EndChar

StartChar: IAcyrillic
Encoding: 1071 1071 476
Width: 700
GlyphClass: 2
Flags: W
LayerCount: 4
Fore
SplineSet
300 398 m 2,0,-1
 500 398 l 1,1,-1
 500 710 l 1,2,-1
 300 710 l 2,3,4
 219 710 219 710 184.5 682.5 c 128,-1,5
 150 655 150 655 150 589 c 2,6,-1
 150 527 l 2,7,8
 150 457 150 457 184.5 427.5 c 128,-1,9
 219 398 219 398 300 398 c 2,0,-1
500 310 m 1,10,-1
 355 310 l 1,11,-1
 161 0 l 1,12,-1
 41 0 l 1,13,-1
 245 313 l 1,14,15
 145 323 145 323 97.5 375.5 c 128,-1,16
 50 428 50 428 50 527 c 2,17,-1
 50 589 l 2,18,19
 50 698 50 698 110.5 749 c 128,-1,20
 171 800 171 800 299 800 c 2,21,-1
 600 800 l 1,22,-1
 600 0 l 1,23,-1
 500 0 l 1,24,-1
 500 310 l 1,10,-1
EndSplineSet
EndChar

StartChar: becyrillic
Encoding: 1073 1073 478
Width: 700
GlyphClass: 2
Flags: W
LayerCount: 4
Fore
SplineSet
350 -10 m 256,0,1
 238 -10 238 -10 169 46.5 c 128,-1,2
 100 103 100 103 100 226 c 2,3,-1
 100 517 l 2,4,5
 100 640 100 640 169.5 699.5 c 128,-1,6
 239 759 239 759 343 777 c 2,7,-1
 556 814 l 1,8,-1
 571 728 l 1,9,-1
 358 691 l 2,10,11
 274 677 274 677 232 634.5 c 128,-1,12
 190 592 190 592 190 499 c 2,13,-1
 190 466 l 1,14,-1
 213 466 l 1,15,16
 229 496 229 496 271 518 c 128,-1,17
 313 540 313 540 386 540 c 0,18,19
 492 540 492 540 546 484 c 128,-1,20
 600 428 600 428 600 332 c 2,21,-1
 600 220 l 2,22,23
 600 104 600 104 531 47 c 128,-1,24
 462 -10 462 -10 350 -10 c 256,0,1
349 80 m 256,25,26
 430 80 430 80 464 114.5 c 128,-1,27
 498 149 498 149 498 218 c 2,28,-1
 498 321 l 2,29,30
 498 385 498 385 464 417 c 128,-1,31
 430 449 430 449 349 449 c 256,32,33
 268 449 268 449 234 417 c 128,-1,34
 200 385 200 385 200 321 c 2,35,-1
 200 218 l 2,36,37
 200 149 200 149 234 114.5 c 128,-1,38
 268 80 268 80 349 80 c 256,25,26
EndSplineSet
EndChar

StartChar: vecyrillic
Encoding: 1074 1074 479
Width: 700
GlyphClass: 2
Flags: W
LayerCount: 4
Fore
SplineSet
100 0 m 1,0,-1
 100 600 l 1,1,-1
 346 600 l 2,2,3
 475 600 475 600 538 562.5 c 128,-1,4
 601 525 601 525 601 447 c 2,5,-1
 601 433 l 2,6,7
 601 385 601 385 564 357.5 c 128,-1,8
 527 330 527 330 463 326 c 1,9,-1
 463 304 l 1,10,11
 541 299 541 299 580 263 c 128,-1,12
 619 227 619 227 619 177 c 2,13,-1
 619 167 l 2,14,15
 619 83 619 83 551.5 41.5 c 128,-1,16
 484 0 484 0 346 0 c 2,17,-1
 100 0 l 1,0,-1
200 354 m 1,18,-1
 354 354 l 2,19,20
 438 354 438 354 469.5 368.5 c 128,-1,21
 501 383 501 383 501 423 c 2,22,-1
 501 437 l 2,23,24
 501 480 501 480 468 496.5 c 128,-1,25
 435 513 435 513 346 513 c 2,26,-1
 200 513 l 1,27,-1
 200 354 l 1,18,-1
200 87 m 1,28,-1
 346 87 l 2,29,30
 445 87 445 87 482 106.5 c 128,-1,31
 519 126 519 126 519 177 c 2,32,-1
 519 187 l 2,33,34
 519 237 519 237 484 255.5 c 128,-1,35
 449 274 449 274 354 274 c 2,36,-1
 200 274 l 1,37,-1
 200 87 l 1,28,-1
EndSplineSet
EndChar

StartChar: gecyrillic
Encoding: 1075 1075 480
Width: 700
GlyphClass: 2
Flags: W
LayerCount: 4
Fore
SplineSet
150 0 m 1,0,-1
 150 600 l 1,1,-1
 610 600 l 1,2,-1
 610 510 l 1,3,-1
 250 510 l 1,4,-1
 250 0 l 1,5,-1
 150 0 l 1,0,-1
EndSplineSet
EndChar

StartChar: decyrillic
Encoding: 1076 1076 481
Width: 700
GlyphClass: 2
Flags: W
LayerCount: 4
Fore
SplineSet
226 115 m 1,0,-1
 226 90 l 1,1,-1
 460 90 l 1,2,-1
 460 510 l 1,3,-1
 269 510 l 1,4,-1
 266 253 l 2,5,6
 265 209 265 209 256 175 c 128,-1,7
 247 141 247 141 226 115 c 1,0,-1
140 0 m 1,8,-1
 140 -150 l 1,9,-1
 40 -150 l 1,10,-1
 40 90 l 1,11,-1
 113 90 l 1,12,13
 141 111 141 111 155 151 c 128,-1,14
 169 191 169 191 170 259 c 2,15,-1
 173 600 l 1,16,-1
 560 600 l 1,17,-1
 560 90 l 1,18,-1
 660 90 l 1,19,-1
 660 -150 l 1,20,-1
 560 -150 l 1,21,-1
 560 0 l 1,22,-1
 140 0 l 1,8,-1
EndSplineSet
EndChar

StartChar: zhecyrillic
Encoding: 1078 1078 483
Width: 700
GlyphClass: 2
Flags: W
LayerCount: 4
Fore
SplineSet
274 285 m 1,0,-1
 130 0 l 1,1,-1
 28 0 l 1,2,-1
 202 330 l 1,3,-1
 25 600 l 1,4,-1
 127 600 l 1,5,-1
 274 365 l 1,6,-1
 305 365 l 1,7,-1
 305 600 l 1,8,-1
 395 600 l 1,9,-1
 395 365 l 1,10,-1
 426 365 l 1,11,-1
 573 600 l 1,12,-1
 675 600 l 1,13,-1
 498 331 l 1,14,-1
 672 0 l 1,15,-1
 570 0 l 1,16,-1
 426 285 l 1,17,-1
 395 285 l 1,18,-1
 395 0 l 1,19,-1
 305 0 l 1,20,-1
 305 285 l 1,21,-1
 274 285 l 1,0,-1
EndSplineSet
EndChar

StartChar: zecyrillic
Encoding: 1079 1079 484
Width: 700
GlyphClass: 2
Flags: W
LayerCount: 4
Fore
SplineSet
346 -10 m 0,0,1
 212 -10 212 -10 150.5 34.5 c 128,-1,2
 89 79 89 79 81 182 c 1,3,-1
 180 189 l 1,4,5
 188 123 188 123 225.5 100 c 128,-1,6
 263 77 263 77 346 77 c 0,7,8
 442 77 442 77 480.5 97 c 128,-1,9
 519 117 519 117 519 177 c 2,10,-1
 519 187 l 2,11,12
 519 244 519 244 482 264 c 128,-1,13
 445 284 445 284 354 284 c 2,14,-1
 298 284 l 1,15,-1
 298 364 l 1,16,-1
 354 364 l 2,17,18
 434 364 434 364 467.5 378 c 128,-1,19
 501 392 501 392 501 432 c 2,20,-1
 501 446 l 2,21,22
 501 492 501 492 466 507.5 c 128,-1,23
 431 523 431 523 346 523 c 0,24,25
 273 523 273 523 239 502.5 c 128,-1,26
 205 482 205 482 198 422 c 1,27,-1
 99 430 l 1,28,29
 106 527 106 527 163.5 568.5 c 128,-1,30
 221 610 221 610 346 610 c 0,31,32
 464 610 464 610 532.5 573.5 c 128,-1,33
 601 537 601 537 601 452 c 2,34,-1
 601 438 l 2,35,36
 601 390 601 390 564 362.5 c 128,-1,37
 527 335 527 335 463 331 c 1,38,-1
 463 309 l 1,39,40
 541 304 541 304 580 266 c 128,-1,41
 619 228 619 228 619 177 c 2,42,-1
 619 167 l 2,43,44
 619 83 619 83 558 36.5 c 128,-1,45
 497 -10 497 -10 346 -10 c 0,0,1
EndSplineSet
EndChar

StartChar: iicyrillic
Encoding: 1080 1080 485
Width: 700
GlyphClass: 2
Flags: W
LayerCount: 4
Fore
SplineSet
505 0 m 1,0,-1
 505 482 l 1,1,-1
 233 0 l 1,2,-1
 100 0 l 1,3,-1
 100 600 l 1,4,-1
 195 600 l 1,5,-1
 195 110 l 1,6,-1
 473 600 l 1,7,-1
 600 600 l 1,8,-1
 600 0 l 1,9,-1
 505 0 l 1,0,-1
EndSplineSet
EndChar

StartChar: kacyrillic
Encoding: 1082 1082 487
Width: 700
GlyphClass: 2
Flags: W
LayerCount: 4
Fore
SplineSet
250 273 m 1,0,-1
 250 0 l 1,1,-1
 150 0 l 1,2,-1
 150 600 l 1,3,-1
 250 600 l 1,4,-1
 250 357 l 1,5,-1
 301 357 l 1,6,-1
 493 600 l 1,7,-1
 615 600 l 1,8,-1
 380 321 l 1,9,-1
 612 0 l 1,10,-1
 498 0 l 1,11,-1
 301 273 l 1,12,-1
 250 273 l 1,0,-1
EndSplineSet
EndChar

StartChar: elcyrillic
Encoding: 1083 1083 488
Width: 700
GlyphClass: 2
Flags: W
LayerCount: 4
Fore
SplineSet
500 0 m 1,0,-1
 500 510 l 1,1,-1
 279 510 l 1,2,-1
 276 235 l 2,3,4
 275 107 275 107 227.5 48.5 c 128,-1,5
 180 -10 180 -10 99 -10 c 0,6,7
 79 -10 79 -10 60.5 -6 c 128,-1,8
 42 -2 42 -2 27 2 c 1,9,-1
 44 90 l 1,10,11
 62 84 62 84 72 82 c 128,-1,12
 82 80 82 80 90 80 c 0,13,14
 140 80 140 80 159.5 116.5 c 128,-1,15
 179 153 179 153 180 248 c 2,16,-1
 183 600 l 1,17,-1
 600 600 l 1,18,-1
 600 0 l 1,19,-1
 500 0 l 1,0,-1
EndSplineSet
EndChar

StartChar: emcyrillic
Encoding: 1084 1084 489
Width: 700
GlyphClass: 2
Flags: W
LayerCount: 4
Fore
SplineSet
297 150 m 1,0,-1
 180 504 l 1,1,-1
 180 0 l 1,2,-1
 90 0 l 1,3,-1
 90 600 l 1,4,-1
 245 600 l 1,5,-1
 353 244 l 1,6,-1
 460 600 l 1,7,-1
 610 600 l 1,8,-1
 610 0 l 1,9,-1
 520 0 l 1,10,-1
 518 501 l 1,11,-1
 403 150 l 1,12,-1
 297 150 l 1,0,-1
EndSplineSet
EndChar

StartChar: encyrillic
Encoding: 1085 1085 490
Width: 700
GlyphClass: 2
Flags: W
LayerCount: 4
Fore
SplineSet
100 0 m 1,0,-1
 100 600 l 1,1,-1
 200 600 l 1,2,-1
 200 390 l 1,3,-1
 500 390 l 1,4,-1
 500 600 l 1,5,-1
 600 600 l 1,6,-1
 600 0 l 1,7,-1
 500 0 l 1,8,-1
 500 300 l 1,9,-1
 200 300 l 1,10,-1
 200 0 l 1,11,-1
 100 0 l 1,0,-1
EndSplineSet
EndChar

StartChar: pecyrillic
Encoding: 1087 1087 492
Width: 700
GlyphClass: 2
Flags: W
LayerCount: 4
Fore
SplineSet
100 0 m 1,0,-1
 100 600 l 1,1,-1
 600 600 l 1,2,-1
 600 0 l 1,3,-1
 500 0 l 1,4,-1
 500 510 l 1,5,-1
 200 510 l 1,6,-1
 200 0 l 1,7,-1
 100 0 l 1,0,-1
EndSplineSet
EndChar

StartChar: tecyrillic
Encoding: 1090 1090 495
Width: 700
GlyphClass: 2
Flags: W
LayerCount: 4
Fore
SplineSet
300 0 m 1,0,-1
 300 510 l 1,1,-1
 70 510 l 1,2,-1
 70 600 l 1,3,-1
 630 600 l 1,4,-1
 630 510 l 1,5,-1
 400 510 l 1,6,-1
 400 0 l 1,7,-1
 300 0 l 1,0,-1
EndSplineSet
EndChar

StartChar: efcyrillic
Encoding: 1092 1092 497
Width: 700
GlyphClass: 2
Flags: W
LayerCount: 4
Fore
SplineSet
428 0 m 2,0,-1
 396 0 l 1,1,-1
 396 -200 l 1,2,-1
 304 -200 l 1,3,-1
 304 0 l 1,4,-1
 272 0 l 2,5,6
 173 0 173 0 116.5 63.5 c 128,-1,7
 60 127 60 127 60 239 c 2,8,-1
 60 361 l 2,9,10
 60 473 60 473 116.5 536.5 c 128,-1,11
 173 600 173 600 272 600 c 2,12,-1
 304 600 l 1,13,-1
 304 800 l 1,14,-1
 396 800 l 1,15,-1
 396 600 l 1,16,-1
 428 600 l 2,17,18
 527 600 527 600 583.5 536.5 c 128,-1,19
 640 473 640 473 640 361 c 2,20,-1
 640 239 l 2,21,22
 640 127 640 127 583.5 63.5 c 128,-1,23
 527 0 527 0 428 0 c 2,0,-1
283 85 m 2,24,-1
 309 85 l 1,25,-1
 309 515 l 1,26,-1
 283 515 l 2,27,28
 218 515 218 515 185 475 c 128,-1,29
 152 435 152 435 152 357 c 2,30,-1
 152 241 l 2,31,32
 152 163 152 163 185 124 c 128,-1,33
 218 85 218 85 283 85 c 2,24,-1
417 515 m 2,34,-1
 391 515 l 1,35,-1
 391 85 l 1,36,-1
 417 85 l 2,37,38
 482 85 482 85 515 124 c 128,-1,39
 548 163 548 163 548 241 c 2,40,-1
 548 357 l 2,41,42
 548 435 548 435 515 475 c 128,-1,43
 482 515 482 515 417 515 c 2,34,-1
EndSplineSet
EndChar

StartChar: tsecyrillic
Encoding: 1094 1094 499
Width: 700
GlyphClass: 2
Flags: W
LayerCount: 4
Fore
SplineSet
555 -150 m 1,0,-1
 555 0 l 1,1,-1
 100 0 l 1,2,-1
 100 600 l 1,3,-1
 200 600 l 1,4,-1
 200 90 l 1,5,-1
 450 90 l 1,6,-1
 450 600 l 1,7,-1
 550 600 l 1,8,-1
 550 90 l 1,9,-1
 650 90 l 1,10,-1
 650 -150 l 1,11,-1
 555 -150 l 1,0,-1
EndSplineSet
EndChar

StartChar: checyrillic
Encoding: 1095 1095 500
Width: 700
GlyphClass: 2
Flags: W
LayerCount: 4
Fore
SplineSet
550 600 m 1,0,-1
 550 0 l 1,1,-1
 450 0 l 1,2,-1
 450 211 l 1,3,4
 425 201 425 201 392 195.5 c 128,-1,5
 359 190 359 190 320 190 c 0,6,7
 198 190 198 190 139 244.5 c 128,-1,8
 80 299 80 299 80 411 c 2,9,-1
 80 600 l 1,10,-1
 180 600 l 1,11,-1
 180 413 l 2,12,13
 180 336 180 336 218 307.5 c 128,-1,14
 256 279 256 279 321 278 c 0,15,16
 362 277 362 277 396.5 286 c 128,-1,17
 431 295 431 295 450 307 c 1,18,-1
 450 600 l 1,19,-1
 550 600 l 1,0,-1
EndSplineSet
EndChar

StartChar: shacyrillic
Encoding: 1096 1096 501
Width: 700
GlyphClass: 2
Flags: W
LayerCount: 4
Fore
SplineSet
60 0 m 1,0,-1
 60 600 l 1,1,-1
 152 600 l 1,2,-1
 152 82 l 1,3,-1
 304 82 l 1,4,-1
 304 600 l 1,5,-1
 396 600 l 1,6,-1
 396 82 l 1,7,-1
 548 82 l 1,8,-1
 548 600 l 1,9,-1
 640 600 l 1,10,-1
 640 0 l 1,11,-1
 60 0 l 1,0,-1
EndSplineSet
EndChar

StartChar: shchacyrillic
Encoding: 1097 1097 502
Width: 700
GlyphClass: 2
Flags: W
LayerCount: 4
Fore
SplineSet
695 -150 m 1,0,-1
 603 -150 l 1,1,-1
 603 0 l 1,2,-1
 60 0 l 1,3,-1
 60 600 l 1,4,-1
 152 600 l 1,5,-1
 152 82 l 1,6,-1
 304 82 l 1,7,-1
 304 600 l 1,8,-1
 396 600 l 1,9,-1
 396 82 l 1,10,-1
 548 82 l 1,11,-1
 548 600 l 1,12,-1
 640 600 l 1,13,-1
 640 90 l 1,14,-1
 695 90 l 1,15,-1
 695 -150 l 1,0,-1
EndSplineSet
EndChar

StartChar: hardsigncyrillic
Encoding: 1098 1098 503
Width: 700
GlyphClass: 2
Flags: W
LayerCount: 4
Fore
SplineSet
421 0 m 2,0,-1
 150 0 l 1,1,-1
 150 510 l 1,2,-1
 0 510 l 1,3,-1
 0 600 l 1,4,-1
 250 600 l 1,5,-1
 250 400 l 1,6,-1
 420 400 l 2,7,8
 519 400 519 400 574.5 353 c 128,-1,9
 630 306 630 306 630 223 c 2,10,-1
 630 181 l 2,11,12
 630 96 630 96 574.5 48 c 128,-1,13
 519 0 519 0 421 0 c 2,0,-1
250 90 m 1,14,-1
 400 90 l 2,15,16
 468 90 468 90 499 111.5 c 128,-1,17
 530 133 530 133 530 181 c 2,18,-1
 530 223 l 2,19,20
 530 270 530 270 499 291 c 128,-1,21
 468 312 468 312 400 312 c 2,22,-1
 250 312 l 1,23,-1
 250 90 l 1,14,-1
EndSplineSet
EndChar

StartChar: yericyrillic
Encoding: 1099 1099 504
Width: 700
GlyphClass: 2
Flags: W
LayerCount: 4
Fore
SplineSet
80 0 m 1,0,-1
 80 600 l 1,1,-1
 172 600 l 1,2,-1
 172 400 l 1,3,-1
 260 400 l 2,4,5
 344 400 344 400 392 353 c 128,-1,6
 440 306 440 306 440 223 c 2,7,-1
 440 181 l 2,8,9
 440 96 440 96 392.5 48 c 128,-1,10
 345 0 345 0 261 0 c 2,11,-1
 80 0 l 1,0,-1
528 0 m 1,12,-1
 528 600 l 1,13,-1
 620 600 l 1,14,-1
 620 0 l 1,15,-1
 528 0 l 1,12,-1
172 86 m 1,16,-1
 240 86 l 2,17,18
 297 86 297 86 322.5 108.5 c 128,-1,19
 348 131 348 131 348 181 c 2,20,-1
 348 223 l 2,21,22
 348 272 348 272 322.5 294 c 128,-1,23
 297 316 297 316 240 316 c 2,24,-1
 172 316 l 1,25,-1
 172 86 l 1,16,-1
EndSplineSet
EndChar

StartChar: softsigncyrillic
Encoding: 1100 1100 505
Width: 700
GlyphClass: 2
Flags: W
LayerCount: 4
Fore
SplineSet
100 0 m 1,0,-1
 100 600 l 1,1,-1
 200 600 l 1,2,-1
 200 400 l 1,3,-1
 420 400 l 2,4,5
 519 400 519 400 574.5 353 c 128,-1,6
 630 306 630 306 630 223 c 2,7,-1
 630 181 l 2,8,9
 630 96 630 96 574.5 48 c 128,-1,10
 519 0 519 0 421 0 c 2,11,-1
 100 0 l 1,0,-1
200 90 m 1,12,-1
 400 90 l 2,13,14
 468 90 468 90 499 111.5 c 128,-1,15
 530 133 530 133 530 181 c 2,16,-1
 530 223 l 2,17,18
 530 270 530 270 499 291 c 128,-1,19
 468 312 468 312 400 312 c 2,20,-1
 200 312 l 1,21,-1
 200 90 l 1,12,-1
EndSplineSet
EndChar

StartChar: ereversedcyrillic
Encoding: 1101 1101 506
Width: 700
GlyphClass: 2
Flags: W
LayerCount: 4
Fore
SplineSet
336 -10 m 0,0,1
 220 -10 220 -10 158 37 c 128,-1,2
 96 84 96 84 89 176 c 1,3,-1
 187 182 l 1,4,5
 190 131 190 131 227 105.5 c 128,-1,6
 264 80 264 80 336 80 c 0,7,8
 419 80 419 80 459.5 114 c 128,-1,9
 500 148 500 148 500 217 c 2,10,-1
 500 270 l 1,11,-1
 273 270 l 1,12,-1
 273 350 l 1,13,-1
 500 350 l 1,14,-1
 500 379 l 2,15,16
 500 451 500 451 460 485.5 c 128,-1,17
 420 520 420 520 338 520 c 0,18,19
 265 520 265 520 228 490 c 128,-1,20
 191 460 191 460 187 398 c 1,21,-1
 89 404 l 1,22,23
 96 505 96 505 158.5 557.5 c 128,-1,24
 221 610 221 610 337 610 c 0,25,26
 467 610 467 610 533.5 551.5 c 128,-1,27
 600 493 600 493 600 379 c 2,28,-1
 600 217 l 2,29,30
 600 105 600 105 533.5 47.5 c 128,-1,31
 467 -10 467 -10 336 -10 c 0,0,1
EndSplineSet
EndChar

StartChar: iucyrillic
Encoding: 1102 1102 507
Width: 700
GlyphClass: 2
Flags: W
LayerCount: 4
Fore
SplineSet
445 -10 m 0,0,1
 344 -10 344 -10 297 46 c 128,-1,2
 250 102 250 102 250 197 c 2,3,-1
 250 290 l 1,4,-1
 160 290 l 1,5,-1
 160 0 l 1,6,-1
 60 0 l 1,7,-1
 60 600 l 1,8,-1
 160 600 l 1,9,-1
 160 380 l 1,10,-1
 250 380 l 1,11,-1
 250 399 l 2,12,13
 250 495 250 495 297.5 552.5 c 128,-1,14
 345 610 345 610 446 610 c 0,15,16
 548 610 548 610 594 552.5 c 128,-1,17
 640 495 640 495 640 399 c 2,18,-1
 640 197 l 2,19,20
 640 102 640 102 593.5 46 c 128,-1,21
 547 -10 547 -10 445 -10 c 0,0,1
445 80 m 256,22,23
 501 80 501 80 525.5 107.5 c 128,-1,24
 550 135 550 135 550 197 c 2,25,-1
 550 399 l 2,26,27
 550 463 550 463 525.5 491.5 c 128,-1,28
 501 520 501 520 445 520 c 256,29,30
 389 520 389 520 364.5 491.5 c 128,-1,31
 340 463 340 463 340 399 c 2,32,-1
 340 197 l 2,33,34
 340 135 340 135 364.5 107.5 c 128,-1,35
 389 80 389 80 445 80 c 256,22,23
EndSplineSet
EndChar

StartChar: iacyrillic
Encoding: 1103 1103 508
Width: 700
GlyphClass: 2
Flags: W
LayerCount: 4
Fore
SplineSet
300 298 m 2,0,-1
 500 298 l 1,1,-1
 500 510 l 1,2,-1
 300 510 l 2,3,4
 247 510 247 510 223.5 489 c 128,-1,5
 200 468 200 468 200 419 c 2,6,-1
 200 397 l 2,7,8
 200 345 200 345 223.5 321.5 c 128,-1,9
 247 298 247 298 300 298 c 2,0,-1
500 210 m 1,10,-1
 403 210 l 1,11,-1
 214 0 l 1,12,-1
 91 0 l 1,13,-1
 280 211 l 1,14,15
 193 215 193 215 146.5 262 c 128,-1,16
 100 309 100 309 100 393 c 2,17,-1
 100 415 l 2,18,19
 100 504 100 504 151.5 552 c 128,-1,20
 203 600 203 600 299 600 c 2,21,-1
 600 600 l 1,22,-1
 600 0 l 1,23,-1
 500 0 l 1,24,-1
 500 210 l 1,10,-1
EndSplineSet
EndChar

StartChar: djecyrillic
Encoding: 1106 1106 511
Width: 700
GlyphClass: 2
Flags: W
LayerCount: 4
Fore
SplineSet
398 -208 m 0,0,1
 369 -208 369 -208 337 -202 c 128,-1,2
 305 -196 305 -196 271 -186 c 1,3,-1
 291 -90 l 1,4,5
 319 -100 319 -100 345.5 -106 c 128,-1,6
 372 -112 372 -112 395 -112 c 0,7,8
 442 -112 442 -112 471 -84.5 c 128,-1,9
 500 -57 500 -57 500 7 c 2,10,-1
 500 354 l 2,11,12
 500 408 500 408 469.5 436.5 c 128,-1,13
 439 465 439 465 382 465 c 0,14,15
 337 465 337 465 290 438 c 128,-1,16
 243 411 243 411 200 360 c 1,17,-1
 200 0 l 1,18,-1
 100 0 l 1,19,-1
 100 630 l 1,20,-1
 0 630 l 1,21,-1
 0 710 l 1,22,-1
 100 710 l 1,23,-1
 100 800 l 1,24,-1
 200 800 l 1,25,-1
 200 710 l 1,26,-1
 400 710 l 1,27,-1
 400 630 l 1,28,-1
 200 630 l 1,29,-1
 200 450 l 1,30,-1
 230 450 l 1,31,32
 252 501 252 501 301.5 530.5 c 128,-1,33
 351 560 351 560 414 560 c 0,34,35
 500 560 500 560 550 511 c 128,-1,36
 600 462 600 462 600 378 c 2,37,-1
 600 -6 l 2,38,39
 600 -109 600 -109 542.5 -158.5 c 128,-1,40
 485 -208 485 -208 398 -208 c 0,0,1
EndSplineSet
EndChar

StartChar: ecyrillic
Encoding: 1108 1108 513
Width: 700
GlyphClass: 2
Flags: W
LayerCount: 4
Fore
SplineSet
611 176 m 1,0,1
 604 84 604 84 542 37 c 128,-1,2
 480 -10 480 -10 364 -10 c 0,3,4
 233 -10 233 -10 166.5 47.5 c 128,-1,5
 100 105 100 105 100 217 c 2,6,-1
 100 379 l 2,7,8
 100 493 100 493 166.5 551.5 c 128,-1,9
 233 610 233 610 363 610 c 0,10,11
 479 610 479 610 541.5 557.5 c 128,-1,12
 604 505 604 505 611 404 c 1,13,-1
 513 398 l 1,14,15
 509 460 509 460 472 490 c 128,-1,16
 435 520 435 520 362 520 c 0,17,18
 280 520 280 520 240 485.5 c 128,-1,19
 200 451 200 451 200 379 c 2,20,-1
 200 350 l 1,21,-1
 427 350 l 1,22,-1
 427 270 l 1,23,-1
 200 270 l 1,24,-1
 200 217 l 2,25,26
 200 148 200 148 240.5 114 c 128,-1,27
 281 80 281 80 364 80 c 0,28,29
 436 80 436 80 473 105.5 c 128,-1,30
 510 131 510 131 513 182 c 1,31,-1
 611 176 l 1,0,1
EndSplineSet
EndChar

StartChar: ljecyrillic
Encoding: 1113 1113 518
Width: 700
GlyphClass: 2
Flags: W
LayerCount: 4
Fore
SplineSet
212 510 m 1,0,-1
 202 144 l 2,1,2
 200 65 200 65 159.5 28.5 c 128,-1,3
 119 -8 119 -8 62 -8 c 0,4,5
 45 -8 45 -8 27 -5 c 128,-1,6
 9 -2 9 -2 -9 4 c 1,7,-1
 11 100 l 1,8,9
 23 96 23 96 35.5 93 c 128,-1,10
 48 90 48 90 58 90 c 0,11,12
 79 90 79 90 94 104 c 128,-1,13
 109 118 109 118 110 157 c 2,14,-1
 122 600 l 1,15,-1
 406 600 l 1,16,-1
 406 400 l 1,17,-1
 490 400 l 2,18,19
 564 400 564 400 607 353.5 c 128,-1,20
 650 307 650 307 650 228 c 2,21,-1
 650 166 l 2,22,23
 650 89 650 89 607 44.5 c 128,-1,24
 564 0 564 0 491 0 c 2,25,-1
 314 0 l 1,26,-1
 314 510 l 1,27,-1
 212 510 l 1,0,-1
406 86 m 1,28,-1
 470 86 l 2,29,30
 515 87 515 87 536.5 109 c 128,-1,31
 558 131 558 131 558 177 c 2,32,-1
 558 227 l 2,33,34
 558 272 558 272 536.5 294 c 128,-1,35
 515 316 515 316 470 316 c 2,36,-1
 406 316 l 1,37,-1
 406 86 l 1,28,-1
EndSplineSet
EndChar

StartChar: njecyrillic
Encoding: 1114 1114 519
Width: 700
GlyphClass: 2
Flags: W
LayerCount: 4
Fore
SplineSet
396 86 m 1,0,-1
 460 86 l 2,1,2
 505 86 505 86 526.5 106 c 128,-1,3
 548 126 548 126 548 166 c 2,4,-1
 548 228 l 2,5,6
 548 273 548 273 526.5 294.5 c 128,-1,7
 505 316 505 316 460 316 c 2,8,-1
 396 316 l 1,9,-1
 396 86 l 1,0,-1
152 304 m 1,10,-1
 152 0 l 1,11,-1
 60 0 l 1,12,-1
 60 600 l 1,13,-1
 152 600 l 1,14,-1
 152 390 l 1,15,-1
 304 390 l 1,16,-1
 304 600 l 1,17,-1
 396 600 l 1,18,-1
 396 400 l 1,19,-1
 480 400 l 2,20,21
 554 400 554 400 597 353.5 c 128,-1,22
 640 307 640 307 640 228 c 2,23,-1
 640 166 l 2,24,25
 640 89 640 89 597 44.5 c 128,-1,26
 554 0 554 0 481 0 c 2,27,-1
 304 0 l 1,28,-1
 304 304 l 1,29,-1
 152 304 l 1,10,-1
EndSplineSet
EndChar

StartChar: dzhecyrillic
Encoding: 1119 1119 524
Width: 700
GlyphClass: 2
Flags: W
LayerCount: 4
Fore
SplineSet
302 -150 m 1,0,-1
 302 0 l 1,1,-1
 100 0 l 1,2,-1
 100 600 l 1,3,-1
 200 600 l 1,4,-1
 200 90 l 1,5,-1
 500 90 l 1,6,-1
 500 600 l 1,7,-1
 600 600 l 1,8,-1
 600 0 l 1,9,-1
 398 0 l 1,10,-1
 398 -150 l 1,11,-1
 302 -150 l 1,0,-1
EndSplineSet
EndChar

StartChar: Gheupturncyrillic
Encoding: 1168 1168 525
Width: 700
GlyphClass: 2
Flags: W
LayerCount: 4
Fore
SplineSet
100 0 m 1,0,-1
 100 800 l 1,1,-1
 520 800 l 1,2,-1
 520 950 l 1,3,-1
 620 950 l 1,4,-1
 620 710 l 1,5,-1
 200 710 l 1,6,-1
 200 0 l 1,7,-1
 100 0 l 1,0,-1
EndSplineSet
EndChar

StartChar: gheupturncyrillic
Encoding: 1169 1169 526
Width: 700
GlyphClass: 2
Flags: W
LayerCount: 4
Fore
SplineSet
150 0 m 1,0,-1
 150 600 l 1,1,-1
 515 600 l 1,2,-1
 515 750 l 1,3,-1
 610 750 l 1,4,-1
 610 510 l 1,5,-1
 250 510 l 1,6,-1
 250 0 l 1,7,-1
 150 0 l 1,0,-1
EndSplineSet
EndChar

StartChar: endash
Encoding: 8211 8211 545
Width: 700
GlyphClass: 2
Flags: W
LayerCount: 4
Fore
SplineSet
100 300 m 1,0,-1
 100 400 l 1,1,-1
 600 400 l 1,2,-1
 600 300 l 1,3,-1
 100 300 l 1,0,-1
EndSplineSet
EndChar

StartChar: emdash
Encoding: 8212 8212 546
Width: 700
GlyphClass: 2
Flags: W
LayerCount: 4
Fore
SplineSet
0 300 m 1,0,-1
 0 400 l 1,1,-1
 700 400 l 1,2,-1
 700 300 l 1,3,-1
 0 300 l 1,0,-1
EndSplineSet
EndChar

StartChar: horizontalbar
Encoding: 8213 8213 547
Width: 700
GlyphClass: 2
Flags: W
LayerCount: 4
Fore
SplineSet
0 300 m 1,0,-1
 0 400 l 1,1,-1
 700 400 l 1,2,-1
 700 300 l 1,3,-1
 0 300 l 1,0,-1
EndSplineSet
EndChar

StartChar: quoteright
Encoding: 8217 8217 549
Width: 700
GlyphClass: 2
Flags: W
LayerCount: 4
Fore
SplineSet
190 400 m 1,0,-1
 300 800 l 1,1,-1
 499 800 l 1,2,-1
 274 400 l 1,3,-1
 190 400 l 1,0,-1
EndSplineSet
EndChar

StartChar: quotedblleft
Encoding: 8220 8220 552
Width: 700
GlyphClass: 2
Flags: W
LayerCount: 4
Fore
SplineSet
351 400 m 1,0,-1
 576 800 l 1,1,-1
 650 800 l 1,2,-1
 540 400 l 1,3,-1
 351 400 l 1,0,-1
51 400 m 1,4,-1
 276 800 l 1,5,-1
 350 800 l 1,6,-1
 240 400 l 1,7,-1
 51 400 l 1,4,-1
EndSplineSet
EndChar

StartChar: quotedblright
Encoding: 8221 8221 553
Width: 700
GlyphClass: 2
Flags: W
LayerCount: 4
Fore
SplineSet
350 400 m 1,0,-1
 460 800 l 1,1,-1
 649 800 l 1,2,-1
 424 400 l 1,3,-1
 350 400 l 1,0,-1
50 400 m 1,4,-1
 160 800 l 1,5,-1
 349 800 l 1,6,-1
 124 400 l 1,7,-1
 50 400 l 1,4,-1
EndSplineSet
EndChar

StartChar: dagger
Encoding: 8224 8224 555
Width: 700
GlyphClass: 2
Flags: W
LayerCount: 4
Fore
SplineSet
300 -200 m 1,0,-1
 300 510 l 1,1,-1
 200 510 l 1,2,-1
 160 300 l 1,3,-1
 80 300 l 1,4,-1
 110 600 l 1,5,-1
 297 600 l 1,6,-1
 290 800 l 1,7,-1
 410 800 l 1,8,-1
 403 600 l 1,9,-1
 590 600 l 1,10,-1
 620 300 l 1,11,-1
 540 300 l 1,12,-1
 500 510 l 1,13,-1
 400 510 l 1,14,-1
 400 -200 l 1,15,-1
 300 -200 l 1,0,-1
EndSplineSet
EndChar

StartChar: daggerdbl
Encoding: 8225 8225 556
Width: 700
GlyphClass: 2
Flags: W
LayerCount: 4
Fore
SplineSet
290 -200 m 1,0,-1
 297 0 l 1,1,-1
 110 0 l 1,2,-1
 80 230 l 1,3,-1
 160 230 l 1,4,-1
 200 90 l 1,5,-1
 300 90 l 1,6,-1
 300 510 l 1,7,-1
 200 510 l 1,8,-1
 160 370 l 1,9,-1
 80 370 l 1,10,-1
 110 600 l 1,11,-1
 297 600 l 1,12,-1
 290 800 l 1,13,-1
 410 800 l 1,14,-1
 403 600 l 1,15,-1
 590 600 l 1,16,-1
 620 370 l 1,17,-1
 540 370 l 1,18,-1
 500 510 l 1,19,-1
 400 510 l 1,20,-1
 400 90 l 1,21,-1
 500 90 l 1,22,-1
 540 230 l 1,23,-1
 620 230 l 1,24,-1
 590 0 l 1,25,-1
 403 0 l 1,26,-1
 410 -200 l 1,27,-1
 290 -200 l 1,0,-1
EndSplineSet
EndChar

StartChar: bullet
Encoding: 8226 8226 557
Width: 700
GlyphClass: 2
Flags: W
LayerCount: 4
Fore
SplineSet
351 236 m 0,0,1
 276 236 276 236 229.5 266.5 c 128,-1,2
 183 297 183 297 183 362 c 2,3,-1
 183 434 l 2,4,5
 183 500 183 500 229.5 531.5 c 128,-1,6
 276 563 276 563 351 563 c 256,7,8
 426 563 426 563 472 531.5 c 128,-1,9
 518 500 518 500 518 434 c 2,10,-1
 518 362 l 2,11,12
 518 297 518 297 471 266.5 c 128,-1,13
 424 236 424 236 351 236 c 0,0,1
EndSplineSet
EndChar

StartChar: ellipsis
Encoding: 8230 8230 558
Width: 700
GlyphClass: 2
Flags: W
LayerCount: 4
Fore
SplineSet
589 -9 m 256,0,1
 558 -9 558 -9 538 11.5 c 128,-1,2
 518 32 518 32 518 75 c 2,3,-1
 518 123 l 2,4,5
 518 167 518 167 538 188 c 128,-1,6
 558 209 558 209 589 209 c 0,7,8
 621 209 621 209 640.5 188 c 128,-1,9
 660 167 660 167 660 123 c 2,10,-1
 660 75 l 2,11,12
 660 32 660 32 640 11.5 c 128,-1,13
 620 -9 620 -9 589 -9 c 256,0,1
350 -9 m 256,14,15
 319 -9 319 -9 299 11.5 c 128,-1,16
 279 32 279 32 279 75 c 2,17,-1
 279 123 l 2,18,19
 279 167 279 167 299 188 c 128,-1,20
 319 209 319 209 350 209 c 0,21,22
 382 209 382 209 401.5 188 c 128,-1,23
 421 167 421 167 421 123 c 2,24,-1
 421 75 l 2,25,26
 421 32 421 32 401 11.5 c 128,-1,27
 381 -9 381 -9 350 -9 c 256,14,15
112 -9 m 0,28,29
 80 -9 80 -9 60 11.5 c 128,-1,30
 40 32 40 32 40 75 c 2,31,-1
 40 123 l 2,32,33
 40 167 40 167 60 188 c 128,-1,34
 80 209 80 209 112 209 c 0,35,36
 143 209 143 209 162.5 188 c 128,-1,37
 182 167 182 167 182 123 c 2,38,-1
 182 75 l 2,39,40
 182 32 182 32 162.5 11.5 c 128,-1,41
 143 -9 143 -9 112 -9 c 0,28,29
EndSplineSet
EndChar

StartChar: perthousand
Encoding: 8240 8240 559
Width: 700
GlyphClass: 2
Flags: W
LayerCount: 4
Fore
SplineSet
175 448 m 256,0,1
 115 448 115 448 77.5 483.5 c 128,-1,2
 40 519 40 519 40 593 c 2,3,-1
 40 673 l 2,4,5
 40 748 40 748 77.5 784 c 128,-1,6
 115 820 115 820 175 820 c 256,7,8
 235 820 235 820 272 784 c 128,-1,9
 309 748 309 748 309 673 c 2,10,-1
 309 593 l 2,11,12
 309 519 309 519 272 483.5 c 128,-1,13
 235 448 235 448 175 448 c 256,0,1
130 591 m 2,14,15
 130 558 130 558 142 543.5 c 128,-1,16
 154 529 154 529 175 529 c 256,17,18
 196 529 196 529 207.5 543.5 c 128,-1,19
 219 558 219 558 219 591 c 2,20,-1
 219 675 l 2,21,22
 219 708 219 708 207.5 723.5 c 128,-1,23
 196 739 196 739 175 739 c 256,24,25
 154 739 154 739 142 723.5 c 128,-1,26
 130 708 130 708 130 675 c 2,27,-1
 130 591 l 2,14,15
630 639 m 1,28,-1
 69 110 l 1,29,-1
 15 168 l 1,30,-1
 575 697 l 1,31,-1
 630 639 l 1,28,-1
576 -22 m 0,32,33
 548 -22 548 -22 526.5 -10 c 128,-1,34
 505 2 505 2 492 26 c 1,35,36
 478 2 478 2 456.5 -10 c 128,-1,37
 435 -22 435 -22 408 -22 c 0,38,39
 361 -22 361 -22 332 13.5 c 128,-1,40
 303 49 303 49 303 123 c 2,41,-1
 303 203 l 2,42,43
 303 278 303 278 332.5 314 c 128,-1,44
 362 350 362 350 408 350 c 0,45,46
 436 350 436 350 457.5 338 c 128,-1,47
 479 326 479 326 492 301 c 1,48,49
 505 326 505 326 527 338 c 128,-1,50
 549 350 549 350 576 350 c 0,51,52
 623 350 623 350 651.5 314 c 128,-1,53
 680 278 680 278 680 203 c 2,54,-1
 680 123 l 2,55,56
 680 49 680 49 651 13.5 c 128,-1,57
 622 -22 622 -22 576 -22 c 0,32,33
383 111 m 2,58,59
 383 78 383 78 392.5 63.5 c 128,-1,60
 402 49 402 49 418 49 c 256,61,62
 434 49 434 49 443 63.5 c 128,-1,63
 452 78 452 78 452 111 c 2,64,-1
 452 215 l 2,65,66
 452 248 452 248 443 263.5 c 128,-1,67
 434 279 434 279 418 279 c 256,68,69
 402 279 402 279 392.5 263.5 c 128,-1,70
 383 248 383 248 383 215 c 2,71,-1
 383 111 l 2,58,59
531 111 m 2,72,73
 531 78 531 78 540.5 63.5 c 128,-1,74
 550 49 550 49 566 49 c 256,75,76
 582 49 582 49 591 63.5 c 128,-1,77
 600 78 600 78 600 111 c 2,78,-1
 600 215 l 2,79,80
 600 248 600 248 591 263.5 c 128,-1,81
 582 279 582 279 566 279 c 256,82,83
 550 279 550 279 540.5 263.5 c 128,-1,84
 531 248 531 248 531 215 c 2,85,-1
 531 111 l 2,72,73
EndSplineSet
EndChar

StartChar: guilsinglleft
Encoding: 8249 8249 562
Width: 700
GlyphClass: 2
Flags: W
LayerCount: 4
Fore
SplineSet
500 100 m 1,0,-1
 200 300 l 1,1,-1
 200 400 l 1,2,-1
 500 600 l 1,3,-1
 500 505 l 1,4,-1
 268 350 l 1,5,-1
 500 195 l 1,6,-1
 500 100 l 1,0,-1
EndSplineSet
EndChar

StartChar: guilsinglright
Encoding: 8250 8250 563
Width: 700
GlyphClass: 2
Flags: W
LayerCount: 4
Fore
SplineSet
200 100 m 1,0,-1
 200 195 l 1,1,-1
 433 350 l 1,2,-1
 200 505 l 1,3,-1
 200 600 l 1,4,-1
 500 400 l 1,5,-1
 500 300 l 1,6,-1
 200 100 l 1,0,-1
EndSplineSet
EndChar

StartChar: exclamdbl
Encoding: 8252 8252 564
Width: 700
GlyphClass: 2
Flags: W
LayerCount: 4
Fore
SplineSet
450 300 m 1,0,-1
 420 800 l 1,1,-1
 560 800 l 1,2,-1
 530 300 l 1,3,-1
 450 300 l 1,0,-1
170 300 m 1,4,-1
 140 800 l 1,5,-1
 280 800 l 1,6,-1
 250 300 l 1,7,-1
 170 300 l 1,4,-1
491 -10 m 256,8,9
 466 -10 466 -10 447.5 -5 c 128,-1,10
 429 0 429 0 417 10 c 0,11,12
 406 21 406 21 400 36.5 c 128,-1,13
 394 52 394 52 394 74 c 2,14,-1
 394 102 l 2,15,16
 394 124 394 124 400 140.5 c 128,-1,17
 406 157 406 157 417 167 c 0,18,19
 429 178 429 178 447.5 183 c 128,-1,20
 466 188 466 188 491 188 c 256,21,22
 516 188 516 188 534 183 c 128,-1,23
 552 178 552 178 564 167 c 0,24,25
 576 157 576 157 581.5 140.5 c 128,-1,26
 587 124 587 124 587 102 c 2,27,-1
 587 74 l 2,28,29
 587 52 587 52 581 36.5 c 128,-1,30
 575 21 575 21 563 10 c 0,31,32
 552 0 552 0 534 -5 c 128,-1,33
 516 -10 516 -10 491 -10 c 256,8,9
211 -10 m 256,34,35
 186 -10 186 -10 167.5 -5 c 128,-1,36
 149 0 149 0 137 10 c 0,37,38
 126 21 126 21 120 36.5 c 128,-1,39
 114 52 114 52 114 74 c 2,40,-1
 114 102 l 2,41,42
 114 124 114 124 120 140.5 c 128,-1,43
 126 157 126 157 137 167 c 0,44,45
 149 178 149 178 167.5 183 c 128,-1,46
 186 188 186 188 211 188 c 256,47,48
 236 188 236 188 254 183 c 128,-1,49
 272 178 272 178 284 167 c 0,50,51
 296 157 296 157 301.5 140.5 c 128,-1,52
 307 124 307 124 307 102 c 2,53,-1
 307 74 l 2,54,55
 307 52 307 52 301 36.5 c 128,-1,56
 295 21 295 21 283 10 c 0,57,58
 272 0 272 0 254 -5 c 128,-1,59
 236 -10 236 -10 211 -10 c 256,34,35
EndSplineSet
EndChar

StartChar: fraction
Encoding: 8725 8725 566
AltUni2: 002044.ffffffff.0
Width: 700
GlyphClass: 2
Flags: W
LayerCount: 4
Fore
SplineSet
100 0 m 1,0,-1
 500 800 l 1,1,-1
 600 800 l 1,2,-1
 200 0 l 1,3,-1
 100 0 l 1,0,-1
EndSplineSet
EndChar

StartChar: zero.sups
Encoding: 8304 8304 567
Width: 700
GlyphClass: 2
Flags: W
LayerCount: 4
Fore
SplineSet
350 298 m 0,0,1
 247 298 247 298 197 356 c 128,-1,2
 147 414 147 414 147 513 c 2,3,-1
 147 588 l 2,4,5
 147 689 147 689 197.5 747.5 c 128,-1,6
 248 806 248 806 351 806 c 256,7,8
 454 806 454 806 504 747.5 c 128,-1,9
 554 689 554 689 554 588 c 2,10,-1
 554 513 l 2,11,12
 554 414 554 414 504 356 c 128,-1,13
 454 298 454 298 350 298 c 0,0,1
350 368 m 256,14,15
 412 368 412 368 437.5 402.5 c 128,-1,16
 463 437 463 437 463 522 c 2,17,-1
 463 579 l 2,18,19
 463 666 463 666 437.5 701 c 128,-1,20
 412 736 412 736 350 736 c 256,21,22
 288 736 288 736 262.5 701 c 128,-1,23
 237 666 237 666 237 579 c 2,24,-1
 237 522 l 2,25,26
 237 437 237 437 262.5 402.5 c 128,-1,27
 288 368 288 368 350 368 c 256,14,15
EndSplineSet
EndChar

StartChar: four.sups
Encoding: 8308 8308 568
Width: 700
GlyphClass: 2
Flags: W
LayerCount: 4
Fore
SplineSet
223 500 m 1,0,-1
 398 500 l 1,1,-1
 398 728 l 1,2,-1
 223 500 l 1,0,-1
582 430 m 1,3,-1
 489 430 l 1,4,-1
 489 304 l 1,5,-1
 398 304 l 1,6,-1
 398 430 l 1,7,-1
 144 430 l 1,8,-1
 144 500 l 1,9,-1
 370 800 l 1,10,-1
 489 800 l 1,11,-1
 489 500 l 1,12,-1
 582 500 l 1,13,-1
 582 430 l 1,3,-1
EndSplineSet
EndChar

StartChar: five.sups
Encoding: 8309 8309 569
Width: 700
GlyphClass: 2
Flags: W
LayerCount: 4
Fore
SplineSet
350 298 m 0,0,1
 242 298 242 298 195 330 c 128,-1,2
 148 362 148 362 144 450 c 1,3,-1
 234 456 l 1,4,5
 239 401 239 401 262 384.5 c 128,-1,6
 285 368 285 368 350 368 c 0,7,8
 410 368 410 368 435 385.5 c 128,-1,9
 460 403 460 403 460 446 c 2,10,-1
 460 471 l 2,11,12
 460 512 460 512 436 529 c 128,-1,13
 412 546 412 546 354 546 c 2,14,-1
 162 546 l 1,15,-1
 162 800 l 1,16,-1
 529 800 l 1,17,-1
 529 730 l 1,18,-1
 253 730 l 1,19,-1
 253 621 l 1,20,-1
 375 621 l 2,21,22
 459 621 459 621 505 587.5 c 128,-1,23
 551 554 551 554 551 484 c 2,24,-1
 551 435 l 2,25,26
 551 375 551 375 501 336.5 c 128,-1,27
 451 298 451 298 350 298 c 0,0,1
EndSplineSet
EndChar

StartChar: six.sups
Encoding: 8310 8310 570
Width: 700
GlyphClass: 2
Flags: W
LayerCount: 4
Fore
SplineSet
350 299 m 0,0,1
 245 299 245 299 197.5 347 c 128,-1,2
 150 395 150 395 150 476 c 2,3,-1
 150 626 l 2,4,5
 150 709 150 709 197 758 c 128,-1,6
 244 807 244 807 352 807 c 0,7,8
 448 807 448 807 490 776 c 128,-1,9
 532 745 532 745 545 685 c 1,10,-1
 449 670 l 1,11,12
 441 709 441 709 420 723 c 128,-1,13
 399 737 399 737 346 737 c 0,14,15
 280 737 280 737 260.5 706.5 c 128,-1,16
 241 676 241 676 241 626 c 2,17,-1
 241 570 l 1,18,-1
 247 570 l 1,19,20
 266 591 266 591 297.5 603 c 128,-1,21
 329 615 329 615 375 615 c 0,22,23
 471 615 471 615 511 574.5 c 128,-1,24
 551 534 551 534 551 467 c 2,25,-1
 551 454 l 2,26,27
 551 388 551 388 503.5 343.5 c 128,-1,28
 456 299 456 299 350 299 c 0,0,1
350 369 m 0,29,30
 413 369 413 369 436 393 c 128,-1,31
 459 417 459 417 459 454 c 2,32,-1
 459 462 l 2,33,34
 459 501 459 501 435 525.5 c 128,-1,35
 411 550 411 550 350 550 c 256,36,37
 289 550 289 550 265 525.5 c 128,-1,38
 241 501 241 501 241 462 c 2,39,-1
 241 454 l 2,40,41
 241 415 241 415 263.5 392 c 128,-1,42
 286 369 286 369 350 369 c 0,29,30
EndSplineSet
EndChar

StartChar: seven.sups
Encoding: 8311 8311 571
Width: 700
GlyphClass: 2
Flags: W
LayerCount: 4
Fore
SplineSet
274 304 m 1,0,1
 308 458 308 458 346.5 536 c 128,-1,2
 385 614 385 614 460 724 c 1,3,-1
 150 724 l 1,4,-1
 150 800 l 1,5,-1
 551 800 l 1,6,-1
 551 724 l 1,7,8
 478 605 478 605 435.5 520.5 c 128,-1,9
 393 436 393 436 371 304 c 1,10,-1
 274 304 l 1,0,1
EndSplineSet
EndChar

StartChar: eight.sups
Encoding: 8312 8312 572
Width: 700
GlyphClass: 2
Flags: W
LayerCount: 4
Fore
SplineSet
350 298 m 0,0,1
 236 298 236 298 193 334.5 c 128,-1,2
 150 371 150 371 150 435 c 2,3,-1
 150 449 l 2,4,5
 150 495 150 495 176.5 523.5 c 128,-1,6
 203 552 203 552 250 556 c 1,7,-1
 250 574 l 1,8,9
 213 578 213 578 187.5 601.5 c 128,-1,10
 162 625 162 625 162 664 c 2,11,-1
 162 684 l 2,12,13
 162 748 162 748 211 777 c 128,-1,14
 260 806 260 806 350 806 c 256,15,16
 440 806 440 806 489 778 c 128,-1,17
 538 750 538 750 538 684 c 2,18,-1
 538 664 l 2,19,20
 538 625 538 625 512.5 601.5 c 128,-1,21
 487 578 487 578 450 574 c 1,22,-1
 450 556 l 1,23,24
 498 552 498 552 524.5 522.5 c 128,-1,25
 551 493 551 493 551 449 c 2,26,-1
 551 435 l 2,27,28
 551 369 551 369 508 333.5 c 128,-1,29
 465 298 465 298 350 298 c 0,0,1
350 599 m 0,30,31
 401 599 401 599 424.5 612.5 c 128,-1,32
 448 626 448 626 448 660 c 2,33,-1
 448 675 l 2,34,35
 448 709 448 709 424.5 722 c 128,-1,36
 401 735 401 735 350 735 c 0,37,38
 300 735 300 735 276.5 722 c 128,-1,39
 253 709 253 709 253 675 c 2,40,-1
 253 660 l 2,41,42
 253 626 253 626 276.5 612.5 c 128,-1,43
 300 599 300 599 350 599 c 0,30,31
350 369 m 256,44,45
 422 369 422 369 441 389.5 c 128,-1,46
 460 410 460 410 460 444 c 2,47,-1
 460 453 l 2,48,49
 460 488 460 488 441 508.5 c 128,-1,50
 422 529 422 529 350 529 c 256,51,52
 278 529 278 529 259.5 508.5 c 128,-1,53
 241 488 241 488 241 453 c 2,54,-1
 241 444 l 2,55,56
 241 410 241 410 259.5 389.5 c 128,-1,57
 278 369 278 369 350 369 c 256,44,45
EndSplineSet
EndChar

StartChar: nine.sups
Encoding: 8313 8313 573
Width: 700
GlyphClass: 2
Flags: W
LayerCount: 4
Fore
SplineSet
351 555 m 256,0,1
 412 555 412 555 436 579.5 c 128,-1,2
 460 604 460 604 460 643 c 2,3,-1
 460 651 l 2,4,5
 460 690 460 690 437 713 c 128,-1,6
 414 736 414 736 351 736 c 256,7,8
 288 736 288 736 265 712 c 128,-1,9
 242 688 242 688 242 651 c 2,10,-1
 242 643 l 2,11,12
 242 604 242 604 266 579.5 c 128,-1,13
 290 555 290 555 351 555 c 256,0,1
349 298 m 0,14,15
 253 298 253 298 210.5 329 c 128,-1,16
 168 360 168 360 156 420 c 1,17,-1
 252 435 l 1,18,19
 260 396 260 396 281 382 c 128,-1,20
 302 368 302 368 355 368 c 0,21,22
 421 368 421 368 440.5 398.5 c 128,-1,23
 460 429 460 429 460 479 c 2,24,-1
 460 535 l 1,25,-1
 453 535 l 1,26,27
 435 514 435 514 403.5 502 c 128,-1,28
 372 490 372 490 326 490 c 0,29,30
 230 490 230 490 190 530.5 c 128,-1,31
 150 571 150 571 150 638 c 2,32,-1
 150 651 l 2,33,34
 150 717 150 717 197.5 761.5 c 128,-1,35
 245 806 245 806 350 806 c 256,36,37
 455 806 455 806 503 758 c 128,-1,38
 551 710 551 710 551 629 c 2,39,-1
 551 479 l 2,40,41
 551 396 551 396 504 347 c 128,-1,42
 457 298 457 298 349 298 c 0,14,15
EndSplineSet
EndChar

StartChar: nsuperior
Encoding: 8319 8319 574
Width: 700
GlyphClass: 2
Flags: W
LayerCount: 4
Fore
SplineSet
150 303 m 1,0,-1
 150 802 l 1,1,-1
 233 802 l 1,2,-1
 233 719 l 1,3,-1
 258 719 l 1,4,5
 269 744 269 744 285 762 c 128,-1,6
 301 780 301 780 319 791 c 0,7,8
 337 801 337 801 356 805.5 c 128,-1,9
 375 810 375 810 394 810 c 0,10,11
 427 810 427 810 455.5 798.5 c 128,-1,12
 484 787 484 787 505 765 c 0,13,14
 527 743 527 743 538.5 711.5 c 128,-1,15
 550 680 550 680 550 640 c 2,16,-1
 550 303 l 1,17,-1
 467 303 l 1,18,-1
 467 623 l 2,19,20
 467 650 467 650 460 670.5 c 128,-1,21
 453 691 453 691 441 704 c 0,22,23
 429 718 429 718 412 724.5 c 128,-1,24
 395 731 395 731 374 731 c 256,25,26
 353 731 353 731 334 724.5 c 128,-1,27
 315 718 315 718 298 707 c 0,28,29
 282 695 282 695 266.5 680 c 128,-1,30
 251 665 251 665 233 644 c 1,31,-1
 233 303 l 1,32,-1
 150 303 l 1,0,-1
EndSplineSet
EndChar

StartChar: franc
Encoding: 8355 8355 585
Width: 700
GlyphClass: 2
Flags: W
LayerCount: 4
Fore
SplineSet
400 195 m 1,0,-1
 200 195 l 1,1,-1
 200 0 l 1,2,-1
 100 0 l 1,3,-1
 100 195 l 1,4,-1
 0 195 l 1,5,-1
 0 285 l 1,6,-1
 100 285 l 1,7,-1
 100 800 l 1,8,-1
 620 800 l 1,9,-1
 620 710 l 1,10,-1
 200 710 l 1,11,-1
 200 500 l 1,12,-1
 550 500 l 1,13,-1
 550 410 l 1,14,-1
 200 410 l 1,15,-1
 200 285 l 1,16,-1
 400 285 l 1,17,-1
 400 195 l 1,0,-1
EndSplineSet
EndChar

